<svg width="180" height="180" viewBox="0 0 180 180" fill="none" xmlns="http://www.w3.org/2000/svg">
<path id="Vector" fill-rule="evenodd" clip-rule="evenodd" d="M180 90.0042L162.562 104.447L173.17 124.45L151.513 131.089L153.639 153.638L131.09 151.513L124.451 173.168L104.447 162.561L90.0055 179.999L75.5643 162.561L55.5595 173.168L48.9223 151.513L26.3727 153.638L28.4978 131.089L6.84214 124.45L17.4492 104.447L0 90.0042L17.4383 75.5631L6.83122 55.5473L28.4869 48.909L26.3606 26.3606L48.9102 28.4857L55.5485 6.83001L75.5534 17.4371L90.0055 0L104.447 17.4371L124.451 6.83001L131.09 28.4857L153.639 26.3606L151.513 48.909L173.17 55.5473L162.562 75.5522L180 89.9921V90.0042Z" fill="#FA0211"/>
</svg>
