<svg width="1549" height="860" viewBox="0 0 1549 860" fill="none" xmlns="http://www.w3.org/2000/svg">
<path opacity="0.702" fill-rule="evenodd" clip-rule="evenodd" d="M1507.26 397.836C1484.21 397.836 1465.53 379.144 1465.53 356.088C1465.53 333.031 1484.21 314.341 1507.26 314.341C1530.31 314.341 1549 333.031 1549 356.088C1549 379.144 1530.31 397.836 1507.26 397.836ZM1420.86 420.541C1409.54 420.541 1400.36 411.358 1400.36 400.032C1400.36 388.707 1409.54 379.525 1420.86 379.525C1432.18 379.525 1441.36 388.707 1441.36 400.032C1441.36 411.358 1432.18 420.541 1420.86 420.541ZM1280.18 818.985C1265.62 818.985 1253.82 807.18 1253.82 792.618C1253.82 778.057 1265.62 766.251 1280.18 766.251C1294.74 766.251 1306.54 778.057 1306.54 792.618C1306.54 807.18 1294.74 818.985 1280.18 818.985ZM1287.5 651.996C1281.43 651.996 1276.52 647.076 1276.52 641.009C1276.52 634.942 1281.43 630.023 1287.5 630.023C1293.57 630.023 1298.48 634.942 1298.48 641.009C1298.48 647.076 1293.57 651.996 1287.5 651.996ZM1235.88 679.095C1223.95 679.095 1214.28 669.421 1214.28 657.488C1214.28 645.556 1223.95 635.883 1235.88 635.883C1247.81 635.883 1257.48 645.556 1257.48 657.488C1257.48 669.421 1247.81 679.095 1235.88 679.095ZM1235.43 40.2178C1228.15 40.2178 1222.25 34.3146 1222.25 27.0341C1222.25 19.7526 1228.15 13.8504 1235.43 13.8504C1242.71 13.8504 1248.61 19.7526 1248.61 27.0341C1248.61 34.3146 1242.71 40.2178 1235.43 40.2178ZM1199.63 817.52C1193.57 817.52 1188.65 812.601 1188.65 806.534C1188.65 800.466 1193.57 795.548 1199.63 795.548C1205.7 795.548 1210.62 800.466 1210.62 806.534C1210.62 812.601 1205.7 817.52 1199.63 817.52ZM611.057 44.6769C598.723 44.6769 588.725 34.6751 588.725 22.3384C588.725 10.0008 598.723 0 611.057 0C623.391 0 633.39 10.0008 633.39 22.3384C633.39 34.6751 623.391 44.6769 611.057 44.6769ZM543.196 852.676C534.906 852.676 528.186 845.954 528.186 837.662C528.186 829.369 534.906 822.647 543.196 822.647C551.487 822.647 558.207 829.369 558.207 837.662C558.207 845.954 551.487 852.676 543.196 852.676ZM509.514 750.138C487.07 750.138 468.876 731.94 468.876 709.489C468.876 687.039 487.07 668.841 509.514 668.841C531.958 668.841 550.153 687.039 550.153 709.489C550.153 731.94 531.958 750.138 509.514 750.138ZM419.085 860C407.762 860 398.583 850.819 398.583 839.493C398.583 828.166 407.762 818.985 419.085 818.985C430.407 818.985 439.586 828.166 439.586 839.493C439.586 850.819 430.407 860 419.085 860ZM400.047 468.893C388.319 468.893 378.812 459.384 378.812 447.653C378.812 435.923 388.319 426.413 400.047 426.413C411.775 426.413 421.282 435.923 421.282 447.653C421.282 459.384 411.775 468.893 400.047 468.893ZM282.94 436.646C283.383 438.658 283.624 440.747 283.624 442.892C283.624 458.87 270.674 471.824 254.701 471.824C238.727 471.824 225.778 458.87 225.778 442.892C225.778 426.915 238.727 413.963 254.701 413.963C258.271 413.963 261.688 414.613 264.845 415.796C266.245 407.281 273.616 400.779 282.525 400.779C292.433 400.779 300.465 408.812 300.465 418.723C300.465 428.493 292.654 436.423 282.94 436.646ZM65.5344 674.361C49.5601 674.361 36.6115 661.408 36.6115 645.431C36.6115 629.453 49.5601 616.501 65.5344 616.501C81.5078 616.501 94.4573 629.453 94.4573 645.431C94.4573 661.408 81.5078 674.361 65.5344 674.361ZM20.868 716.841C9.34312 716.841 0 707.495 0 695.967C0 684.439 9.34312 675.093 20.868 675.093C32.3939 675.093 41.737 684.439 41.737 695.967C41.737 707.495 32.3939 716.841 20.868 716.841ZM1485.57 709.857C1496.28 709.857 1504.97 718.546 1504.97 729.265C1504.97 739.984 1496.28 748.673 1485.57 748.673C1474.85 748.673 1466.16 739.984 1466.16 729.265C1466.16 718.546 1474.85 709.857 1485.57 709.857Z" fill="white"/>
</svg>
