<svg width="260" height="298" viewBox="0 0 260 298" fill="none" xmlns="http://www.w3.org/2000/svg">
<g clip-path="url(#clip0_5_4437)">
<rect width="517" height="477" transform="translate(-116 -133)" fill="#026BD6"/>
<path fill-rule="evenodd" clip-rule="evenodd" d="M345.009 -19.4717C337.757 -11.0836 325.885 -10.8297 316.911 -5.49859C306.511 0.678899 306.017 10.1622 301.804 20.4099C296.802 32.6411 284.156 42.0333 271.183 43.7844C264.573 44.6769 257.892 43.505 252.41 39.707C247.195 36.1741 245.008 30.7672 241.962 25.6275C240.366 22.7342 238.632 19.9268 236.188 17.5821C229.947 11.5531 220.864 12.4148 213.106 13.6603C192.47 16.8841 179.4 1.18338 174.457 -17.5118C171.45 -28.8894 174.142 -41.7921 181.463 -51.0573C190.251 -62.137 205.228 -66.0784 215.894 -74.9424C231.815 -88.1735 232.979 -106.02 251.903 -116.277C272.515 -127.643 287.197 -110.816 291.853 -94.9405C296.089 -80.86 307.256 -73.617 319.354 -66.2022C327.897 -60.7923 338.629 -58.6624 344.816 -49.7749C351.102 -40.8515 352.256 -27.6367 345.009 -19.4717ZM35.6647 253.433C25.2647 259.611 24.7708 269.095 20.5572 279.342C15.5551 291.573 2.90921 300.964 -10.0639 302.716C-16.6737 303.608 -23.3541 302.437 -28.8369 298.64C-34.0517 295.107 -36.2383 289.7 -39.2849 284.559C-40.8804 281.666 -42.6149 278.857 -45.0582 276.515C-51.2998 270.485 -60.3825 271.346 -68.1409 272.593C-88.7762 275.815 -101.846 260.115 -106.789 241.42C-109.797 230.041 -107.104 217.139 -99.7837 207.875C-90.9955 196.795 -76.0188 192.854 -65.3529 183.99C-49.4313 170.757 -48.2675 152.911 -29.3431 142.654C-8.73134 131.289 5.95075 148.117 10.6062 163.992C14.8422 178.072 26.0093 185.315 38.1059 192.73C46.6507 198.14 57.3821 200.27 63.5695 209.157C69.8551 218.08 71.0097 231.296 63.7628 239.461C56.5107 247.849 44.638 248.103 35.6647 253.433Z" fill="#4DABFB"/>
<rect width="517" height="477" transform="translate(-116 -133)" fill="#026BD6"/>
<path fill-rule="evenodd" clip-rule="evenodd" d="M345.009 -19.4717C337.757 -11.0836 325.885 -10.8297 316.911 -5.49859C306.511 0.678899 306.017 10.1622 301.804 20.4099C296.802 32.6411 284.156 42.0333 271.183 43.7844C264.573 44.6769 257.892 43.505 252.41 39.707C247.195 36.1741 245.008 30.7672 241.962 25.6275C240.366 22.7342 238.632 19.9268 236.188 17.5821C229.947 11.5531 220.864 12.4148 213.106 13.6603C192.47 16.8841 179.4 1.18338 174.457 -17.5118C171.45 -28.8894 174.142 -41.7921 181.463 -51.0573C190.251 -62.137 205.228 -66.0784 215.894 -74.9424C231.815 -88.1735 232.979 -106.02 251.903 -116.277C272.515 -127.643 287.197 -110.816 291.853 -94.9405C296.089 -80.86 307.256 -73.617 319.354 -66.2022C327.897 -60.7923 338.629 -58.6624 344.816 -49.7749C351.102 -40.8515 352.256 -27.6367 345.009 -19.4717ZM35.6647 253.433C25.2647 259.611 24.7708 269.095 20.5572 279.342C15.5551 291.573 2.90921 300.964 -10.0639 302.716C-16.6737 303.608 -23.3541 302.437 -28.8369 298.64C-34.0517 295.107 -36.2383 289.7 -39.2849 284.559C-40.8804 281.666 -42.6149 278.857 -45.0582 276.515C-51.2998 270.485 -60.3825 271.346 -68.1409 272.593C-88.7762 275.815 -101.846 260.115 -106.789 241.42C-109.797 230.041 -107.104 217.139 -99.7837 207.875C-90.9955 196.795 -76.0188 192.854 -65.3529 183.99C-49.4313 170.757 -48.2675 152.911 -29.3431 142.654C-8.73134 131.289 5.95075 148.117 10.6062 163.992C14.8422 178.072 26.0093 185.315 38.1059 192.73C46.6507 198.14 57.3821 200.27 63.5695 209.157C69.8551 218.08 71.0097 231.296 63.7628 239.461C56.5107 247.849 44.638 248.103 35.6647 253.433Z" fill="#4DABFB"/>
</g>
<defs>
<clipPath id="clip0_5_4437">
<rect width="260" height="298" fill="white"/>
</clipPath>
</defs>
</svg>
