<svg width="550" height="86" viewBox="0 0 550 86" fill="none" xmlns="http://www.w3.org/2000/svg">
<path d="M33.6106 74.424L36.2326 67.014H27.1126L22.4386 79.782C21.1846 83.088 18.2206 85.14 15.0286 85.14C10.6966 85.14 6.93462 81.492 6.93462 77.16C6.93462 76.362 7.04862 75.336 7.39062 74.424L10.0126 67.014H7.84662C3.74262 67.014 0.436617 63.708 0.436617 59.604C0.436617 55.5 3.74262 52.194 7.84662 52.194H15.4846L21.4126 36.006H18.7906C14.6866 36.006 11.3806 32.7 11.3806 28.596C11.3806 24.492 14.6866 21.186 18.7906 21.186H26.7706L31.4446 8.41799C32.6986 5.112 35.6626 3.06 38.8546 3.06C43.0726 3.06 46.9486 6.48 46.9486 11.04C46.9486 11.952 46.8346 12.864 46.4926 13.776L43.7566 21.186H52.9906L57.6646 8.41799C58.9186 5.112 61.8826 3.06 65.0746 3.06C69.2926 3.06 73.1686 6.48 73.1686 11.04C73.1686 11.952 73.0546 12.864 72.7126 13.776L69.9766 21.186H72.2566C76.3606 21.186 79.6666 24.492 79.6666 28.596C79.6666 32.7 76.3606 36.006 72.2566 36.006H64.6186L58.6906 52.194H61.3126C65.4166 52.194 68.7226 55.5 68.7226 59.604C68.7226 63.708 65.4166 67.014 61.3126 67.014H53.3326L48.6586 79.782C47.4046 83.088 44.4406 85.14 41.2486 85.14C36.9166 85.14 33.1546 81.492 33.1546 77.16C33.1546 76.362 33.2686 75.336 33.6106 74.424ZM38.3986 36.006L32.4706 52.194H41.7046L47.6326 36.006H38.3986ZM126.5 85.14C103.472 85.14 85.3461 67.014 85.3461 44.1C85.3461 21.186 103.472 3.06 126.5 3.06C138.47 3.06 148.844 7.96199 155.798 15.144C157.28 16.74 158.078 19.02 158.078 20.958C158.078 25.632 154.202 29.394 149.528 29.394C147.248 29.394 144.968 28.14 142.688 26.088C138.47 22.212 133.112 19.59 126.5 19.59C113.39 19.59 103.016 30.42 103.016 44.1C103.016 57.78 113.39 68.61 126.5 68.61C133.112 68.61 138.47 65.988 142.688 62.112C144.968 60.06 147.248 58.806 149.528 58.806C154.202 58.806 158.078 62.568 158.078 67.242C158.078 69.18 157.28 71.46 155.798 73.056C148.844 80.238 138.47 85.14 126.5 85.14ZM169.452 77.16V11.04C169.452 6.594 172.986 3.06 177.432 3.06C181.878 3.06 185.412 6.594 185.412 11.04V27.798C188.946 25.86 192.936 24.72 197.382 24.72C211.176 24.72 221.892 35.436 221.892 51.51V77.16C221.892 81.606 218.358 85.14 213.912 85.14C209.466 85.14 205.932 81.606 205.932 77.16V50.94C205.932 43.53 201.372 39.54 195.672 39.54C189.972 39.54 185.412 43.53 185.412 50.94V77.16C185.412 81.606 181.878 85.14 177.432 85.14C172.986 85.14 169.452 81.606 169.452 77.16ZM235.581 77.16V32.7C235.581 28.254 239.115 24.72 243.561 24.72C248.007 24.72 251.541 28.254 251.541 32.7V77.16C251.541 81.606 248.007 85.14 243.561 85.14C239.115 85.14 235.581 81.606 235.581 77.16ZM243.561 19.02C238.545 19.02 234.441 14.916 234.441 9.9C234.441 4.884 238.545 0.779998 243.561 0.779998C248.577 0.779998 252.681 4.884 252.681 9.9C252.681 14.916 248.577 19.02 243.561 19.02ZM265.194 77.16V11.04C265.194 6.594 268.728 3.06 273.174 3.06C277.62 3.06 281.154 6.594 281.154 11.04V77.16C281.154 81.606 277.62 85.14 273.174 85.14C268.728 85.14 265.194 81.606 265.194 77.16ZM294.808 77.16V11.04C294.808 6.594 298.342 3.06 302.788 3.06C307.234 3.06 310.768 6.594 310.768 11.04V77.16C310.768 81.606 307.234 85.14 302.788 85.14C298.342 85.14 294.808 81.606 294.808 77.16ZM391.795 85.14C368.767 85.14 350.641 67.014 350.641 44.1C350.641 21.186 368.767 3.06 391.795 3.06C414.823 3.06 432.949 21.186 432.949 44.1C432.949 67.014 414.823 85.14 391.795 85.14ZM391.795 68.61C404.905 68.61 415.279 57.78 415.279 44.1C415.279 30.42 404.905 19.59 391.795 19.59C378.685 19.59 368.311 30.42 368.311 44.1C368.311 57.78 378.685 68.61 391.795 68.61ZM444.321 58.35V32.7C444.321 28.254 447.855 24.72 452.301 24.72C456.747 24.72 460.281 28.254 460.281 32.7V58.92C460.281 66.33 464.841 70.32 470.541 70.32C476.241 70.32 480.801 66.33 480.801 58.92V32.7C480.801 28.254 484.335 24.72 488.781 24.72C493.227 24.72 496.761 28.254 496.761 32.7V58.35C496.761 74.424 485.247 85.14 470.541 85.14C455.835 85.14 444.321 74.424 444.321 58.35Z" fill="url(#paint0_linear_302_1264)"/>
<path d="M512.16 40.68C508.056 40.68 504.75 37.374 504.75 33.27C504.75 29.166 508.056 25.86 512.16 25.86H514.326V19.02C514.326 14.574 517.86 11.04 522.306 11.04C526.752 11.04 530.286 14.574 530.286 19.02V25.86H542.028C546.132 25.86 549.438 29.166 549.438 33.27C549.438 37.374 546.132 40.68 542.028 40.68H530.286V56.298C530.286 65.76 535.53 70.32 542.028 70.32C546.132 70.32 549.438 73.626 549.438 77.73C549.438 81.834 546.132 85.14 542.028 85.14C526.638 85.14 514.326 73.968 514.326 56.298V40.68H512.16Z" fill="url(#paint1_linear_302_1264)"/>
<defs>
<linearGradient id="paint0_linear_302_1264" x1="276" y1="125.525" x2="227.107" y2="-27.3496" gradientUnits="userSpaceOnUse">
<stop stop-color="#96EBFF"/>
<stop offset="0.38679" stop-color="white"/>
<stop offset="0.770263" stop-color="#96EBFF"/>
<stop offset="0.83692" stop-color="white"/>
<stop offset="1" stop-color="white"/>
</linearGradient>
<linearGradient id="paint1_linear_302_1264" x1="144" y1="-7" x2="380" y2="50" gradientUnits="userSpaceOnUse">
<stop stop-color="#C0F0E3"/>
<stop offset="0.078125" stop-color="#96EBFF" stop-opacity="0.916667"/>
<stop offset="0.713542" stop-color="#E4DCFF"/>
<stop offset="1" stop-color="#93EBFF"/>
</linearGradient>
</defs>
</svg>
