<svg width="31" height="30" viewBox="0 0 31 30" fill="none" xmlns="http://www.w3.org/2000/svg">
<g clip-path="url(#clip0_217_3598)">
<path d="M20.4085 13.6015C20.465 13.5996 20.5213 13.6089 20.574 13.6288C20.6268 13.6487 20.6749 13.6789 20.7155 13.7175C20.7562 13.7561 20.7885 13.8024 20.8106 13.8535C20.8326 13.9047 20.844 13.9597 20.844 14.0152C20.844 14.0708 20.8326 14.1258 20.8106 14.1769C20.7885 14.2281 20.7562 14.2743 20.7155 14.3129C20.6749 14.3515 20.6268 14.3817 20.574 14.4016C20.5213 14.4215 20.465 14.4308 20.4085 14.4289H19.239V15.1664H20.4085C20.4653 15.1636 20.5221 15.1723 20.5754 15.1918C20.6287 15.2113 20.6774 15.2412 20.7186 15.2798C20.7598 15.3184 20.7926 15.3647 20.815 15.4162C20.8374 15.4676 20.849 15.5229 20.849 15.5788C20.849 15.6348 20.8374 15.6901 20.815 15.7415C20.7926 15.7929 20.7598 15.8393 20.7186 15.8779C20.6774 15.9165 20.6287 15.9464 20.5754 15.9659C20.5221 15.9854 20.4653 15.994 20.4085 15.9913H18.82C18.709 15.9909 18.6026 15.9473 18.5242 15.87C18.4457 15.7927 18.4016 15.688 18.4015 15.5788V12.4521C18.4015 12.2245 18.589 12.0376 18.82 12.0376H20.4115C20.5195 12.0431 20.6212 12.0892 20.6955 12.1664C20.7698 12.2436 20.8111 12.346 20.8108 12.4523C20.8105 12.5586 20.7686 12.6607 20.6938 12.7374C20.619 12.8142 20.517 12.8597 20.409 12.8646H19.2395V13.602L20.4085 13.6015ZM17.8415 15.5783C17.8406 15.6878 17.7957 15.7925 17.7167 15.8697C17.6377 15.9468 17.5309 15.9902 17.4195 15.9903C17.3536 15.991 17.2884 15.9765 17.2291 15.9481C17.1698 15.9197 17.1181 15.8781 17.078 15.8266L15.4505 13.6502V15.5778C15.4505 15.6872 15.4063 15.7922 15.3276 15.8695C15.249 15.9469 15.1423 15.9903 15.031 15.9903C14.9197 15.9903 14.813 15.9469 14.7344 15.8695C14.6557 15.7922 14.6115 15.6872 14.6115 15.5778V12.4511C14.6115 12.2746 14.729 12.1163 14.898 12.0598C14.9397 12.0453 14.9837 12.0381 15.028 12.0386C15.158 12.0386 15.278 12.1079 15.3585 12.2053L16.999 14.3866V12.4511C16.999 12.2235 17.1865 12.0367 17.4185 12.0367C17.6505 12.0367 17.8405 12.2235 17.8405 12.4511L17.8415 15.5783ZM14.0135 15.5783C14.013 15.688 13.9683 15.793 13.8892 15.8703C13.8101 15.9476 13.703 15.9909 13.5915 15.9908C13.4808 15.9899 13.3749 15.9461 13.297 15.8688C13.219 15.7916 13.1751 15.6872 13.175 15.5783V12.4516C13.175 12.224 13.3625 12.0372 13.5945 12.0372C13.826 12.0372 14.014 12.224 14.014 12.4516L14.0135 15.5783ZM12.37 15.9908H10.7785C10.6671 15.9906 10.5603 15.9471 10.4813 15.8699C10.4023 15.7926 10.3574 15.6879 10.3565 15.5783V12.4516C10.3565 12.224 10.5465 12.0372 10.7785 12.0372C11.0105 12.0372 11.198 12.224 11.198 12.4516V15.1659H12.37C12.4813 15.1659 12.588 15.2093 12.6666 15.2867C12.7453 15.364 12.7895 15.4689 12.7895 15.5783C12.7895 15.6877 12.7453 15.7927 12.6666 15.87C12.588 15.9474 12.4813 15.9908 12.37 15.9908ZM23.5 13.8955C23.5 10.375 19.9085 7.50977 15.5 7.50977C11.0915 7.50977 7.5 10.375 7.5 13.8955C7.5 17.0503 10.3465 19.6928 14.19 20.1947C14.4505 20.2483 14.8045 20.3638 14.896 20.5816C14.9765 20.7783 14.948 21.0831 14.922 21.291L14.8125 21.9592C14.781 22.1563 14.651 22.7354 15.5105 22.382C16.3725 22.0285 20.1225 19.709 21.802 17.8084C22.9505 16.5719 23.5 15.3016 23.5 13.8955Z" fill="#069FE7"/>
</g>
<circle cx="15.8057" cy="15" r="14.5" stroke="#069FE7"/>
<defs>
<clipPath id="clip0_217_3598">
<rect width="16" height="16" fill="white" transform="translate(7.5 6.50977)"/>
</clipPath>
</defs>
</svg>
