<svg width="31" height="30" viewBox="0 0 31 30" fill="none" xmlns="http://www.w3.org/2000/svg">
<g clip-path="url(#clip0_217_3602)">
<path d="M15.8572 9.12402H15.9462C16.7682 9.12702 20.9335 9.15703 22.0566 9.45904C22.3961 9.55122 22.7054 9.73088 22.9538 9.98009C23.2021 10.2293 23.3807 10.5393 23.4716 10.8791C23.5727 11.2592 23.6437 11.7622 23.6917 12.2812L23.7017 12.3852L23.7237 12.6452L23.7317 12.7493C23.7967 13.6633 23.8047 14.5194 23.8057 14.7064V14.7814C23.8047 14.9754 23.7957 15.8894 23.7237 16.8415L23.7157 16.9465L23.7067 17.0505C23.6567 17.6226 23.5827 18.1906 23.4716 18.6086C23.3809 18.9486 23.2025 19.2587 22.9541 19.508C22.7057 19.7572 22.3962 19.9368 22.0566 20.0287C20.8965 20.3407 16.4872 20.3627 15.8762 20.3637H15.7342C15.4251 20.3637 14.1471 20.3577 12.807 20.3117L12.637 20.3057L12.55 20.3017L12.379 20.2947L12.2079 20.2877C11.0979 20.2387 10.0408 20.1597 9.55377 20.0277C9.21424 19.9359 8.9048 19.7565 8.65644 19.5074C8.40809 19.2584 8.22954 18.9484 8.13868 18.6086C8.02768 18.1916 7.95367 17.6226 7.90367 17.0505L7.89567 16.9455L7.88767 16.8415C7.83831 16.1639 7.81096 15.4848 7.80566 14.8054L7.80566 14.6824C7.80766 14.4674 7.81566 13.7243 7.86967 12.9043L7.87667 12.8013L7.87967 12.7493L7.88767 12.6452L7.90967 12.3852L7.91967 12.2812C7.96767 11.7622 8.03868 11.2582 8.13968 10.8791C8.23038 10.5392 8.40886 10.229 8.65723 9.97976C8.9056 9.73052 9.21512 9.55094 9.55477 9.45904C10.0418 9.32904 11.0989 9.24903 12.2089 9.19903L12.379 9.19203L12.551 9.18603L12.637 9.18303L12.808 9.17603C13.7597 9.1454 14.7119 9.1284 15.6642 9.12502H15.8572V9.12402ZM14.2061 12.3342V17.1525L18.3633 14.7444L14.2061 12.3342Z" fill="#069FE7"/>
</g>
<circle cx="15.8057" cy="15" r="14.5" stroke="#069FE7"/>
<defs>
<clipPath id="clip0_217_3602">
<rect width="17" height="17" fill="white" transform="translate(7.80566 7)"/>
</clipPath>
</defs>
</svg>
