<svg width="442" height="100" viewBox="0 0 442 100" fill="none" xmlns="http://www.w3.org/2000/svg">
<path d="M33.3333 79.5556L35.8889 72.3333H27L22.4444 84.7778C21.2222 88 18.3333 90 15.2222 90C11 90 7.33333 86.4444 7.33333 82.2222C7.33333 81.4444 7.44444 80.4444 7.77778 79.5556L10.3333 72.3333H8.22222C4.22222 72.3333 1 69.1111 1 65.1111C1 61.1111 4.22222 57.8889 8.22222 57.8889H15.6667L21.4444 42.1111H18.8889C14.8889 42.1111 11.6667 38.8889 11.6667 34.8889C11.6667 30.8889 14.8889 27.6667 18.8889 27.6667H26.6667L31.2222 15.2222C32.4444 12 35.3333 10 38.4444 10C42.5555 10 46.3333 13.3333 46.3333 17.7778C46.3333 18.6667 46.2222 19.5556 45.8889 20.4444L43.2222 27.6667H52.2222L56.7778 15.2222C58 12 60.8889 10 64 10C68.1111 10 71.8889 13.3333 71.8889 17.7778C71.8889 18.6667 71.7778 19.5556 71.4444 20.4444L68.7778 27.6667H71C75 27.6667 78.2222 30.8889 78.2222 34.8889C78.2222 38.8889 75 42.1111 71 42.1111H63.5555L57.7778 57.8889H60.3333C64.3333 57.8889 67.5555 61.1111 67.5555 65.1111C67.5555 69.1111 64.3333 72.3333 60.3333 72.3333H52.5555L48 84.7778C46.7778 88 43.8889 90 40.7778 90C36.5556 90 32.8889 86.4444 32.8889 82.2222C32.8889 81.4444 33 80.4444 33.3333 79.5556ZM38 42.1111L32.2222 57.8889H41.2222L47 42.1111H38Z" fill="url(#paint0_linear_299_16871)"/>
<path d="M85.98 80.5555V19.4444C85.98 14.8889 89.7578 11.1111 94.3134 11.1111H115.647C127.869 11.1111 137.869 21.1111 137.869 33.3333C137.869 39.7778 135.091 46.5556 127.424 49.5556C135.758 52.5556 138.98 59.7778 138.98 66.6667C138.98 78.8889 128.98 88.8889 116.758 88.8889H94.3134C89.7578 88.8889 85.98 85.1111 85.98 80.5555ZM102.647 73.3333H113.98C118.313 73.3333 121.758 69.8889 121.758 65.5556C121.758 61.2222 118.313 57.7778 113.98 57.7778H112.647C108.313 57.7778 104.869 54.3333 104.869 50C104.869 45.6667 108.313 42.2222 112.647 42.2222H112.869C117.202 42.2222 120.647 38.7778 120.647 34.4444C120.647 30.1111 117.202 26.6667 112.869 26.6667H102.647V73.3333Z" fill="url(#paint1_linear_299_16871)"/>
<path d="M177.444 90C160.332 90 147.777 77.1111 147.777 60.5556C147.777 44.1111 160.221 31.1111 177.444 31.1111C186.555 31.1111 193.444 34.8889 196.555 37.7778C198.332 39.3333 199.332 41.5556 199.332 43.7778C199.332 45.6667 198.777 47.3333 197.221 49.2222L182.888 66.3333C181.332 68.1111 179.666 68.8889 177.555 68.8889C173.332 68.8889 170.11 65.8889 170.11 61.7778C170.11 60.1111 170.555 58.4445 171.777 57.1111L181.332 46.1111C180.555 45.7778 178.666 45.5556 177.444 45.5556C169.555 45.5556 163.444 52.2222 163.444 60.5556C163.444 68.8889 169.444 75.5556 177.444 75.5556C181.555 75.5556 184.332 73.8889 186.221 72.3333C188.444 70.4444 189.999 68.7778 192.999 68.7778C197.332 68.7778 200.666 71.8889 200.666 76.2222C200.666 77.7778 199.888 79.6667 198.444 81.3333C194.666 85.8889 186.999 90 177.444 90Z" fill="url(#paint2_linear_299_16871)"/>
<path d="M238.975 81.6667V19.4444C238.975 14.8889 242.753 11.1111 247.308 11.1111H275.753C280.086 11.1111 283.53 14.5556 283.53 18.8889C283.53 23.2222 280.086 26.6667 275.753 26.6667H255.641V42.2222H275.753C280.086 42.2222 283.53 45.6667 283.53 50C283.53 54.3333 280.086 57.7778 275.753 57.7778H255.641V81.6667C255.641 86.2222 251.864 90 247.308 90C242.753 90 238.975 86.2222 238.975 81.6667Z" fill="url(#paint3_linear_299_16871)"/>
<path d="M291.818 82.2222V59.2222C291.818 42 303.818 31.1111 318.818 31.1111C322.818 31.1111 326.04 34.3333 326.04 38.3333C326.04 42.3333 322.818 45.5556 318.818 45.5556C312.484 45.5556 307.373 50 307.373 59.2222V82.2222C307.373 86.5556 303.929 90 299.595 90C295.262 90 291.818 86.5556 291.818 82.2222Z" fill="url(#paint4_linear_299_16871)"/>
<path d="M359.627 90C342.516 90 329.96 77.1111 329.96 60.5556C329.96 44.1111 342.404 31.1111 359.627 31.1111C368.738 31.1111 375.627 34.8889 378.738 37.7778C380.516 39.3333 381.516 41.5556 381.516 43.7778C381.516 45.6667 380.96 47.3333 379.404 49.2222L365.071 66.3333C363.516 68.1111 361.849 68.8889 359.738 68.8889C355.516 68.8889 352.293 65.8889 352.293 61.7778C352.293 60.1111 352.738 58.4445 353.96 57.1111L363.516 46.1111C362.738 45.7778 360.849 45.5556 359.627 45.5556C351.738 45.5556 345.627 52.2222 345.627 60.5556C345.627 68.8889 351.627 75.5556 359.627 75.5556C363.738 75.5556 366.516 73.8889 368.404 72.3333C370.627 70.4444 372.182 68.7778 375.182 68.7778C379.516 68.7778 382.849 71.8889 382.849 76.2222C382.849 77.7778 382.071 79.6667 380.627 81.3333C376.849 85.8889 369.182 90 359.627 90Z" fill="url(#paint5_linear_299_16871)"/>
<path d="M418.003 90C400.892 90 388.337 77.1111 388.337 60.5556C388.337 44.1111 400.781 31.1111 418.003 31.1111C427.115 31.1111 434.003 34.8889 437.115 37.7778C438.892 39.3333 439.892 41.5556 439.892 43.7778C439.892 45.6667 439.337 47.3333 437.781 49.2222L423.448 66.3333C421.892 68.1111 420.226 68.8889 418.115 68.8889C413.892 68.8889 410.67 65.8889 410.67 61.7778C410.67 60.1111 411.115 58.4445 412.337 57.1111L421.892 46.1111C421.115 45.7778 419.226 45.5556 418.003 45.5556C410.115 45.5556 404.003 52.2222 404.003 60.5556C404.003 68.8889 410.003 75.5556 418.003 75.5556C422.115 75.5556 424.892 73.8889 426.781 72.3333C429.003 70.4444 430.559 68.7778 433.559 68.7778C437.892 68.7778 441.226 71.8889 441.226 76.2222C441.226 77.7778 440.448 79.6667 439.003 81.3333C435.226 85.8889 427.559 90 418.003 90Z" fill="url(#paint6_linear_299_16871)"/>
<defs>
<linearGradient id="paint0_linear_299_16871" x1="221.113" y1="103" x2="169.299" y2="15.3885" gradientUnits="userSpaceOnUse">
<stop stop-color="#96EBFF"/>
<stop offset="0.38679" stop-color="white"/>
<stop offset="0.770263" stop-color="#96EBFF"/>
<stop offset="0.83692" stop-color="white"/>
<stop offset="1" stop-color="white"/>
</linearGradient>
<linearGradient id="paint1_linear_299_16871" x1="221.113" y1="103" x2="169.299" y2="15.3885" gradientUnits="userSpaceOnUse">
<stop stop-color="#96EBFF"/>
<stop offset="0.38679" stop-color="white"/>
<stop offset="0.770263" stop-color="#96EBFF"/>
<stop offset="0.83692" stop-color="white"/>
<stop offset="1" stop-color="white"/>
</linearGradient>
<linearGradient id="paint2_linear_299_16871" x1="221.113" y1="103" x2="169.299" y2="15.3885" gradientUnits="userSpaceOnUse">
<stop stop-color="#96EBFF"/>
<stop offset="0.38679" stop-color="white"/>
<stop offset="0.770263" stop-color="#96EBFF"/>
<stop offset="0.83692" stop-color="white"/>
<stop offset="1" stop-color="white"/>
</linearGradient>
<linearGradient id="paint3_linear_299_16871" x1="221.113" y1="103" x2="169.299" y2="15.3885" gradientUnits="userSpaceOnUse">
<stop stop-color="#96EBFF"/>
<stop offset="0.38679" stop-color="white"/>
<stop offset="0.770263" stop-color="#96EBFF"/>
<stop offset="0.83692" stop-color="white"/>
<stop offset="1" stop-color="white"/>
</linearGradient>
<linearGradient id="paint4_linear_299_16871" x1="221.113" y1="103" x2="169.299" y2="15.3885" gradientUnits="userSpaceOnUse">
<stop stop-color="#96EBFF"/>
<stop offset="0.38679" stop-color="white"/>
<stop offset="0.770263" stop-color="#96EBFF"/>
<stop offset="0.83692" stop-color="white"/>
<stop offset="1" stop-color="white"/>
</linearGradient>
<linearGradient id="paint5_linear_299_16871" x1="221.113" y1="103" x2="169.299" y2="15.3885" gradientUnits="userSpaceOnUse">
<stop stop-color="#96EBFF"/>
<stop offset="0.38679" stop-color="white"/>
<stop offset="0.770263" stop-color="#96EBFF"/>
<stop offset="0.83692" stop-color="white"/>
<stop offset="1" stop-color="white"/>
</linearGradient>
<linearGradient id="paint6_linear_299_16871" x1="221.113" y1="103" x2="169.299" y2="15.3885" gradientUnits="userSpaceOnUse">
<stop stop-color="#96EBFF"/>
<stop offset="0.38679" stop-color="white"/>
<stop offset="0.770263" stop-color="#96EBFF"/>
<stop offset="0.83692" stop-color="white"/>
<stop offset="1" stop-color="white"/>
</linearGradient>
</defs>
</svg>
