<svg width="510" height="462" viewBox="0 0 510 462" fill="none" xmlns="http://www.w3.org/2000/svg">
<g clip-path="url(#clip0_409_4383)">
<rect width="1014.12" height="739.51" transform="translate(-227.538 -206.195)" fill="white"/>
<path fill-rule="evenodd" clip-rule="evenodd" d="M354.596 63.4959C345.521 79.1624 334.705 94.2495 321.129 106.204C286.187 136.966 241.261 126.248 202.159 114.018C101.068 83.1906 26.6941 164.608 -8.49755 269.257C-29.915 332.955 -23.5324 409.064 8.11647 467.147C45.9708 536.615 119.208 569.557 167.888 626.797C240.56 713.235 236.523 816.884 325.893 888.487C423.224 966.466 505.694 879.128 538.489 790.479C567.573 712.808 627.697 677.336 691.779 642.178C738.525 616.53 793.626 611.084 829.639 563.775C865.801 516.276 879.29 440.859 848.207 389.16C815.489 337.425 756.089 327.149 713.954 290.7C665.119 248.454 667.892 193.458 652.398 131.686C634.001 58.5979 575.699 -4.23398 511.485 -22.5975C479.76 -31.9515 444.549 -27.6439 414.599 -10.2617C386.737 6.0082 371.954 36.1303 354.596 63.4959Z" fill="#FFF100"/>
</g>
<defs>
<clipPath id="clip0_409_4383">
<rect width="1014.12" height="739.51" fill="white" transform="translate(-227.538 -206.195)"/>
</clipPath>
</defs>
</svg>
