<svg width="255" height="151" viewBox="0 0 255 151" fill="none" xmlns="http://www.w3.org/2000/svg">
<g clip-path="url(#clip0_307_865)">
<path fill-rule="evenodd" clip-rule="evenodd" d="M115.033 122.684C112.571 118.219 109.895 113.888 106.124 110.272C96.492 100.969 82.4766 102.298 70.5064 104.22C38.6638 109.193 18.4949 84.9706 10.8686 56.1257C6.22672 38.5719 10.382 18.6647 21.6783 4.37045C35.2397 -12.7251 58.3488 -18.8054 74.8074 -32.4814C99.3749 -52.8963 101.172 -80.4304 130.374 -96.2567C162.178 -113.791 184.834 -87.8307 192.02 -63.3361C198.556 -41.613 215.787 -30.4376 234.453 -18.9968C247.639 -10.6501 264.198 -7.36329 273.745 6.34777C283.445 20.1161 285.226 40.505 274.043 53.1031C262.854 66.0435 244.532 66.4354 230.686 74.661C214.637 84.1922 213.876 98.8236 207.374 114.633C199.655 133.504 180.142 147.995 160.124 150.697C149.924 152.074 139.615 150.266 131.155 144.407C123.109 138.957 119.735 130.614 115.033 122.684Z" fill="#4DC9FF"/>
</g>
<defs>
<clipPath id="clip0_307_865">
<rect width="255" height="151" fill="white"/>
</clipPath>
</defs>
</svg>
