<svg width="602" height="1416" viewBox="0 0 602 1416" fill="none" xmlns="http://www.w3.org/2000/svg">
<g clip-path="url(#clip0_4_3282)">
<path d="M20.3323 1253.66C9.03653 1253.66 -0.000116561 1262.83 -0.000118514 1274C-0.000120466 1285.17 9.16942 1294.34 20.3323 1294.34C31.4952 1294.34 40.6648 1285.17 40.6648 1274C40.7977 1262.83 31.6281 1253.66 20.3323 1253.66ZM20.3323 1292.62C10.0997 1292.62 1.86037 1284.37 1.86037 1274.13C1.86037 1263.9 10.0997 1255.65 20.3323 1255.65C30.565 1255.65 38.8043 1263.9 38.8043 1274.13C38.9372 1284.24 30.565 1292.62 20.3323 1292.62Z" fill="#FFDB83"/>
<path d="M205.052 1328.65C180.999 1328.65 161.464 1348.19 161.464 1372.26C161.464 1396.32 180.999 1415.87 205.052 1416C229.105 1416 248.641 1396.46 248.641 1372.39C248.773 1348.19 229.238 1328.65 205.052 1328.65ZM205.052 1412.01C183.125 1412.01 165.317 1394.19 165.317 1372.26C165.317 1350.32 183.125 1332.5 205.052 1332.5C226.979 1332.5 244.787 1350.32 244.787 1372.26C244.787 1394.19 226.979 1412.01 205.052 1412.01Z" fill="#C3FCEA"/>
<path d="M583.794 982.824C574.226 982.824 566.518 990.535 566.518 1000.11C566.518 1009.68 574.226 1017.39 583.794 1017.39C593.362 1017.39 601.07 1009.68 601.07 1000.11C601.07 990.668 593.362 982.824 583.794 982.824ZM583.794 1015.93C575.156 1015.93 568.113 1008.88 568.113 1000.24C568.113 991.599 575.156 984.552 583.794 984.552C592.432 984.552 599.475 991.599 599.475 1000.24C599.608 1008.88 592.565 1015.93 583.794 1015.93Z" fill="#FFDB83"/>
<path d="M337.944 215.391C325.984 215.391 316.416 225.097 316.416 236.931C316.416 248.764 326.117 258.47 337.944 258.47C349.771 258.47 359.472 248.764 359.472 236.931C359.605 225.097 349.904 215.391 337.944 215.391ZM337.944 256.608C327.047 256.608 318.276 247.833 318.276 236.931C318.276 226.028 327.047 217.253 337.944 217.253C348.841 217.253 357.612 226.028 357.612 236.931C357.612 247.833 348.841 256.608 337.944 256.608Z" fill="#FFDB83"/>
<path d="M178.474 572.915C173.025 572.915 168.64 577.303 168.64 582.754C168.64 588.205 173.025 592.593 178.474 592.593C183.922 592.593 188.308 588.205 188.308 582.754C188.308 577.303 183.922 572.915 178.474 572.915ZM178.474 591.529C173.557 591.529 169.57 587.54 169.57 582.621C169.57 577.702 173.557 573.713 178.474 573.713C183.391 573.713 187.378 577.702 187.378 582.621C187.378 587.54 183.391 591.529 178.474 591.529Z" fill="#DFFFAD"/>
<path d="M487.447 1329.31L470.038 1346.73C469.108 1347.66 469.108 1349.26 470.038 1350.32L487.447 1367.74C488.377 1368.67 489.972 1368.67 491.035 1367.74L508.444 1350.32C509.374 1349.39 509.374 1347.79 508.444 1346.73L491.035 1329.31C489.972 1328.38 488.377 1328.38 487.447 1329.31ZM472.165 1346.73L487.314 1331.57C488.245 1330.64 489.839 1330.64 490.902 1331.57L506.052 1346.73C506.982 1347.66 506.982 1349.26 506.052 1350.32L490.902 1365.48C489.972 1366.41 488.377 1366.41 487.314 1365.48L472.165 1350.32C471.234 1349.26 471.234 1347.66 472.165 1346.73Z" fill="#DFFFAD"/>
<path d="M493.295 1.99476L451.434 43.8764C449.042 46.2697 449.042 50.1255 451.434 52.5187L493.295 94.4004C495.687 96.7936 499.541 96.7936 501.933 94.4004L543.794 52.5187C546.186 50.1255 546.186 46.2697 543.794 43.8765L501.933 1.99476C499.541 -0.398475 495.687 -0.398475 493.295 1.99476ZM456.749 43.8764L493.295 7.31307C495.687 4.91983 499.541 4.91983 501.933 7.31307L538.478 43.8765C540.87 46.2697 540.87 50.1255 538.478 52.5187L501.933 89.0821C499.541 91.4753 495.687 91.4753 493.295 89.0821L456.749 52.5187C454.357 50.1255 454.357 46.2697 456.749 43.8764Z" fill="#DFFFAD"/>
<path d="M79.868 278.015L68.9709 288.918C68.3064 289.582 68.3064 290.513 68.9709 291.178L79.868 302.081C80.5325 302.745 81.4627 302.745 82.1272 302.081L93.0243 291.178C93.6888 290.513 93.6888 289.582 93.0243 288.918L82.1272 278.015C81.5956 277.483 80.5325 277.483 79.868 278.015ZM70.2998 289.051L79.868 279.478C80.5325 278.813 81.4627 278.813 82.1272 279.478L91.6954 289.051C92.3598 289.715 92.3598 290.646 91.6954 291.311L82.1272 300.884C81.4627 301.549 80.5325 301.549 79.868 300.884L70.2998 291.311C69.7682 290.646 69.7682 289.582 70.2998 289.051Z" fill="#DFFFAD"/>
<path d="M51.6949 930.305L45.0504 936.953C44.6517 937.352 44.6517 937.884 45.0504 938.282L51.6949 944.93C52.0936 945.329 52.6252 945.329 53.0239 944.93L59.6685 938.282C60.0671 937.884 60.0671 937.352 59.6685 936.953L53.0239 930.305C52.6252 929.906 52.0936 929.906 51.6949 930.305ZM45.8477 936.953L51.6949 931.103C52.0936 930.704 52.6252 930.704 53.0239 931.103L58.8711 936.953C59.2698 937.352 59.2698 937.884 58.8711 938.282L53.0239 944.133C52.6252 944.531 52.0936 944.531 51.6949 944.133L45.8477 938.282C45.449 938.017 45.449 937.352 45.8477 936.953Z" fill="#DFFFAD"/>
<path d="M321.864 799.741C321.199 799.741 320.668 800.273 320.668 800.938L320.668 801.204L321.598 805.192C321.598 805.325 321.598 805.458 321.465 805.591L317.744 809.314C317.346 809.713 317.346 810.511 317.744 810.909C317.877 811.042 318.143 811.175 318.409 811.308L323.06 811.84C323.193 811.84 323.326 811.973 323.326 811.973L325.585 816.494C325.851 817.026 326.515 817.291 327.18 817.026C327.445 816.893 327.578 816.76 327.711 816.494L329.97 811.973C329.97 811.84 330.103 811.84 330.236 811.84L334.887 811.308C335.552 811.175 335.95 810.644 335.95 809.979C335.95 809.713 335.818 809.447 335.552 809.314L331.831 805.591C331.698 805.458 331.698 805.325 331.698 805.192L332.628 801.204C332.761 800.539 332.362 800.007 331.831 799.874C331.565 799.741 331.299 799.874 331.034 800.007L327.047 802.4C326.914 802.533 326.781 802.533 326.648 802.4L322.661 800.007C322.263 799.741 321.997 799.741 321.864 799.741ZM326.648 816.228C326.515 816.228 326.382 816.095 326.382 815.962L324.123 811.441C323.99 811.042 323.592 810.909 323.193 810.777L318.542 810.245C318.409 810.245 318.143 809.979 318.276 809.846C318.276 809.757 318.32 809.669 318.409 809.58L322.13 805.857C322.396 805.591 322.528 805.192 322.396 804.793L321.465 800.805C321.465 800.672 321.598 800.406 321.731 800.406L321.997 800.406L325.984 802.799C326.382 803.065 326.781 803.065 327.18 802.799L331.166 800.406C331.299 800.273 331.432 800.273 331.565 800.406C331.698 800.539 331.698 800.672 331.698 800.805L330.768 804.793C330.635 805.192 330.768 805.591 331.034 805.857L334.754 809.58C334.887 809.713 334.887 809.979 334.754 810.112C334.754 810.112 334.622 810.245 334.489 810.245L329.97 810.777C329.572 810.777 329.306 811.042 329.04 811.441L326.781 815.962C326.914 816.095 326.781 816.228 326.648 816.228Z" fill="#FFDB83"/>
<path d="M206.647 161.411C205.717 161.411 204.919 162.208 204.919 163.139L204.919 163.538L206.381 169.521C206.381 169.654 206.381 169.92 206.248 170.053L200.8 175.504C200.135 176.169 200.135 177.232 200.8 177.897C201.065 178.163 201.464 178.296 201.863 178.429L208.64 179.227C208.773 179.227 209.039 179.36 209.039 179.493L212.228 186.008C212.627 186.805 213.69 187.204 214.487 186.805C214.886 186.672 215.152 186.407 215.285 186.008L218.474 179.493C218.607 179.36 218.74 179.227 218.873 179.227L225.65 178.429C226.581 178.296 227.245 177.498 227.112 176.568C227.112 176.169 226.846 175.903 226.581 175.504L221.132 170.053C220.999 169.92 220.999 169.787 220.999 169.521L222.461 163.538C222.727 162.607 222.062 161.676 221.265 161.543C220.866 161.411 220.335 161.543 220.069 161.676L214.222 165.133C214.089 165.266 213.823 165.266 213.69 165.133L207.843 161.676C207.178 161.543 206.913 161.411 206.647 161.411ZM213.69 185.742C213.424 185.742 213.291 185.609 213.159 185.476L209.969 178.961C209.703 178.429 209.172 178.163 208.64 178.03L201.863 177.232C201.597 177.232 201.331 176.967 201.464 176.701C201.464 176.568 201.597 176.435 201.597 176.435L207.046 170.983C207.444 170.585 207.577 169.92 207.444 169.388L205.982 163.405C205.849 163.139 206.115 162.873 206.381 162.74L206.78 162.74L212.627 166.197C213.159 166.463 213.823 166.463 214.355 166.197L220.202 162.74C220.335 162.607 220.601 162.607 220.733 162.74C220.866 162.873 220.999 163.139 220.999 163.272L219.537 169.255C219.404 169.787 219.537 170.452 219.936 170.851L225.385 176.302C225.65 176.568 225.65 176.834 225.385 177.1C225.296 177.188 225.207 177.232 225.119 177.232L218.341 178.03C217.81 178.163 217.278 178.429 217.012 178.961L213.823 185.476C214.089 185.609 213.823 185.742 213.69 185.742Z" fill="#C3FCEA"/>
<path d="M529.308 503.378C528.644 503.378 528.245 503.91 528.245 504.575L528.245 504.841L529.175 508.83C529.175 508.963 529.175 509.096 529.042 509.096L525.454 512.685C525.056 513.084 525.056 513.882 525.454 514.281C525.587 514.414 525.853 514.547 526.119 514.547L530.637 515.079C530.77 515.079 530.903 515.212 530.903 515.212L533.029 519.599C533.295 520.131 533.959 520.397 534.491 520.131C534.757 519.998 534.89 519.865 535.023 519.599L537.149 515.212C537.149 515.079 537.282 515.079 537.415 515.079L541.933 514.547C542.597 514.414 542.996 513.882 542.863 513.35C542.863 513.084 542.73 512.818 542.597 512.685L539.009 509.096C538.876 508.963 538.876 508.83 538.876 508.83L539.807 504.841C539.94 504.176 539.541 503.644 539.009 503.511C538.743 503.378 538.478 503.511 538.212 503.644L534.358 505.905L533.959 505.905L530.105 503.644C529.707 503.511 529.441 503.378 529.308 503.378ZM533.959 519.466C533.826 519.466 533.694 519.333 533.694 519.333L531.567 514.946C531.434 514.547 531.036 514.414 530.637 514.281L526.119 513.749C525.986 513.749 525.853 513.483 525.853 513.35C525.853 513.217 525.853 513.217 525.986 513.084L529.574 509.494C529.84 509.229 529.973 508.83 529.84 508.431L528.909 504.442C528.909 504.309 529.042 504.043 529.175 504.043L529.441 504.043L533.295 506.303C533.694 506.569 534.092 506.569 534.491 506.303L538.345 504.043C538.478 503.91 538.611 503.91 538.743 504.043C538.876 504.176 538.876 504.309 538.876 504.442L537.946 508.431C537.813 508.83 537.946 509.229 538.212 509.494L541.8 513.084C541.933 513.217 541.933 513.483 541.8 513.616C541.8 513.616 541.667 513.749 541.534 513.749L537.016 514.281C536.617 514.281 536.351 514.547 536.086 514.946L533.959 519.333C534.225 519.466 534.092 519.466 533.959 519.466Z" fill="#C3FCEA"/>
</g>
<defs>
<clipPath id="clip0_4_3282">
<rect width="602" height="1416" fill="white" transform="matrix(1 1.74846e-07 1.74846e-07 -1 -0.00012207 1416)"/>
</clipPath>
</defs>
</svg>
