<svg width="603" height="1416" viewBox="0 0 603 1416" fill="none" xmlns="http://www.w3.org/2000/svg">
<g clip-path="url(#clip0_4_3296)">
<path d="M20.3662 162.341C9.05165 162.341 0 153.167 0 141.999C0 130.83 9.18477 121.656 20.3662 121.656C31.5477 121.656 40.7324 130.83 40.7324 141.999C40.8656 153.167 31.6808 162.341 20.3662 162.341ZM20.3662 123.385C10.1166 123.385 1.86358 131.628 1.86358 141.866C1.86358 152.104 10.1166 160.347 20.3662 160.347C30.6159 160.347 38.8689 152.104 38.8689 141.866C39.002 131.761 30.6159 123.385 20.3662 123.385Z" fill="#FFDB83"/>
<path d="M205.393 87.3532C181.299 87.3532 161.732 67.8084 161.732 43.7431C161.732 19.6777 181.299 0.132958 205.393 0C229.486 0 249.054 19.5448 249.054 43.6101C249.187 67.8084 229.619 87.3532 205.393 87.3532ZM205.393 3.98873C183.429 3.98873 165.592 21.8051 165.592 43.7431C165.592 65.6811 183.429 83.4975 205.393 83.4975C227.356 83.4975 245.193 65.6811 245.193 43.7431C245.193 21.8051 227.356 3.98873 205.393 3.98873Z" fill="#C3FCEA"/>
<path d="M584.764 433.176C575.179 433.176 567.459 425.465 567.459 415.892C567.459 406.319 575.179 398.607 584.764 398.607C594.348 398.607 602.068 406.319 602.068 415.892C602.068 425.332 594.348 433.176 584.764 433.176ZM584.764 400.07C576.111 400.07 569.056 407.117 569.056 415.759C569.056 424.401 576.111 431.448 584.764 431.448C593.416 431.448 600.471 424.401 600.471 415.759C600.604 407.117 593.549 400.07 584.764 400.07Z" fill="#FFDB83"/>
<path d="M338.505 1200.61C326.525 1200.61 316.941 1190.9 316.941 1179.07C316.941 1167.24 326.658 1157.53 338.505 1157.53C350.352 1157.53 360.07 1167.24 360.07 1179.07C360.203 1190.9 350.485 1200.61 338.505 1200.61ZM338.505 1159.39C327.59 1159.39 318.805 1168.17 318.805 1179.07C318.805 1189.97 327.59 1198.75 338.505 1198.75C349.421 1198.75 358.206 1189.97 358.206 1179.07C358.206 1168.17 349.421 1159.39 338.505 1159.39Z" fill="#FFDB83"/>
<path d="M178.77 843.085C173.313 843.085 168.92 838.697 168.92 833.246C168.92 827.795 173.313 823.407 178.77 823.407C184.228 823.407 188.621 827.795 188.621 833.246C188.621 838.697 184.228 843.085 178.77 843.085ZM178.77 824.471C173.845 824.471 169.852 828.46 169.852 833.379C169.852 838.298 173.845 842.287 178.77 842.287C183.695 842.287 187.689 838.298 187.689 833.379C187.689 828.46 183.695 824.471 178.77 824.471Z" fill="#DFFFAD"/>
<path d="M488.257 86.6882L470.819 69.2708C469.887 68.3401 469.887 66.7446 470.819 65.6809L488.257 48.2635C489.189 47.3328 490.786 47.3328 491.851 48.2635L509.289 65.6809C510.221 66.6116 510.221 68.2071 509.289 69.2708L491.851 86.6882C490.786 87.6189 489.189 87.6189 488.257 86.6882ZM472.949 69.2708L488.124 84.428C489.056 85.3587 490.653 85.3587 491.718 84.428L506.893 69.2708C507.824 68.3401 507.824 66.7446 506.893 65.6809L491.718 50.5237C490.786 49.593 489.189 49.593 488.124 50.5237L472.949 65.6809C472.017 66.7446 472.017 68.3401 472.949 69.2708Z" fill="#DFFFAD"/>
<path d="M494.114 1414.01L452.183 1372.12C449.787 1369.73 449.787 1365.87 452.183 1363.48L494.114 1321.6C496.51 1319.21 500.37 1319.21 502.766 1321.6L544.697 1363.48C547.093 1365.87 547.093 1369.73 544.697 1372.12L502.766 1414.01C500.37 1416.4 496.51 1416.4 494.114 1414.01ZM457.508 1372.12L494.114 1408.69C496.51 1411.08 500.37 1411.08 502.766 1408.69L539.372 1372.12C541.768 1369.73 541.768 1365.87 539.372 1363.48L502.766 1326.92C500.37 1324.52 496.51 1324.52 494.114 1326.92L457.508 1363.48C455.112 1365.87 455.112 1369.73 457.508 1372.12Z" fill="#DFFFAD"/>
<path d="M80.0006 1137.99L69.0854 1127.08C68.4199 1126.42 68.4199 1125.49 69.0854 1124.82L80.0006 1113.92C80.6662 1113.26 81.598 1113.26 82.2636 1113.92L93.1788 1124.82C93.8444 1125.49 93.8444 1126.42 93.1788 1127.08L82.2636 1137.99C81.7311 1138.52 80.6662 1138.52 80.0006 1137.99ZM70.4165 1126.95L80.0006 1136.52C80.6662 1137.19 81.598 1137.19 82.2636 1136.52L91.8477 1126.95C92.5132 1126.29 92.5132 1125.35 91.8477 1124.69L82.2636 1115.12C81.598 1114.45 80.6662 1114.45 80.0006 1115.12L70.4165 1124.69C69.8841 1125.35 69.8841 1126.42 70.4165 1126.95Z" fill="#DFFFAD"/>
<path d="M51.7808 485.695L45.1252 479.047C44.7258 478.648 44.7258 478.116 45.1252 477.718L51.7808 471.07C52.1802 470.671 52.7126 470.671 53.1119 471.07L59.7676 477.718C60.1669 478.116 60.1669 478.648 59.7676 479.047L53.1119 485.695C52.7126 486.094 52.1802 486.094 51.7808 485.695ZM45.9239 479.047L51.7808 484.897C52.1802 485.296 52.7126 485.296 53.1119 484.897L58.9689 479.047C59.3682 478.648 59.3682 478.116 58.9689 477.718L53.1119 471.867C52.7126 471.469 52.1802 471.469 51.7808 471.867L45.9239 477.718C45.5245 477.983 45.5245 478.648 45.9239 479.047Z" fill="#DFFFAD"/>
<path d="M73.8775 310.59C72.9457 310.59 72.147 309.792 72.147 308.861V308.462L73.6113 302.479C73.6113 302.346 73.6113 302.08 73.4782 301.947L68.0205 296.496C67.355 295.831 67.355 294.768 68.0205 294.103C68.2868 293.837 68.6861 293.704 69.0854 293.571L75.8742 292.773C76.0073 292.773 76.2735 292.64 76.2735 292.507L79.4682 285.992C79.8676 285.195 80.9325 284.796 81.7311 285.195C82.1305 285.328 82.3967 285.593 82.5298 285.992L85.7245 292.507C85.8576 292.64 85.9907 292.773 86.1238 292.773L92.9126 293.571C93.8444 293.704 94.5099 294.502 94.3768 295.432C94.3768 295.831 94.1106 296.097 93.8444 296.496L88.3868 301.947C88.2537 302.08 88.2537 302.213 88.2537 302.479L89.7179 308.462C89.9841 309.393 89.3186 310.324 88.5199 310.457C88.1205 310.589 87.5881 310.457 87.3219 310.324L81.4649 306.867C81.3318 306.734 81.0656 306.734 80.9325 306.867L75.0755 310.324C74.4099 310.457 74.1437 310.59 73.8775 310.59ZM80.9325 286.258C80.6662 286.258 80.5331 286.391 80.4 286.524L77.2053 293.039C76.9391 293.571 76.4066 293.837 75.8742 293.97L69.0854 294.768C68.8192 294.768 68.553 295.033 68.6861 295.299C68.6861 295.432 68.8192 295.565 68.8192 295.565L74.2768 301.017C74.6762 301.415 74.8093 302.08 74.6762 302.612L73.2119 308.595C73.0788 308.861 73.345 309.127 73.6113 309.26H74.0106L79.8676 305.803C80.4 305.537 81.0656 305.537 81.598 305.803L87.455 309.26C87.5881 309.393 87.8543 309.393 87.9874 309.26C88.1205 309.127 88.2537 308.861 88.2537 308.728L86.7894 302.745C86.6563 302.213 86.7894 301.548 87.1887 301.149L92.6464 295.698C92.9126 295.432 92.9126 295.166 92.6464 294.9C92.5576 294.812 92.4689 294.768 92.3801 294.768L85.5914 293.97C85.059 293.837 84.5265 293.571 84.2603 293.039L81.0656 286.524C81.3318 286.391 81.0656 286.258 80.9325 286.258Z" fill="#C3FCEA"/>
<path d="M322.399 616.259C321.733 616.259 321.201 615.727 321.201 615.062V614.796L322.132 610.808C322.132 610.675 322.132 610.542 321.999 610.409L318.272 606.686C317.873 606.287 317.873 605.489 318.272 605.091C318.405 604.958 318.671 604.825 318.938 604.692L323.597 604.16C323.73 604.16 323.863 604.027 323.863 604.027L326.126 599.506C326.392 598.974 327.058 598.709 327.723 598.974C327.989 599.107 328.122 599.24 328.256 599.506L330.519 604.027C330.519 604.16 330.652 604.16 330.785 604.16L335.444 604.692C336.109 604.825 336.509 605.356 336.509 606.021C336.509 606.287 336.375 606.553 336.109 606.686L332.382 610.409C332.249 610.542 332.249 610.675 332.249 610.808L333.181 614.796C333.314 615.461 332.915 615.993 332.382 616.126C332.116 616.259 331.85 616.126 331.583 615.993L327.59 613.6C327.457 613.467 327.324 613.467 327.191 613.6L323.197 615.993C322.798 616.259 322.532 616.259 322.399 616.259ZM327.191 599.772C327.058 599.772 326.924 599.905 326.924 600.038L324.662 604.559C324.528 604.958 324.129 605.091 323.73 605.223L319.071 605.755C318.938 605.755 318.671 606.021 318.805 606.154C318.805 606.243 318.849 606.331 318.938 606.42L322.665 610.143C322.931 610.409 323.064 610.808 322.931 611.207L321.999 615.195C321.999 615.328 322.132 615.594 322.266 615.594H322.532L326.525 613.201C326.924 612.935 327.324 612.935 327.723 613.201L331.717 615.594C331.85 615.727 331.983 615.727 332.116 615.594C332.249 615.461 332.249 615.328 332.249 615.195L331.317 611.207C331.184 610.808 331.317 610.409 331.583 610.143L335.311 606.42C335.444 606.287 335.444 606.021 335.311 605.888C335.311 605.888 335.177 605.755 335.044 605.755L330.519 605.223C330.119 605.223 329.853 604.958 329.587 604.559L327.324 600.038C327.457 599.905 327.324 599.772 327.191 599.772Z" fill="#FFDB83"/>
<path d="M206.99 1254.59C206.058 1254.59 205.26 1253.79 205.26 1252.86V1252.46L206.724 1246.48C206.724 1246.35 206.724 1246.08 206.591 1245.95L201.133 1240.5C200.468 1239.83 200.468 1238.77 201.133 1238.1C201.399 1237.84 201.799 1237.7 202.198 1237.57L208.987 1236.77C209.12 1236.77 209.386 1236.64 209.386 1236.51L212.581 1229.99C212.98 1229.19 214.045 1228.8 214.844 1229.19C215.243 1229.33 215.509 1229.59 215.642 1229.99L218.837 1236.51C218.97 1236.64 219.103 1236.77 219.236 1236.77L226.025 1237.57C226.957 1237.7 227.622 1238.5 227.489 1239.43C227.489 1239.83 227.223 1240.1 226.957 1240.5L221.499 1245.95C221.366 1246.08 221.366 1246.21 221.366 1246.48L222.83 1252.46C223.097 1253.39 222.431 1254.32 221.632 1254.46C221.233 1254.59 220.701 1254.46 220.434 1254.32L214.577 1250.87C214.444 1250.73 214.178 1250.73 214.045 1250.87L208.188 1254.32C207.522 1254.46 207.256 1254.59 206.99 1254.59ZM214.045 1230.26C213.779 1230.26 213.646 1230.39 213.513 1230.52L210.318 1237.04C210.052 1237.57 209.519 1237.84 208.987 1237.97L202.198 1238.77C201.932 1238.77 201.666 1239.03 201.799 1239.3C201.799 1239.43 201.932 1239.57 201.932 1239.57L207.389 1245.02C207.789 1245.42 207.922 1246.08 207.789 1246.61L206.324 1252.6C206.191 1252.86 206.458 1253.13 206.724 1253.26H207.123L212.98 1249.8C213.513 1249.54 214.178 1249.54 214.711 1249.8L220.568 1253.26C220.701 1253.39 220.967 1253.39 221.1 1253.26C221.233 1253.13 221.366 1252.86 221.366 1252.73L219.902 1246.75C219.769 1246.21 219.902 1245.55 220.301 1245.15L225.759 1239.7C226.025 1239.43 226.025 1239.17 225.759 1238.9C225.67 1238.81 225.581 1238.77 225.493 1238.77L218.704 1237.97C218.171 1237.84 217.639 1237.57 217.373 1237.04L214.178 1230.52C214.444 1230.39 214.178 1230.26 214.045 1230.26Z" fill="#C3FCEA"/>
<path d="M530.187 912.622C529.522 912.622 529.123 912.09 529.123 911.425V911.159L530.054 907.17C530.054 907.037 530.054 906.904 529.921 906.904L526.327 903.315C525.928 902.916 525.928 902.118 526.327 901.719C526.46 901.586 526.726 901.453 526.993 901.453L531.519 900.921C531.652 900.921 531.785 900.788 531.785 900.788L533.915 896.401C534.181 895.869 534.846 895.603 535.379 895.869C535.645 896.002 535.778 896.135 535.911 896.401L538.041 900.788C538.041 900.921 538.174 900.921 538.307 900.921L542.833 901.453C543.499 901.586 543.898 902.118 543.765 902.65C543.765 902.916 543.632 903.182 543.499 903.315L539.905 906.904C539.772 907.037 539.772 907.17 539.772 907.17L540.703 911.159C540.836 911.824 540.437 912.356 539.905 912.489C539.638 912.622 539.372 912.489 539.106 912.356L535.246 910.095H534.846L530.986 912.356C530.587 912.489 530.321 912.622 530.187 912.622ZM534.846 896.534C534.713 896.534 534.58 896.667 534.58 896.667L532.45 901.054C532.317 901.453 531.918 901.586 531.519 901.719L526.993 902.251C526.86 902.251 526.727 902.517 526.727 902.65C526.727 902.783 526.726 902.783 526.86 902.916L530.454 906.506C530.72 906.771 530.853 907.17 530.72 907.569L529.788 911.558C529.788 911.691 529.921 911.957 530.054 911.957H530.321L534.181 909.697C534.58 909.431 534.979 909.431 535.379 909.697L539.239 911.957C539.372 912.09 539.505 912.09 539.638 911.957C539.772 911.824 539.772 911.691 539.772 911.558L538.84 907.569C538.707 907.17 538.84 906.771 539.106 906.506L542.7 902.916C542.833 902.783 542.833 902.517 542.7 902.384C542.7 902.384 542.567 902.251 542.434 902.251L537.908 901.719C537.509 901.719 537.242 901.453 536.976 901.054L534.846 896.667C535.113 896.534 534.979 896.534 534.846 896.534Z" fill="#C3FCEA"/>
</g>
<defs>
<clipPath id="clip0_4_3296">
<rect width="603" height="1416" fill="white"/>
</clipPath>
</defs>
</svg>
