<svg width="19" height="302" viewBox="0 0 19 302" fill="none" xmlns="http://www.w3.org/2000/svg">
<path d="M8.54393 1.66413L11.1599 1.66413L11.1599 13.6641L8.54393 13.6641L8.54393 1.66413ZM17.6399 11.8161L17.6399 14.6481L0.839927 14.6481L0.839927 11.8161L17.6399 11.8161ZM17.6399 0.536133L17.6399 3.36813L0.839928 3.36813L0.839928 0.536132L17.6399 0.536133Z" fill="#19243C"/>
<path d="M5.15993 22.8115L7.55993 23.3635L7.55993 31.1635L5.15993 31.6915L5.15993 22.8115ZM12.8879 27.2035L6.71993 24.5635L6.09593 24.5155L0.839927 22.1875L0.839927 18.9955L18.5759 27.2035L0.839926 35.4355L0.839926 32.2195L5.95193 29.9395L6.64793 29.8915L12.8879 27.2035Z" fill="#19243C"/>
<path d="M17.6399 39.7658L17.6399 42.5978L0.839926 42.5978L0.839926 39.7658L17.6399 39.7658ZM15.1439 41.4458L17.6399 41.4458L17.6399 44.8298C17.6399 46.0618 17.4239 47.1258 16.9919 48.0218C16.5759 48.9178 15.9759 49.6138 15.1919 50.1098C14.4239 50.6218 13.5039 50.8778 12.4319 50.8778C11.3599 50.8778 10.4319 50.6218 9.64793 50.1098C8.86393 49.6138 8.25593 48.9178 7.82393 48.0218C7.40793 47.1258 7.19993 46.0618 7.19993 44.8298L7.19993 41.4458L9.69593 41.4458L9.69593 44.8298C9.69593 45.8058 9.92793 46.5898 10.3919 47.1818C10.8559 47.7738 11.5359 48.0698 12.4319 48.0698C13.3279 48.0698 13.9999 47.7738 14.4479 47.1818C14.9119 46.5898 15.1439 45.8058 15.1439 44.8298L15.1439 41.4458Z" fill="#19243C"/>
<path d="M17.6399 56.0408L17.6399 58.8728L0.839925 58.8728L0.839925 56.0408L17.6399 56.0408ZM15.1439 57.7208L17.6399 57.7208L17.6399 61.1048C17.6399 62.3368 17.4239 63.4008 16.9919 64.2968C16.5759 65.1928 15.9759 65.8888 15.1919 66.3848C14.4239 66.8968 13.5039 67.1528 12.4319 67.1528C11.3599 67.1528 10.4319 66.8968 9.64793 66.3848C8.86392 65.8888 8.25593 65.1928 7.82393 64.2968C7.40793 63.4008 7.19993 62.3368 7.19993 61.1048L7.19993 57.7208L9.69593 57.7208L9.69593 61.1048C9.69593 62.0808 9.92792 62.8648 10.3919 63.4568C10.8559 64.0488 11.5359 64.3448 12.4319 64.3448C13.3279 64.3448 13.9999 64.0488 14.4479 63.4568C14.9119 62.8648 15.1439 62.0808 15.1439 61.1048L15.1439 57.7208Z" fill="#19243C"/>
<path d="M17.6399 72.3158L17.6399 75.1958L0.839924 75.1958L0.839925 72.3158L17.6399 72.3158Z" fill="#19243C"/>
<path d="M17.6399 93.5892L17.6399 96.3732L-7.66684e-05 96.3732L12.1199 84.1092L0.839924 84.1092L0.839924 81.3252L18.4799 81.3252L6.35992 93.5892L17.6399 93.5892Z" fill="#19243C"/>
<path d="M0.839923 104.274L3.33592 104.274L3.33592 112.746L0.839923 112.746L0.839923 104.274ZM15.1439 104.274L17.6399 104.274L17.6399 112.746L15.1439 112.746L15.1439 104.274ZM8.61592 104.274L11.0639 104.274L11.0639 112.266L8.61592 112.266L8.61592 104.274ZM17.6399 102.522L17.6399 105.306L0.839923 105.306L0.839923 102.522L17.6399 102.522Z" fill="#19243C"/>
<path d="M6.26392 119.737C5.60792 120.105 5.03992 120.497 4.55992 120.913C4.07992 121.345 3.70392 121.817 3.43192 122.329C3.15992 122.857 3.02392 123.433 3.02392 124.057C3.02392 124.825 3.23192 125.449 3.64792 125.929C4.06392 126.409 4.60792 126.649 5.27992 126.649C5.88792 126.649 6.37592 126.497 6.74392 126.193C7.12792 125.905 7.44792 125.489 7.70392 124.945C7.97592 124.401 8.23992 123.777 8.49592 123.073C8.63992 122.657 8.83192 122.193 9.07192 121.681C9.32792 121.169 9.63992 120.681 10.0079 120.217C10.3919 119.753 10.8559 119.369 11.3999 119.065C11.9599 118.761 12.6319 118.609 13.4159 118.609C14.3119 118.609 15.0959 118.841 15.7679 119.305C16.4559 119.769 16.9919 120.393 17.3759 121.177C17.7599 121.977 17.9519 122.881 17.9519 123.889C17.9519 124.881 17.7679 125.745 17.3999 126.481C17.0479 127.217 16.5999 127.841 16.0559 128.353C15.5119 128.865 14.9439 129.257 14.3519 129.529L13.0559 127.249C13.4719 127.025 13.8559 126.753 14.2079 126.433C14.5759 126.113 14.8639 125.737 15.0719 125.305C15.2959 124.889 15.4079 124.401 15.4079 123.841C15.4079 123.057 15.2239 122.481 14.8559 122.113C14.5039 121.745 14.0879 121.561 13.6079 121.561C13.1759 121.561 12.7839 121.689 12.4319 121.945C12.0959 122.217 11.7759 122.633 11.4719 123.193C11.1679 123.753 10.8559 124.481 10.5359 125.377C10.3599 125.889 10.1359 126.393 9.86392 126.889C9.59192 127.401 9.25592 127.857 8.85592 128.257C8.45592 128.673 7.97592 129.009 7.41592 129.265C6.87192 129.521 6.23192 129.649 5.49592 129.649C4.71192 129.649 4.00792 129.489 3.38392 129.169C2.75992 128.865 2.23192 128.449 1.79992 127.921C1.38392 127.393 1.06392 126.793 0.839922 126.121C0.599922 125.465 0.479922 124.777 0.479922 124.057C0.479922 123.081 0.671921 122.169 1.05592 121.321C1.45592 120.489 1.98392 119.753 2.63992 119.113C3.29592 118.489 4.00792 117.993 4.77592 117.625L6.26392 119.737Z" fill="#19243C"/>
<path d="M6.26392 136.035C5.60792 136.403 5.03992 136.795 4.55992 137.211C4.07992 137.643 3.70392 138.115 3.43192 138.627C3.15992 139.155 3.02392 139.731 3.02392 140.355C3.02392 141.123 3.23192 141.747 3.64792 142.227C4.06392 142.707 4.60792 142.947 5.27992 142.947C5.88792 142.947 6.37592 142.795 6.74392 142.491C7.12792 142.203 7.44792 141.787 7.70392 141.243C7.97592 140.699 8.23992 140.075 8.49592 139.371C8.63992 138.955 8.83192 138.491 9.07192 137.979C9.32792 137.467 9.63992 136.979 10.0079 136.515C10.3919 136.051 10.8559 135.667 11.3999 135.363C11.9599 135.059 12.6319 134.907 13.4159 134.907C14.3119 134.907 15.0959 135.139 15.7679 135.603C16.4559 136.067 16.9919 136.691 17.3759 137.475C17.7599 138.275 17.9519 139.179 17.9519 140.187C17.9519 141.179 17.7679 142.043 17.3999 142.779C17.0479 143.515 16.5999 144.139 16.0559 144.651C15.5119 145.163 14.9439 145.555 14.3519 145.827L13.0559 143.547C13.4719 143.323 13.8559 143.051 14.2079 142.731C14.5759 142.411 14.8639 142.035 15.0719 141.603C15.2959 141.187 15.4079 140.699 15.4079 140.139C15.4079 139.355 15.2239 138.779 14.8559 138.411C14.5039 138.043 14.0879 137.859 13.6079 137.859C13.1759 137.859 12.7839 137.987 12.4319 138.243C12.0959 138.515 11.7759 138.931 11.4719 139.491C11.1679 140.051 10.8559 140.779 10.5359 141.675C10.3599 142.187 10.1359 142.691 9.86392 143.187C9.59192 143.699 9.25592 144.155 8.85592 144.555C8.45592 144.971 7.97592 145.307 7.41592 145.563C6.87192 145.819 6.23192 145.947 5.49592 145.947C4.71192 145.947 4.00792 145.787 3.38392 145.467C2.75992 145.163 2.23192 144.747 1.79992 144.219C1.38392 143.691 1.06392 143.091 0.839921 142.419C0.599922 141.763 0.479921 141.075 0.479921 140.355C0.479921 139.379 0.67192 138.467 1.05592 137.619C1.45592 136.787 1.98392 136.051 2.63992 135.411C3.29592 134.787 4.00792 134.291 4.77592 133.923L6.26392 136.035Z" fill="#19243C"/>
<path d="M16.2719 160.513C16.7199 160.513 17.0959 160.673 17.3999 160.993C17.7039 161.329 17.8559 161.713 17.8559 162.145C17.8559 162.609 17.7039 163.001 17.3999 163.321C17.0959 163.641 16.7199 163.801 16.2719 163.801C15.8399 163.801 15.4639 163.641 15.1439 163.321C14.8399 163.001 14.6879 162.609 14.6879 162.145C14.6879 161.713 14.8399 161.329 15.1439 160.993C15.4639 160.673 15.8399 160.513 16.2719 160.513ZM11.8799 160.873L11.8799 163.441L0.839921 163.441L0.839921 160.873L11.8799 160.873Z" fill="#19243C"/>
<path d="M4.48792 169.912C4.08792 170.28 3.75192 170.64 3.47992 170.992C3.20792 171.344 2.99992 171.704 2.85592 172.072C2.71192 172.44 2.63992 172.808 2.63992 173.176C2.63992 173.64 2.74392 174 2.95192 174.256C3.15992 174.528 3.44792 174.664 3.81592 174.664C4.13592 174.664 4.40792 174.56 4.63192 174.352C4.87192 174.144 5.07192 173.856 5.23192 173.488C5.40792 173.12 5.58392 172.688 5.75992 172.192C5.95192 171.696 6.17592 171.2 6.43192 170.704C6.70392 170.224 7.05592 169.824 7.48792 169.504C7.91992 169.2 8.46392 169.048 9.11992 169.048C9.79192 169.048 10.3519 169.216 10.7999 169.552C11.2479 169.904 11.5759 170.368 11.7839 170.944C12.0079 171.536 12.1199 172.168 12.1199 172.84C12.1199 173.448 12.0319 174.016 11.8559 174.544C11.6799 175.088 11.4479 175.576 11.1599 176.008C10.8719 176.44 10.5439 176.808 10.1759 177.112L8.63992 175.672C9.07192 175.32 9.42392 174.888 9.69592 174.376C9.96792 173.864 10.1039 173.336 10.1039 172.792C10.1039 172.408 10.0239 172.096 9.86392 171.856C9.70392 171.616 9.47192 171.496 9.16792 171.496C8.91192 171.496 8.67992 171.6 8.47192 171.808C8.27992 172.032 8.10392 172.32 7.94392 172.672C7.78392 173.04 7.61592 173.448 7.43992 173.896C7.19992 174.52 6.93592 175.088 6.64792 175.6C6.35992 176.112 6.00792 176.52 5.59192 176.824C5.17592 177.128 4.63192 177.28 3.95992 177.28C2.91992 177.28 2.07992 176.92 1.43992 176.2C0.81592 175.496 0.50392 174.544 0.50392 173.344C0.50392 172.576 0.615919 171.88 0.83992 171.256C1.07992 170.632 1.38392 170.08 1.75192 169.6C2.13592 169.12 2.53592 168.72 2.95192 168.4L4.48792 169.912Z" fill="#19243C"/>
<path d="M9.50392 193.951L10.8959 193.951L10.8959 196.663C10.8959 197.191 10.9839 197.655 11.1599 198.055C11.3359 198.455 11.5839 198.767 11.9039 198.991C12.2399 199.215 12.6399 199.327 13.1039 199.327C13.8079 199.327 14.3519 199.079 14.7359 198.583C15.1199 198.103 15.3119 197.463 15.3119 196.663L15.3119 194.623L3.19192 194.623L3.19192 196.975C3.19192 197.615 3.29592 198.183 3.50392 198.679C3.71192 199.175 4.01592 199.567 4.41592 199.855C4.83192 200.143 5.35192 200.287 5.97592 200.287C6.43992 200.287 6.83992 200.207 7.17592 200.047C7.51192 199.887 7.79192 199.655 8.01592 199.351C8.25592 199.047 8.42392 198.695 8.51992 198.295C8.63192 197.895 8.68792 197.455 8.68792 196.975L8.68792 193.951L10.2719 193.951L10.2719 197.143C10.2719 197.959 10.1759 198.727 9.98392 199.447C9.80792 200.183 9.53592 200.831 9.16792 201.391C8.79992 201.951 8.32792 202.391 7.75192 202.711C7.17592 203.031 6.48792 203.191 5.68792 203.191C4.58392 203.191 3.67192 202.935 2.95192 202.423C2.23192 201.911 1.69592 201.199 1.34392 200.287C1.00792 199.391 0.839919 198.343 0.839919 197.143L0.839919 191.791L17.6399 191.791L17.6399 196.855C17.6399 197.927 17.4879 198.863 17.1839 199.663C16.8799 200.463 16.4159 201.087 15.7919 201.535C15.1679 201.999 14.3759 202.231 13.4159 202.231C12.5839 202.231 11.8719 201.999 11.2799 201.535C10.7039 201.087 10.2639 200.463 9.95992 199.663C9.65592 198.863 9.50392 197.927 9.50392 196.855L9.50392 193.951Z" fill="#19243C"/>
<path d="M17.6399 208.485L17.6399 211.317L6.47992 211.317C5.45592 211.317 4.62392 211.597 3.98392 212.157C3.34392 212.717 3.02392 213.533 3.02392 214.605C3.02392 215.693 3.34392 216.509 3.98392 217.053C4.62392 217.613 5.45592 217.893 6.47992 217.893L17.6399 217.893L17.6399 220.749L6.35992 220.749C5.43192 220.749 4.59992 220.597 3.86392 220.293C3.14392 220.005 2.52792 219.581 2.01592 219.021C1.50392 218.477 1.11192 217.829 0.839918 217.077C0.567919 216.325 0.431917 215.501 0.431917 214.605C0.431917 213.709 0.567919 212.885 0.839918 212.133C1.11192 211.381 1.50392 210.733 2.01592 210.189C2.52792 209.645 3.14392 209.221 3.86392 208.917C4.59992 208.629 5.43192 208.485 6.35992 208.485L17.6399 208.485Z" fill="#19243C"/>
<path d="M9.50392 228.915L10.8959 228.915L10.8959 231.627C10.8959 232.155 10.9839 232.619 11.1599 233.019C11.3359 233.419 11.5839 233.731 11.9039 233.955C12.2399 234.179 12.6399 234.291 13.1039 234.291C13.8079 234.291 14.3519 234.043 14.7359 233.547C15.1199 233.067 15.3119 232.427 15.3119 231.627L15.3119 229.587L3.19192 229.587L3.19192 231.939C3.19192 232.579 3.29592 233.147 3.50392 233.643C3.71192 234.139 4.01592 234.531 4.41592 234.819C4.83192 235.107 5.35192 235.251 5.97592 235.251C6.43992 235.251 6.83992 235.171 7.17592 235.011C7.51192 234.851 7.79192 234.619 8.01592 234.315C8.25592 234.011 8.42392 233.659 8.51992 233.259C8.63192 232.859 8.68792 232.419 8.68792 231.939L8.68792 228.915L10.2719 228.915L10.2719 232.107C10.2719 232.923 10.1759 233.691 9.98392 234.411C9.80792 235.147 9.53592 235.795 9.16792 236.355C8.79992 236.915 8.32792 237.355 7.75192 237.675C7.17592 237.995 6.48792 238.155 5.68792 238.155C4.58392 238.155 3.67192 237.899 2.95192 237.387C2.23192 236.875 1.69592 236.163 1.34392 235.251C1.00792 234.355 0.839917 233.307 0.839918 232.107L0.839918 226.755L17.6399 226.755L17.6399 231.819C17.6399 232.891 17.4879 233.827 17.1839 234.627C16.8799 235.427 16.4159 236.051 15.7919 236.499C15.1679 236.963 14.3759 237.195 13.4159 237.195C12.5839 237.195 11.8719 236.963 11.2799 236.499C10.7039 236.051 10.2639 235.427 9.95992 234.627C9.65592 233.827 9.50392 232.891 9.50392 231.819L9.50392 228.915Z" fill="#19243C"/>
<path d="M9.50392 245.729L10.8959 245.729L10.8959 248.441C10.8959 248.969 10.9839 249.433 11.1599 249.833C11.3359 250.233 11.5839 250.545 11.9039 250.769C12.2399 250.993 12.6399 251.105 13.1039 251.105C13.8079 251.105 14.3519 250.857 14.7359 250.361C15.1199 249.881 15.3119 249.241 15.3119 248.441L15.3119 246.401L3.19192 246.401L3.19192 248.753C3.19192 249.393 3.29592 249.961 3.50392 250.457C3.71192 250.953 4.01592 251.345 4.41592 251.633C4.83192 251.921 5.35192 252.065 5.97592 252.065C6.43992 252.065 6.83992 251.985 7.17592 251.825C7.51192 251.665 7.79192 251.433 8.01592 251.129C8.25592 250.825 8.42392 250.473 8.51992 250.073C8.63192 249.673 8.68792 249.233 8.68792 248.753L8.68792 245.729L10.2719 245.729L10.2719 248.921C10.2719 249.737 10.1759 250.505 9.98392 251.225C9.80792 251.961 9.53592 252.609 9.16792 253.169C8.79992 253.729 8.32792 254.169 7.75192 254.489C7.17592 254.809 6.48792 254.969 5.68792 254.969C4.58392 254.969 3.67192 254.713 2.95192 254.201C2.23192 253.689 1.69592 252.977 1.34392 252.065C1.00792 251.169 0.839917 250.121 0.839917 248.921L0.839917 243.569L17.6399 243.569L17.6399 248.633C17.6399 249.705 17.4879 250.641 17.1839 251.441C16.8799 252.241 16.4159 252.865 15.7919 253.313C15.1679 253.777 14.3759 254.009 13.4159 254.009C12.5839 254.009 11.8719 253.777 11.2799 253.313C10.7039 252.865 10.2639 252.241 9.95992 251.441C9.65592 250.641 9.50392 249.705 9.50392 248.633L9.50392 245.729Z" fill="#19243C"/>
<path d="M17.6399 260.383L17.6399 263.215L3.38392 263.215L3.38392 269.887L0.839916 269.887L0.839916 260.383L17.6399 260.383Z" fill="#19243C"/>
<path d="M0.839916 276.09L3.33592 276.09L3.33592 284.562L0.839915 284.562L0.839916 276.09ZM15.1439 276.09L17.6399 276.09L17.6399 284.562L15.1439 284.562L15.1439 276.09ZM8.61592 276.09L11.0639 276.09L11.0639 284.082L8.61592 284.082L8.61592 276.09ZM17.6399 274.338L17.6399 277.122L0.839916 277.122L0.839916 274.338L17.6399 274.338Z" fill="#19243C"/>
<path d="M6.26391 291.553C5.60791 291.921 5.03991 292.313 4.55991 292.729C4.07991 293.161 3.70392 293.633 3.43192 294.145C3.15992 294.673 3.02391 295.249 3.02391 295.873C3.02391 296.641 3.23191 297.265 3.64792 297.745C4.06392 298.225 4.60792 298.465 5.27992 298.465C5.88791 298.465 6.37591 298.313 6.74391 298.009C7.12791 297.721 7.44791 297.305 7.70392 296.761C7.97591 296.217 8.23991 295.593 8.49591 294.889C8.63992 294.473 8.83192 294.009 9.07192 293.497C9.32792 292.985 9.63992 292.497 10.0079 292.033C10.3919 291.569 10.8559 291.185 11.3999 290.881C11.9599 290.577 12.6319 290.425 13.4159 290.425C14.3119 290.425 15.0959 290.657 15.7679 291.121C16.4559 291.585 16.9919 292.209 17.3759 292.993C17.7599 293.793 17.9519 294.697 17.9519 295.705C17.9519 296.697 17.7679 297.561 17.3999 298.297C17.0479 299.033 16.5999 299.657 16.0559 300.169C15.5119 300.681 14.9439 301.073 14.3519 301.345L13.0559 299.065C13.4719 298.841 13.8559 298.569 14.2079 298.249C14.5759 297.929 14.8639 297.553 15.0719 297.121C15.2959 296.705 15.4079 296.217 15.4079 295.657C15.4079 294.873 15.2239 294.297 14.8559 293.929C14.5039 293.561 14.0879 293.377 13.6079 293.377C13.1759 293.377 12.7839 293.505 12.4319 293.761C12.0959 294.033 11.7759 294.449 11.4719 295.009C11.1679 295.569 10.8559 296.297 10.5359 297.193C10.3599 297.705 10.1359 298.209 9.86391 298.705C9.59192 299.217 9.25591 299.673 8.85592 300.073C8.45592 300.489 7.97591 300.825 7.41591 301.081C6.87191 301.337 6.23191 301.465 5.49591 301.465C4.71191 301.465 4.00792 301.305 3.38392 300.985C2.75991 300.681 2.23191 300.265 1.79992 299.737C1.38392 299.209 1.06392 298.609 0.839915 297.937C0.599915 297.281 0.479914 296.593 0.479914 295.873C0.479914 294.897 0.671914 293.985 1.05591 293.137C1.45591 292.305 1.98391 291.569 2.63991 290.929C3.29591 290.305 4.00792 289.809 4.77592 289.441L6.26391 291.553Z" fill="#19243C"/>
</svg>
