<svg width="31" height="30" viewBox="0 0 31 30" fill="none" xmlns="http://www.w3.org/2000/svg">
<g clip-path="url(#clip0_217_3594)">
<path fill-rule="evenodd" clip-rule="evenodd" d="M12.7822 7.71099C13.5642 7.67499 13.8135 7.66699 15.8055 7.66699C17.7975 7.66699 18.0468 7.67566 18.8282 7.71099C19.6095 7.74633 20.1428 7.87099 20.6095 8.05166C21.0982 8.23633 21.5415 8.52499 21.9082 8.89833C22.2815 9.26433 22.5695 9.70699 22.7535 10.1963C22.9348 10.663 23.0588 11.1963 23.0948 11.9763C23.1308 12.7597 23.1388 13.009 23.1388 15.0003C23.1388 16.9923 23.1302 17.2417 23.0948 18.0237C23.0595 18.8037 22.9348 19.337 22.7535 19.8037C22.5695 20.2931 22.281 20.7365 21.9082 21.103C21.5415 21.4763 21.0982 21.7643 20.6095 21.9483C20.1428 22.1297 19.6095 22.2537 18.8295 22.2897C18.0468 22.3257 17.7975 22.3337 15.8055 22.3337C13.8135 22.3337 13.5642 22.325 12.7822 22.2897C12.0022 22.2543 11.4688 22.1297 11.0022 21.9483C10.5128 21.7643 10.0694 21.4758 9.70283 21.103C9.32975 20.7368 9.04104 20.2936 8.85683 19.8043C8.67617 19.3377 8.55217 18.8043 8.51617 18.0243C8.48017 17.241 8.47217 16.9917 8.47217 15.0003C8.47217 13.0083 8.48083 12.759 8.51617 11.9777C8.5515 11.1963 8.67617 10.663 8.85683 10.1963C9.04132 9.70705 9.33025 9.26387 9.7035 8.89766C10.0695 8.52466 10.5125 8.23595 11.0015 8.05166C11.4682 7.87099 12.0015 7.74699 12.7815 7.71099H12.7822ZM18.7688 9.03099C17.9955 8.99566 17.7635 8.98833 15.8055 8.98833C13.8475 8.98833 13.6155 8.99566 12.8422 9.03099C12.1268 9.06366 11.7388 9.18299 11.4802 9.28366C11.1382 9.41699 10.8935 9.57499 10.6368 9.83166C10.3935 10.0684 10.2063 10.3565 10.0888 10.675C9.98817 10.9337 9.86883 11.3217 9.83617 12.037C9.80083 12.8103 9.7935 13.0423 9.7935 15.0003C9.7935 16.9583 9.80083 17.1903 9.83617 17.9637C9.86883 18.679 9.98817 19.067 10.0888 19.3257C10.2062 19.6437 10.3935 19.9323 10.6368 20.169C10.8735 20.4123 11.1622 20.5997 11.4802 20.717C11.7388 20.8177 12.1268 20.937 12.8422 20.9697C13.6155 21.005 13.8468 21.0123 15.8055 21.0123C17.7642 21.0123 17.9955 21.005 18.7688 20.9697C19.4842 20.937 19.8722 20.8177 20.1308 20.717C20.4728 20.5837 20.7175 20.4257 20.9742 20.169C21.2175 19.9323 21.4048 19.6437 21.5222 19.3257C21.6228 19.067 21.7422 18.679 21.7748 17.9637C21.8102 17.1903 21.8175 16.9583 21.8175 15.0003C21.8175 13.0423 21.8102 12.8103 21.7748 12.037C21.7422 11.3217 21.6228 10.9337 21.5222 10.675C21.3888 10.333 21.2308 10.0883 20.9742 9.83166C20.7375 9.58837 20.4493 9.40113 20.1308 9.28366C19.8722 9.18299 19.4842 9.06366 18.7688 9.03099ZM14.8688 17.261C15.3919 17.4787 15.9744 17.5081 16.5168 17.3441C17.0592 17.1801 17.5278 16.8329 17.8426 16.3618C18.1574 15.8907 18.2989 15.3249 18.2429 14.7611C18.1869 14.1972 17.9368 13.6703 17.5355 13.2703C17.2797 13.0146 16.9703 12.8189 16.6297 12.6971C16.2891 12.5753 15.9258 12.5306 15.5658 12.5661C15.2059 12.6016 14.8583 12.7164 14.548 12.9024C14.2378 13.0884 13.9727 13.3408 13.7717 13.6416C13.5707 13.9423 13.439 14.2839 13.3858 14.6416C13.3327 14.9994 13.3596 15.3645 13.4645 15.7107C13.5695 16.0568 13.7498 16.3754 13.9926 16.6435C14.2355 16.9115 14.5347 17.1224 14.8688 17.261ZM13.1402 12.335C13.4902 11.985 13.9057 11.7073 14.363 11.5179C14.8204 11.3285 15.3105 11.231 15.8055 11.231C16.3005 11.231 16.7907 11.3285 17.248 11.5179C17.7053 11.7073 18.1208 11.985 18.4708 12.335C18.8209 12.685 19.0985 13.1005 19.2879 13.5579C19.4774 14.0152 19.5749 14.5053 19.5749 15.0003C19.5749 15.4953 19.4774 15.9855 19.2879 16.4428C19.0985 16.9001 18.8209 17.3156 18.4708 17.6657C17.7639 18.3726 16.8052 18.7697 15.8055 18.7697C14.8058 18.7697 13.8471 18.3726 13.1402 17.6657C12.4333 16.9588 12.0362 16 12.0362 15.0003C12.0362 14.0006 12.4333 13.0419 13.1402 12.335ZM20.4108 11.7923C20.4976 11.7105 20.567 11.6121 20.615 11.503C20.6631 11.3938 20.6887 11.2762 20.6904 11.1569C20.6922 11.0377 20.67 10.9194 20.6252 10.8089C20.5803 10.6984 20.5138 10.598 20.4295 10.5137C20.3452 10.4294 20.2448 10.3628 20.1343 10.318C20.0238 10.2732 19.9054 10.251 19.7862 10.2527C19.667 10.2545 19.5493 10.2801 19.4402 10.3281C19.331 10.3762 19.2327 10.4456 19.1508 10.5323C18.9917 10.701 18.9046 10.9251 18.908 11.1569C18.9114 11.3888 19.005 11.6102 19.1689 11.7742C19.3329 11.9382 19.5543 12.0318 19.7862 12.0352C20.0181 12.0386 20.2422 11.9515 20.4108 11.7923Z" fill="#069FE7"/>
</g>
<circle cx="15.8057" cy="15" r="14.5" stroke="#069FE7"/>
<defs>
<clipPath id="clip0_217_3594">
<rect width="16" height="16" fill="white" transform="translate(7.80566 7)"/>
</clipPath>
</defs>
</svg>
