<svg width="388" height="75" viewBox="0 0 388 75" fill="none" xmlns="http://www.w3.org/2000/svg">
<path d="M24.16 52.28L26 47.08H19.6L16.32 56.04C15.44 58.36 13.36 59.8 11.12 59.8C8.08 59.8 5.44 57.24 5.44 54.2C5.44 53.64 5.52 52.92 5.76 52.28L7.6 47.08H6.08C3.2 47.08 0.88 44.76 0.88 41.88C0.88 39 3.2 36.68 6.08 36.68H11.44L15.6 25.32H13.76C10.88 25.32 8.56 23 8.56 20.12C8.56 17.24 10.88 14.92 13.76 14.92H19.36L22.64 5.96C23.52 3.64 25.6 2.2 27.84 2.2C30.8 2.2 33.52 4.6 33.52 7.8C33.52 8.44 33.44 9.08 33.2 9.72L31.28 14.92H37.76L41.04 5.96C41.92 3.64 44 2.2 46.24 2.2C49.2 2.2 51.92 4.6 51.92 7.8C51.92 8.44 51.84 9.08 51.6 9.72L49.68 14.92H51.28C54.16 14.92 56.48 17.24 56.48 20.12C56.48 23 54.16 25.32 51.28 25.32H45.92L41.76 36.68H43.6C46.48 36.68 48.8 39 48.8 41.88C48.8 44.76 46.48 47.08 43.6 47.08H38L34.72 56.04C33.84 58.36 31.76 59.8 29.52 59.8C26.48 59.8 23.84 57.24 23.84 54.2C23.84 53.64 23.92 52.92 24.16 52.28ZM27.52 25.32L23.36 36.68H29.84L34 25.32H27.52ZM62.0656 53V9C62.0656 5.72 64.7856 3 68.0656 3H88.5456C91.6656 3 94.1456 5.48 94.1456 8.6C94.1456 11.72 91.6656 14.2 88.5456 14.2H74.0656V25.4H88.5456C91.6656 25.4 94.1456 27.88 94.1456 31C94.1456 34.12 91.6656 36.6 88.5456 36.6H74.0656V47.8H88.5456C91.6656 47.8 94.1456 50.28 94.1456 53.4C94.1456 56.52 91.6656 59 88.5456 59H68.0656C64.7856 59 62.0656 56.28 62.0656 53ZM102.144 54.2V36.2C102.144 24.92 110.224 17.4 120.544 17.4C130.864 17.4 138.944 24.92 138.944 36.2V54.2C138.944 57.32 136.464 59.8 133.344 59.8C130.224 59.8 127.744 57.32 127.744 54.2V35.8C127.744 30.6 124.544 27.8 120.544 27.8C116.544 27.8 113.344 30.6 113.344 35.8V54.2C113.344 57.32 110.864 59.8 107.744 59.8C104.624 59.8 102.144 57.32 102.144 54.2ZM150.15 54.76V23C150.15 19.88 152.63 17.4 155.75 17.4C158.87 17.4 161.35 19.88 161.35 23V54.76C161.35 67.16 152.71 75 141.91 75C139.03 75 136.71 72.68 136.71 69.8C136.71 66.92 139.03 64.6 141.91 64.6C146.47 64.6 150.15 61.4 150.15 54.76ZM155.75 13.4C152.23 13.4 149.35 10.52 149.35 7C149.35 3.48 152.23 0.599998 155.75 0.599998C159.27 0.599998 162.15 3.48 162.15 7C162.15 10.52 159.27 13.4 155.75 13.4ZM190.732 59.8C178.332 59.8 169.372 50.44 169.372 38.6C169.372 26.76 178.332 17.4 190.732 17.4C203.132 17.4 212.092 26.76 212.092 38.6C212.092 50.44 203.132 59.8 190.732 59.8ZM190.732 49.4C196.572 49.4 200.732 44.44 200.732 38.6C200.732 32.76 196.572 27.8 190.732 27.8C184.892 27.8 180.652 32.76 180.652 38.6C180.652 44.44 184.892 49.4 190.732 49.4ZM210.672 66.52L221.713 53.4V23C221.713 19.88 224.193 17.4 227.313 17.4C230.433 17.4 232.913 19.88 232.913 23V40.04L250.353 19.24C251.473 17.96 252.673 17.4 254.193 17.4C257.233 17.4 259.553 19.56 259.553 22.52C259.553 23.72 259.233 24.84 258.353 25.88L218.673 73.16C217.553 74.44 216.353 75 214.832 75C211.792 75 209.472 72.84 209.472 69.88C209.472 68.68 209.792 67.56 210.672 66.52ZM285.191 53.8V8.2C285.191 4.92 287.911 2.2 291.191 2.2C294.471 2.2 297.191 4.92 297.191 8.2V53.8C297.191 57.08 294.471 59.8 291.191 59.8C287.911 59.8 285.191 57.08 285.191 53.8ZM326.513 59.8C314.113 59.8 305.153 50.44 305.153 38.6C305.153 26.76 314.113 17.4 326.513 17.4C333.233 17.4 338.913 20.28 341.633 23.56C342.673 24.76 343.233 26.2 343.233 27.32C343.233 30.44 340.833 32.6 337.713 32.6C335.473 32.6 334.353 31.4 332.913 30.2C331.473 29 329.553 27.8 326.513 27.8C320.833 27.8 316.433 32.6 316.433 38.6C316.433 44.6 320.833 49.4 326.513 49.4C329.313 49.4 331.393 48.28 332.833 47.08C334.273 45.88 335.473 44.52 337.713 44.52C340.833 44.52 343.233 46.76 343.233 49.88C343.233 51 342.673 52.36 341.633 53.56C338.913 56.84 333.393 59.8 326.513 59.8ZM370.498 59.8C358.178 59.8 349.138 50.52 349.138 38.6C349.138 26.76 358.098 17.4 370.498 17.4C377.058 17.4 382.018 20.12 384.258 22.2C385.538 23.32 386.258 24.92 386.258 26.52C386.258 27.88 385.858 29.08 384.738 30.44L374.418 42.76C373.298 44.04 372.098 44.6 370.578 44.6C367.538 44.6 365.218 42.44 365.218 39.48C365.218 38.28 365.538 37.08 366.418 36.12L373.298 28.2C372.738 27.96 371.378 27.8 370.498 27.8C364.818 27.8 360.418 32.6 360.418 38.6C360.418 44.6 364.738 49.4 370.498 49.4C373.458 49.4 375.458 48.2 376.818 47.08C378.418 45.72 379.538 44.52 381.698 44.52C384.818 44.52 387.218 46.76 387.218 49.88C387.218 51 386.658 52.36 385.618 53.56C382.898 56.84 377.378 59.8 370.498 59.8Z" fill="url(#paint0_linear_310_1536)"/>
<defs>
<linearGradient id="paint0_linear_310_1536" x1="195" y1="88" x2="170.497" y2="-24.9379" gradientUnits="userSpaceOnUse">
<stop stop-color="#96EBFF"/>
<stop offset="0.38679" stop-color="white"/>
<stop offset="0.770263" stop-color="#96EBFF"/>
<stop offset="0.83692" stop-color="white"/>
<stop offset="1" stop-color="white"/>
</linearGradient>
</defs>
</svg>
