<svg width="243" height="47" viewBox="0 0 243 47" fill="none" xmlns="http://www.w3.org/2000/svg">
<path d="M15.225 32.8L16.375 29.55H12.375L10.325 35.15C9.775 36.6 8.475 37.5 7.075 37.5C5.175 37.5 3.525 35.9 3.525 34C3.525 33.65 3.575 33.2 3.725 32.8L4.875 29.55H3.925C2.125 29.55 0.675 28.1 0.675 26.3C0.675 24.5 2.125 23.05 3.925 23.05H7.275L9.875 15.95H8.725C6.925 15.95 5.475 14.5 5.475 12.7C5.475 10.9 6.925 9.45 8.725 9.45H12.225L14.275 3.85C14.825 2.4 16.125 1.5 17.525 1.5C19.375 1.5 21.075 3 21.075 5C21.075 5.4 21.025 5.8 20.875 6.2L19.675 9.45H23.725L25.775 3.85C26.325 2.4 27.625 1.5 29.025 1.5C30.875 1.5 32.575 3 32.575 5C32.575 5.4 32.525 5.8 32.375 6.2L31.175 9.45H32.175C33.975 9.45 35.425 10.9 35.425 12.7C35.425 14.5 33.975 15.95 32.175 15.95H28.825L26.225 23.05H27.375C29.175 23.05 30.625 24.5 30.625 26.3C30.625 28.1 29.175 29.55 27.375 29.55H23.875L21.825 35.15C21.275 36.6 19.975 37.5 18.575 37.5C16.675 37.5 15.025 35.9 15.025 34C15.025 33.65 15.075 33.2 15.225 32.8ZM17.325 15.95L14.725 23.05H18.775L21.375 15.95H17.325ZM38.916 33.25V5.75C38.916 3.7 40.616 2 42.666 2H55.466C57.416 2 58.966 3.55 58.966 5.5C58.966 7.45 57.416 9 55.466 9H46.416V16H55.466C57.416 16 58.966 17.55 58.966 19.5C58.966 21.45 57.416 23 55.466 23H46.416V30H55.466C57.416 30 58.966 31.55 58.966 33.5C58.966 35.45 57.416 37 55.466 37H42.666C40.616 37 38.916 35.3 38.916 33.25ZM63.9648 34V22.75C63.9648 15.7 69.0148 11 75.4648 11C81.9148 11 86.9648 15.7 86.9648 22.75V34C86.9648 35.95 85.4148 37.5 83.4648 37.5C81.5148 37.5 79.9648 35.95 79.9648 34V22.5C79.9648 19.25 77.9648 17.5 75.4648 17.5C72.9648 17.5 70.9648 19.25 70.9648 22.5V34C70.9648 35.95 69.4148 37.5 67.4648 37.5C65.5148 37.5 63.9648 35.95 63.9648 34ZM93.9688 34.35V14.5C93.9688 12.55 95.5188 11 97.4688 11C99.4188 11 100.969 12.55 100.969 14.5V34.35C100.969 42.1 95.5688 47 88.8187 47C87.0187 47 85.5687 45.55 85.5687 43.75C85.5687 41.95 87.0187 40.5 88.8187 40.5C91.6688 40.5 93.9688 38.5 93.9688 34.35ZM97.4688 8.5C95.2688 8.5 93.4688 6.7 93.4688 4.5C93.4688 2.3 95.2688 0.499999 97.4688 0.499999C99.6688 0.499999 101.469 2.3 101.469 4.5C101.469 6.7 99.6688 8.5 97.4688 8.5ZM119.332 37.5C111.582 37.5 105.982 31.65 105.982 24.25C105.982 16.85 111.582 11 119.332 11C127.082 11 132.682 16.85 132.682 24.25C132.682 31.65 127.082 37.5 119.332 37.5ZM119.332 31C122.982 31 125.582 27.9 125.582 24.25C125.582 20.6 122.982 17.5 119.332 17.5C115.682 17.5 113.032 20.6 113.032 24.25C113.032 27.9 115.682 31 119.332 31ZM131.795 41.7L138.695 33.5V14.5C138.695 12.55 140.245 11 142.195 11C144.145 11 145.695 12.55 145.695 14.5V25.15L156.595 12.15C157.295 11.35 158.045 11 158.995 11C160.895 11 162.345 12.35 162.345 14.2C162.345 14.95 162.145 15.65 161.595 16.3L136.795 45.85C136.095 46.65 135.345 47 134.395 47C132.495 47 131.045 45.65 131.045 43.8C131.045 43.05 131.245 42.35 131.795 41.7ZM178.369 33.75V5.25C178.369 3.2 180.069 1.5 182.119 1.5C184.169 1.5 185.869 3.2 185.869 5.25V33.75C185.869 35.8 184.169 37.5 182.119 37.5C180.069 37.5 178.369 35.8 178.369 33.75ZM204.196 37.5C196.446 37.5 190.846 31.65 190.846 24.25C190.846 16.85 196.446 11 204.196 11C208.396 11 211.946 12.8 213.646 14.85C214.296 15.6 214.646 16.5 214.646 17.2C214.646 19.15 213.146 20.5 211.196 20.5C209.796 20.5 209.096 19.75 208.196 19C207.296 18.25 206.096 17.5 204.196 17.5C200.646 17.5 197.896 20.5 197.896 24.25C197.896 28 200.646 31 204.196 31C205.946 31 207.246 30.3 208.146 29.55C209.046 28.8 209.796 27.95 211.196 27.95C213.146 27.95 214.646 29.35 214.646 31.3C214.646 32 214.296 32.85 213.646 33.6C211.946 35.65 208.496 37.5 204.196 37.5ZM231.686 37.5C223.986 37.5 218.336 31.7 218.336 24.25C218.336 16.85 223.936 11 231.686 11C235.786 11 238.886 12.7 240.286 14C241.086 14.7 241.536 15.7 241.536 16.7C241.536 17.55 241.286 18.3 240.586 19.15L234.136 26.85C233.436 27.65 232.686 28 231.736 28C229.836 28 228.386 26.65 228.386 24.8C228.386 24.05 228.586 23.3 229.136 22.7L233.436 17.75C233.086 17.6 232.236 17.5 231.686 17.5C228.136 17.5 225.386 20.5 225.386 24.25C225.386 28 228.086 31 231.686 31C233.536 31 234.786 30.25 235.636 29.55C236.636 28.7 237.336 27.95 238.686 27.95C240.636 27.95 242.136 29.35 242.136 31.3C242.136 32 241.786 32.85 241.136 33.6C239.436 35.65 235.986 37.5 231.686 37.5Z" fill="url(#paint0_linear_310_2891)"/>
<defs>
<linearGradient id="paint0_linear_310_2891" x1="122" y1="55.125" x2="105.446" y2="-14.8685" gradientUnits="userSpaceOnUse">
<stop stop-color="#96EBFF"/>
<stop offset="0.38679" stop-color="white"/>
<stop offset="0.770263" stop-color="#96EBFF"/>
<stop offset="0.83692" stop-color="white"/>
<stop offset="1" stop-color="white"/>
</linearGradient>
</defs>
</svg>
