<svg width="500" height="500" viewBox="0 0 500 500" fill="none" xmlns="http://www.w3.org/2000/svg">
<g clip-path="url(#clip0_312_3572)">
<path fill-rule="evenodd" clip-rule="evenodd" d="M270.396 57.0631C262.53 62.6829 253.755 67.7351 243.904 70.8452C218.661 78.7729 194.682 65.5618 174.376 52.6899C121.703 19.8302 65.1328 44.1661 27.156 86.4563C4.01935 112.219 -5.27891 148.79 2.94349 181.641C12.8296 220.929 49.1603 249.615 67.3206 285.22C94.2467 338.77 74.2536 386.243 113.311 435.952C155.83 490.03 217.98 464.487 251.889 429.237C281.796 398.408 322.326 392.857 365.056 388.218C396.232 384.824 428.769 392.358 457.437 376.907C486.261 361.437 506.87 328.753 497.864 299.057C487.947 269.001 455.633 253.339 437.719 228.653C416.917 200.057 427.906 174.935 429.566 143.361C431.496 105.968 408.736 66.0467 375.055 45.7794C358.449 35.6164 337.518 31.1604 317.422 33.7814C298.596 36.1824 284.979 47.5411 270.396 57.0631Z" fill="#D1EDFF"/>
<path fill-rule="evenodd" clip-rule="evenodd" d="M462.528 259.015C455.159 265.864 448.243 273.07 443.26 281.827C430.479 304.326 441.008 329.226 451.559 350.053C479.257 405.554 443.25 455.202 391.143 484.322C359.442 502.039 318.121 504.975 283.735 491.93C242.607 476.161 217.643 437.221 181.581 414.345C127.766 380.238 72.7981 391.557 25.3586 346.562C-26.9548 297.701 11.0554 242.651 54.9705 216.617C93.8067 193.229 105.913 155.847 117.775 115.741C126.659 87.2791 123.767 55.298 145.195 30.6273C166.689 5.61903 205.53 -8.36501 236.557 5.42607C268.214 19.0471 279.366 52.3076 303.273 73.1999C330.957 97.4575 360.03 91.1298 394.726 94.6847C436.023 98.8499 475.45 126.796 492.056 161.933C500.501 179.822 502.781 199.613 496.124 218.148C489.846 235.703 475.428 246.289 462.528 259.015Z" fill="#93EBFF"/>
</g>
<defs>
<clipPath id="clip0_312_3572">
<rect width="500" height="500" fill="white"/>
</clipPath>
</defs>
</svg>
