<svg width="710" height="104" viewBox="0 0 710 104" fill="none" xmlns="http://www.w3.org/2000/svg">
<path d="M33.7903 71.424L36.4123 64.014H27.2923L22.6183 76.782C21.3643 80.088 18.4003 82.14 15.2083 82.14C10.8763 82.14 7.11431 78.492 7.11431 74.16C7.11431 73.362 7.22831 72.336 7.57031 71.424L10.1923 64.014H8.02631C3.92231 64.014 0.616305 60.708 0.616305 56.604C0.616305 52.5 3.92231 49.194 8.02631 49.194H15.6643L21.5923 33.006H18.9703C14.8663 33.006 11.5603 29.7 11.5603 25.596C11.5603 21.492 14.8663 18.186 18.9703 18.186H26.9503L31.6243 5.41799C32.8783 2.112 35.8423 0.0599957 39.0343 0.0599957C43.2523 0.0599957 47.1283 3.48 47.1283 8.03999C47.1283 8.952 47.0143 9.864 46.6723 10.776L43.9363 18.186H53.1703L57.8443 5.41799C59.0983 2.112 62.0623 0.0599957 65.2543 0.0599957C69.4723 0.0599957 73.3483 3.48 73.3483 8.03999C73.3483 8.952 73.2343 9.864 72.8923 10.776L70.1563 18.186H72.4363C76.5403 18.186 79.8463 21.492 79.8463 25.596C79.8463 29.7 76.5403 33.006 72.4363 33.006H64.7983L58.8703 49.194H61.4923C65.5963 49.194 68.9023 52.5 68.9023 56.604C68.9023 60.708 65.5963 64.014 61.4923 64.014H53.5123L48.8383 76.782C47.5843 80.088 44.6203 82.14 41.4283 82.14C37.0963 82.14 33.3343 78.492 33.3343 74.16C33.3343 73.362 33.4483 72.336 33.7903 71.424ZM38.5783 33.006L32.6503 49.194H41.8843L47.8123 33.006H38.5783ZM87.8058 73.59V9.75C87.8058 5.076 91.6818 1.19999 96.3558 1.19999H115.508C131.012 1.19999 141.728 12.486 141.728 26.28C141.728 40.074 131.012 51.36 115.508 51.36H115.166C110.72 51.36 107.186 47.826 107.186 43.38C107.186 38.934 110.72 35.4 115.166 35.4C120.068 35.286 124.058 31.296 124.058 26.28C124.058 21.264 119.954 17.16 114.938 17.16H104.906V73.59C104.906 78.264 101.03 82.14 96.3558 82.14C91.6818 82.14 87.8058 78.264 87.8058 73.59ZM176.749 82.14C159.193 82.14 146.311 68.916 146.311 51.93C146.311 35.058 159.079 21.72 176.749 21.72C186.097 21.72 193.165 25.596 196.357 28.56C198.181 30.156 199.207 32.436 199.207 34.716C199.207 36.654 198.637 38.364 197.041 40.302L182.335 57.858C180.739 59.682 179.029 60.48 176.863 60.48C172.531 60.48 169.225 57.402 169.225 53.184C169.225 51.474 169.681 49.764 170.935 48.396L180.739 37.11C179.941 36.768 178.003 36.54 176.749 36.54C168.655 36.54 162.385 43.38 162.385 51.93C162.385 60.48 168.541 67.32 176.749 67.32C180.967 67.32 183.817 65.61 185.755 64.014C188.035 62.076 189.631 60.366 192.709 60.366C197.155 60.366 200.575 63.558 200.575 68.004C200.575 69.6 199.777 71.538 198.295 73.248C194.419 77.922 186.553 82.14 176.749 82.14ZM211.38 74.16V50.562C211.38 32.892 223.692 21.72 239.082 21.72C243.186 21.72 246.492 25.026 246.492 29.13C246.492 33.234 243.186 36.54 239.082 36.54C232.584 36.54 227.34 41.1 227.34 50.562V74.16C227.34 78.606 223.806 82.14 219.36 82.14C214.914 82.14 211.38 78.606 211.38 74.16ZM257.884 22.86H260.506C263.014 8.724 274.186 0.0599957 287.752 0.0599957C291.856 0.0599957 295.162 3.36599 295.162 7.47C295.162 11.574 291.856 14.88 287.752 14.88C282.85 14.88 278.632 17.502 276.808 22.86H287.752C291.856 22.86 295.162 26.166 295.162 30.27C295.162 34.374 291.856 37.68 287.752 37.68H276.01V74.16C276.01 78.606 272.476 82.14 268.03 82.14C263.584 82.14 260.05 78.606 260.05 74.16V37.68H257.884C253.78 37.68 250.474 34.374 250.474 30.27C250.474 26.166 253.78 22.86 257.884 22.86ZM327.933 82.14C310.377 82.14 297.495 68.916 297.495 51.93C297.495 35.058 310.263 21.72 327.933 21.72C337.281 21.72 344.349 25.596 347.541 28.56C349.365 30.156 350.391 32.436 350.391 34.716C350.391 36.654 349.821 38.364 348.225 40.302L333.519 57.858C331.923 59.682 330.213 60.48 328.047 60.48C323.715 60.48 320.409 57.402 320.409 53.184C320.409 51.474 320.865 49.764 322.119 48.396L331.923 37.11C331.125 36.768 329.187 36.54 327.933 36.54C319.839 36.54 313.569 43.38 313.569 51.93C313.569 60.48 319.725 67.32 327.933 67.32C332.151 67.32 335.001 65.61 336.939 64.014C339.219 62.076 340.815 60.366 343.893 60.366C348.339 60.366 351.759 63.558 351.759 68.004C351.759 69.6 350.961 71.538 349.479 73.248C345.603 77.922 337.737 82.14 327.933 82.14ZM387.827 82.14C370.157 82.14 357.389 68.802 357.389 51.93C357.389 35.058 370.157 21.72 387.827 21.72C397.403 21.72 405.497 25.824 409.373 30.498C410.855 32.208 411.653 34.26 411.653 35.856C411.653 40.302 408.233 43.38 403.787 43.38C400.595 43.38 398.999 41.67 396.947 39.96C394.895 38.25 392.159 36.54 387.827 36.54C379.733 36.54 373.463 43.38 373.463 51.93C373.463 60.48 379.733 67.32 387.827 67.32C391.817 67.32 394.781 65.724 396.833 64.014C398.885 62.304 400.595 60.366 403.787 60.366C408.233 60.366 411.653 63.558 411.653 68.004C411.653 69.6 410.855 71.538 409.373 73.248C405.497 77.922 397.631 82.14 387.827 82.14ZM424.057 37.68C419.953 37.68 416.647 34.374 416.647 30.27C416.647 26.166 419.953 22.86 424.057 22.86H426.223V16.02C426.223 11.574 429.757 8.03999 434.203 8.03999C438.649 8.03999 442.183 11.574 442.183 16.02V22.86H453.925C458.029 22.86 461.335 26.166 461.335 30.27C461.335 34.374 458.029 37.68 453.925 37.68H442.183V53.298C442.183 62.76 447.427 67.32 453.925 67.32C458.029 67.32 461.335 70.626 461.335 74.73C461.335 78.834 458.029 82.14 453.925 82.14C438.535 82.14 426.223 70.968 426.223 53.298V37.68H424.057ZM500.054 72.45V9.75C500.054 5.076 503.93 1.19999 508.604 1.19999H528.212C552.836 1.19999 569.366 18.87 569.366 41.1C569.366 63.33 552.836 81 528.212 81H508.604C503.93 81 500.054 77.124 500.054 72.45ZM517.154 65.04H528.212C542.918 65.04 551.696 54.438 551.696 41.1C551.696 27.762 542.918 17.16 528.212 17.16H517.154V65.04ZM606.533 82.14C590.459 82.14 578.375 68.802 578.375 51.93C578.375 35.058 590.459 21.72 606.533 21.72C612.803 21.72 618.617 23.886 623.291 27.42C624.317 24.114 627.395 21.72 631.043 21.72C635.489 21.72 639.023 25.254 639.023 29.7V74.16C639.023 78.606 635.489 82.14 631.043 82.14C627.395 82.14 624.317 79.746 623.291 76.44C618.617 80.088 612.803 82.14 606.533 82.14ZM608.813 67.32C616.793 67.32 623.063 60.822 623.063 51.93C623.063 43.152 616.793 36.54 608.813 36.54C600.719 36.54 594.449 43.152 594.449 51.93C594.449 60.822 600.719 67.32 608.813 67.32ZM639.789 91.716L655.521 73.02V29.7C655.521 25.254 659.055 21.72 663.501 21.72C667.947 21.72 671.481 25.254 671.481 29.7V53.982L696.333 24.342C697.929 22.518 699.639 21.72 701.805 21.72C706.137 21.72 709.443 24.798 709.443 29.016C709.443 30.726 708.987 32.322 707.733 33.804L651.189 101.178C649.593 103.002 647.883 103.8 645.717 103.8C641.385 103.8 638.079 100.722 638.079 96.504C638.079 94.794 638.535 93.198 639.789 91.716Z" fill="url(#paint0_linear_301_4688)"/>
<defs>
<linearGradient id="paint0_linear_301_4688" x1="223" y1="-10" x2="459" y2="47" gradientUnits="userSpaceOnUse">
<stop stop-color="#C0F0E3"/>
<stop offset="0.078125" stop-color="#96EBFF" stop-opacity="0.916667"/>
<stop offset="0.713542" stop-color="#E4DCFF"/>
<stop offset="1" stop-color="#93EBFF"/>
</linearGradient>
</defs>
</svg>
