<svg width="112" height="112" viewBox="0 0 112 112" fill="none" xmlns="http://www.w3.org/2000/svg">
<circle cx="56" cy="56" r="56" fill="black"/>
<path d="M46.0123 44.5119C45.6523 45.4479 45.2803 46.5879 44.8963 47.9319C44.5123 49.2519 44.1163 50.8719 43.7083 52.7919H42.9163C43.1083 51.5679 43.1923 50.4999 43.1683 49.5879C43.1683 48.6759 42.9763 47.8839 42.5923 47.2119C42.1363 46.3719 41.5483 45.7719 40.8283 45.4119C40.1083 45.0519 39.2803 44.8719 38.3443 44.8719C37.1443 44.8719 35.9923 45.1959 34.8883 45.8439C33.7843 46.4919 32.7643 47.3919 31.8283 48.5439C30.8923 49.6719 30.0643 50.9799 29.3443 52.4679C28.6483 53.9319 28.0963 55.5039 27.6883 57.1839C27.3043 58.8639 27.1123 60.5679 27.1123 62.2959C27.1123 64.7439 27.5443 66.5439 28.4083 67.6959C29.2963 68.8479 30.4843 69.4239 31.9723 69.4239C32.8603 69.4239 33.7963 69.2199 34.7803 68.8119C35.7643 68.4039 36.6283 67.8159 37.3723 67.0479C38.0203 66.3759 38.5723 65.6079 39.0283 64.7439C39.5083 63.8799 40.0363 62.7519 40.6123 61.3599H41.4043C40.8043 63.5439 40.3363 65.3079 40.0003 66.6519C39.6883 67.9719 39.4483 69.0879 39.2803 69.9999H38.4883C38.5603 69.4959 38.5963 69.0879 38.5963 68.7759C38.5963 68.2719 38.5003 67.9719 38.3083 67.8759C38.1163 67.7799 37.8163 67.8759 37.4083 68.1639C36.7603 68.5959 36.0763 68.9919 35.3563 69.3519C34.6603 69.7119 33.9043 69.9879 33.0883 70.1799C32.2723 70.3959 31.3603 70.5039 30.3523 70.5039C27.0883 70.5039 24.6643 69.7359 23.0803 68.1999C21.4963 66.6399 20.7043 64.4319 20.7043 61.5759C20.7043 59.8959 20.9683 58.2159 21.4963 56.5359C22.0483 54.8559 22.8283 53.2719 23.8363 51.7839C24.8683 50.2719 26.0923 48.9399 27.5083 47.7879C28.9483 46.6119 30.5443 45.6879 32.2963 45.0159C34.0483 44.3439 35.9203 44.0079 37.9123 44.0079C38.8963 44.0079 39.7123 44.1159 40.3603 44.3319C41.0323 44.5479 41.5963 44.8359 42.0523 45.1959C42.5083 45.5559 42.9163 45.9399 43.2763 46.3479C43.5883 46.7079 43.9003 46.7439 44.2123 46.4559C44.5243 46.1679 44.8723 45.5199 45.2563 44.5119H46.0123Z" fill="white"/>
<path d="M55.8574 51.6039C55.3054 51.6039 54.7174 51.9399 54.0934 52.6119C53.4934 53.2599 52.8934 54.1359 52.2934 55.2399C51.7174 56.3439 51.1894 57.5799 50.7094 58.9479C50.2534 60.3159 49.8814 61.7319 49.5934 63.1959C49.3294 64.6359 49.1974 66.0159 49.1974 67.3359C49.1974 68.1999 49.2934 68.8239 49.4854 69.2079C49.7014 69.5919 50.0134 69.7839 50.4214 69.7839C50.9734 69.7839 51.5494 69.4719 52.1494 68.8479C52.7494 68.1999 53.3374 67.3359 53.9134 66.2559C54.4894 65.1759 55.0054 63.9639 55.4614 62.6199C55.9414 61.2519 56.3254 59.8359 56.6134 58.3719C56.9014 56.9079 57.0454 55.4919 57.0454 54.1239C57.0454 53.1159 56.9374 52.4439 56.7214 52.1079C56.5294 51.7719 56.2414 51.6039 55.8574 51.6039ZM44.3734 64.5639C44.3734 63.4599 44.5174 62.2839 44.8054 61.0359C45.1174 59.7879 45.5854 58.5639 46.2094 57.3639C46.8334 56.1639 47.6014 55.0839 48.5134 54.1239C49.4494 53.1399 50.5414 52.3599 51.7894 51.7839C53.0614 51.1839 54.4774 50.8839 56.0374 50.8839C57.8854 50.8839 59.3134 51.3879 60.3214 52.3959C61.3534 53.4039 61.8694 54.8799 61.8694 56.8239C61.8694 57.9279 61.7134 59.1039 61.4014 60.3519C61.1134 61.5999 60.6574 62.8239 60.0334 64.0239C59.4094 65.2239 58.6294 66.3159 57.6934 67.2999C56.7814 68.2599 55.6894 69.0399 54.4174 69.6399C53.1694 70.2159 51.7654 70.5039 50.2054 70.5039C48.3574 70.5039 46.9174 69.9999 45.8854 68.9919C44.8774 67.9839 44.3734 66.5079 44.3734 64.5639Z" fill="white"/>
<path d="M74.9121 51.6039C74.3601 51.6039 73.7721 51.9399 73.1481 52.6119C72.5481 53.2599 71.9481 54.1359 71.3481 55.2399C70.7721 56.3439 70.2441 57.5799 69.7641 58.9479C69.3081 60.3159 68.9361 61.7319 68.6481 63.1959C68.3841 64.6359 68.2521 66.0159 68.2521 67.3359C68.2521 68.1999 68.3481 68.8239 68.5401 69.2079C68.7561 69.5919 69.0681 69.7839 69.4761 69.7839C70.0281 69.7839 70.6041 69.4719 71.2041 68.8479C71.8041 68.1999 72.3921 67.3359 72.9681 66.2559C73.5441 65.1759 74.0601 63.9639 74.5161 62.6199C74.9961 61.2519 75.3801 59.8359 75.6681 58.3719C75.9561 56.9079 76.1001 55.4919 76.1001 54.1239C76.1001 53.1159 75.9921 52.4439 75.7761 52.1079C75.5841 51.7719 75.2961 51.6039 74.9121 51.6039ZM63.4281 64.5639C63.4281 63.4599 63.5721 62.2839 63.8601 61.0359C64.1721 59.7879 64.6401 58.5639 65.2641 57.3639C65.8881 56.1639 66.6561 55.0839 67.5681 54.1239C68.5041 53.1399 69.5961 52.3599 70.8441 51.7839C72.1161 51.1839 73.5321 50.8839 75.0921 50.8839C76.9401 50.8839 78.3681 51.3879 79.3761 52.3959C80.4081 53.4039 80.9241 54.8799 80.9241 56.8239C80.9241 57.9279 80.7681 59.1039 80.4561 60.3519C80.1681 61.5999 79.7121 62.8239 79.0881 64.0239C78.4641 65.2239 77.6841 66.3159 76.7481 67.2999C75.8361 68.2599 74.7441 69.0399 73.4721 69.6399C72.2241 70.2159 70.8201 70.5039 69.2601 70.5039C67.4121 70.5039 65.9721 69.9999 64.9401 68.9919C63.9321 67.9839 63.4281 66.5079 63.4281 64.5639Z" fill="white"/>
<path d="M87.1628 66.9399C86.9948 67.5639 86.9708 68.0199 87.0908 68.3079C87.2348 68.5959 87.4628 68.7399 87.7748 68.7399C88.0388 68.7399 88.3628 68.5719 88.7468 68.2359C89.1308 67.8759 89.5268 67.0959 89.9348 65.8959L90.5828 64.1679H91.2668L90.3668 66.7959C90.0308 67.7799 89.5988 68.5359 89.0708 69.0639C88.5428 69.5919 87.9788 69.9639 87.3788 70.1799C86.7788 70.3959 86.1788 70.5039 85.5788 70.5039C84.7868 70.5039 84.1508 70.3599 83.6708 70.0719C83.1908 69.8079 82.8308 69.4239 82.5908 68.9199C82.3748 68.3919 82.2788 67.7799 82.3028 67.0839C82.3508 66.3879 82.4948 65.6199 82.7348 64.7799L88.3868 45.9879C88.6268 45.1719 88.6028 44.5719 88.3148 44.1879C88.0268 43.8039 87.2948 43.6119 86.1188 43.6119L86.3708 42.8559C88.0988 42.8319 89.6108 42.6999 90.9068 42.4599C92.2268 42.1959 93.4988 41.8359 94.7228 41.3799L87.1628 66.9399Z" fill="white"/>
</svg>
