<svg width="24" height="24" viewBox="0 0 24 24" fill="none" xmlns="http://www.w3.org/2000/svg">
<g id="icon_arrow">
<circle id="Ellipse 5" cx="12" cy="12" r="12" fill="#48DCFF"/>
<path id="Vector" fill-rule="evenodd" clip-rule="evenodd" d="M12.9379 9.13443C14.6469 10.0054 16.2361 11.0957 17.6695 12.3772C17.8431 12.5604 17.9379 12.8062 17.9379 13.0561C17.8471 14.0074 17.545 14.9234 17.0444 15.7365C16.9954 15.8747 16.8749 15.9775 16.7327 16C16.5615 15.9687 16.4009 15.8835 16.286 15.7582C15.2278 14.8253 14.1078 13.9584 12.9379 13.1678C12.7909 13.0698 12.6206 13.0023 12.4462 12.9806C12.2823 13.0023 12.1297 13.065 12.0003 13.1678C10.8088 13.9407 9.67589 14.798 8.60889 15.7365C8.49239 15.8658 8.33652 15.9598 8.16297 16C7.99746 15.9815 7.85926 15.8747 7.80543 15.718C7.40852 14.8342 7.13615 13.9006 7.00197 12.9404C6.98349 12.6721 7.10481 12.4134 7.31452 12.2478C8.77762 11.0684 10.3444 10.0279 12.0003 9.13443C12.1481 9.04043 12.3177 8.99624 12.492 9.00025C12.6479 9.01873 12.7997 9.06292 12.9379 9.13443Z" fill="white"/>
</g>
</svg>
