<svg width="1920" height="640" viewBox="0 0 1920 640" fill="none" xmlns="http://www.w3.org/2000/svg">
<g clip-path="url(#clip0_110_10428)">
<path fill-rule="evenodd" clip-rule="evenodd" d="M295.1 379.951L39.997 449V169.048L295.1 99.999V379.951Z" fill="#3FC6FF"/>
<path d="M306.655 307.247C308.655 305.647 310.855 303.547 308.655 301.947C286.855 284.947 257.455 282.447 234.755 300.247C221.955 310.247 212.855 326.847 210.555 344.047C209.155 354.147 210.455 365.947 213.855 376.447C214.655 379.047 217.655 380.147 219.555 378.447L306.655 307.247Z" fill="#FAD9E6"/>
<path d="M62.6 316.21C85.575 316.21 104.2 297.585 104.2 274.61C104.2 251.635 85.575 233.01 62.6 233.01C39.625 233.01 21 251.635 21 274.61C21 297.585 39.625 316.21 62.6 316.21Z" fill="#006AFF"/>
<path d="M94.96 297.75C95.25 298.52 95.82 298.46 96.4 298.63C96.4 298.62 96.42 298.61 96.43 298.59C96 298.03 96.39 297.73 97.07 297.44C96.97 297.64 96.89 297.85 96.82 298.05C97.57 296.97 98.26 295.85 98.9 294.7C98.42 294.37 96.92 294.22 96.77 294.44C95.77 294.54 96.47 294.74 95.97 295.14C95.37 295.74 95.97 295.64 95.17 295.64C94.87 295.64 94.97 294.94 94.07 295.04C93.87 295.04 93.67 295.64 93.27 295.84C93.37 295.94 94.07 296.94 93.97 296.84C94.47 297.04 95.27 296.34 95.77 296.34C95.47 296.94 94.07 297.34 94.97 297.74L94.96 297.75Z" fill="#00C5A9"/>
<path d="M25.97 294.26C33.01 307.24 46.76 316.06 62.56 316.06C72.75 316.06 82.07 312.39 89.3 306.32C89.19 306.25 89.08 306.17 88.96 306.06C88.66 305.56 88.56 305.16 88.06 305.06C88.26 304.86 88.46 304.76 88.46 304.76C87.86 304.56 87.26 304.86 86.86 304.56C87.46 303.96 88.76 304.56 89.56 304.16C90.56 303.66 90.16 303.96 89.96 302.96C90.46 302.86 91.76 302.46 92.06 302.96C91.26 303.06 89.86 304.46 90.56 304.96C90.57 305.07 90.57 305.16 90.56 305.23C91.43 304.44 92.25 303.61 93.05 302.75C92.08 302.69 91.17 302.4 91.26 301.26C91.16 301.36 91.06 301.26 91.06 301.06C90.86 301.06 89.86 300.96 89.76 300.66C89.56 300.16 90.66 300.06 90.86 300.26C90.66 299.56 89.96 299.26 89.56 298.76C89.46 298.56 89.36 297.76 89.06 297.86C89.16 298.06 89.16 298.26 89.36 298.46C89.16 298.46 88.06 299.56 87.86 298.96C87.76 298.77 88.51 297.55 88.64 297.2C88.64 297.2 88.66 297.19 88.66 297.16C88.86 297.16 89.36 297.26 89.66 297.16C89.56 296.86 89.06 296.46 88.96 296.06C88.36 296.36 88.66 295.96 88.46 295.96C88.66 295.96 88.76 296.06 88.96 296.06C88.96 295.96 88.96 295.86 89.06 295.76C89.46 295.06 89.56 296.76 90.16 296.16C90.56 295.76 90.06 296.16 90.26 295.76C90.16 296.06 89.96 294.16 90.16 294.56C89.86 294.16 89.66 293.66 89.46 294.56C89.16 294.06 88.56 294.66 88.06 294.56C87.36 294.46 87.46 293.76 86.46 293.96C86.26 293.76 87.76 292.36 88.16 293.76C88.76 293.56 89.86 293.56 90.46 293.16C90.06 293.06 88.36 292.96 88.76 292.26C88.96 291.76 89.46 292.16 89.76 292.26C89.66 292.36 89.56 292.46 89.56 292.66C89.66 293.16 90.76 292.76 91.76 292.46C91.46 292.16 90.56 292.06 89.96 292.26C90.56 291.56 88.06 291.96 87.96 291.96C87.26 292.26 87.46 292.76 86.46 292.76C86.66 292.26 87.06 292.26 87.36 291.96C87.66 291.56 87.76 291.26 88.06 290.86C88.36 291.66 90.06 291.26 90.46 290.86C91.26 290.16 90.66 290.46 91.06 289.96C90.96 290.06 91.76 288.76 91.76 288.96C91.86 288.06 91.26 288.56 90.66 288.36C89.36 288.06 88.96 287.16 88.56 288.86C88.16 288.96 87.76 288.26 87.76 287.86C87.76 287.06 88.46 287.36 88.56 287.16C89.16 286.06 87.76 286.26 87.16 285.26C86.96 285.46 86.46 286.36 86.06 287.06C85.76 287.26 85.66 287.36 85.86 287.56C85.76 287.86 85.66 288.16 85.76 288.26C85.96 288.46 88.16 287.76 87.76 289.46C87.86 289.06 86.66 289.56 86.86 289.76C86.66 289.56 86.66 288.86 86.26 288.86C85.36 288.66 85.76 289.06 85.26 289.36C84.96 289.56 84.76 289.86 84.46 289.96C84.26 289.86 83.76 289.66 83.66 289.76H83.46C83.66 288.46 83.56 289.26 84.06 288.66C84.26 288.46 85.86 288.16 84.76 287.46C84.76 287.46 84.46 287.56 84.16 287.76C84.06 287.76 83.86 287.86 83.76 287.96C83.66 287.96 83.66 288.06 83.56 288.06C83.66 287.46 83.86 286.76 83.96 286.16C84.06 286.36 84.16 286.46 84.36 286.56C84.26 286.76 84.36 286.86 84.66 286.86C84.86 286.96 84.96 287.16 85.06 287.26C85.56 286.76 86.36 285.76 86.26 285.06C86.26 284.86 85.96 284.86 85.76 284.76C85.76 284.76 85.86 284.76 85.86 284.66C86.16 283.66 87.26 284.06 86.76 283.66C87.36 283.66 87.76 283.86 86.86 284.36C87.46 285.46 87.46 284.16 87.86 283.76C88.16 283.56 88.46 283.96 88.86 283.76C89.06 283.66 89.16 283.36 89.36 283.26C89.4267 283.193 89.4933 283.16 89.56 283.16C90.16 282.96 91.06 283.26 91.76 283.26C92.96 283.36 93.06 283.26 93.16 284.26C92.96 284.36 92.76 284.36 92.56 284.46C93.06 285.06 93.46 284.96 93.66 284.16C93.86 283.96 93.96 283.66 94.16 283.26C94.36 283.86 95.36 284.36 95.96 283.76C96.46 283.16 94.86 282.96 94.96 283.06C94.66 282.76 94.66 282.26 94.36 281.56C95.06 281.56 97.06 282.06 96.86 283.16C96.66 283.06 96.16 282.46 95.86 282.76C95.56 283.16 96.96 284.46 97.56 284.36C98.16 284.26 97.76 283.46 98.36 283.26C98.56 283.16 98.76 283.16 98.76 283.26C98.76 283.193 98.7267 283.16 98.66 283.16C98.96 283.16 98.96 283.06 98.86 282.76C98.66 282.76 98.56 282.86 98.56 283.06C98.36 282.86 97.86 282.86 97.86 282.46C98.16 282.26 99.06 282.36 99.06 282.36C99.66 281.76 99.06 281.86 98.76 281.36C99.16 281.16 99.66 281.26 100.06 281.16C100.16 280.86 100.76 280.06 101.26 280.76C101.56 281.16 100.86 281.16 100.66 281.36C100.86 281.26 101.46 283.06 101.26 283.06C101.74 283.3 102.86 282.58 103.44 282.13C103.46 282.01 103.48 281.89 103.51 281.76C102.74 281.45 102.59 281.43 101.86 282.06C101.66 281.76 101.36 281.36 101.76 281.06C101.76 281.06 101.86 281.06 101.86 280.96C102.16 281.06 102.56 281.06 102.86 281.16C102.76 281.06 102.66 281.06 102.56 280.96H102.86V281.16C102.86 281.16 102.96 281.06 103.16 280.86C103.36 280.79 103.55 280.77 103.69 280.73C103.74 280.39 103.78 280.05 103.82 279.7C103.48 279.79 103.18 279.92 103.06 280.15C102.86 279.95 102.66 279.75 102.66 279.65C102.66 279.09 103.35 279.12 103.9 279.08C103.99 278.29 104.06 277.49 104.1 276.69C103.47 276.62 102.77 276.44 102.46 276.25C105.16 273.85 100.36 275.85 101.56 277.35C101.66 277.25 101.76 277.05 101.76 276.95C102.26 277.45 101.36 278.05 101.46 278.55C101.56 278.75 101.66 278.85 101.76 278.95L101.66 279.05C101.86 279.15 102.06 279.25 102.26 279.25L102.36 279.35C101.86 279.65 101.06 279.55 100.56 279.25C100.46 279.15 100.36 279.15 100.36 279.05C100.26 279.45 99.26 280.55 98.86 280.55C98.66 280.45 98.56 280.25 98.36 280.15C97.96 280.05 98.56 281.25 98.36 281.45C98.16 281.65 96.76 281.25 96.66 281.15C96.66 281.05 96.66 280.95 96.76 280.95C96.46 280.75 94.96 280.75 94.56 280.85C93.86 281.05 93.86 281.95 93.66 282.05C92.96 282.35 92.46 280.95 91.46 281.15C90.76 281.35 91.26 282.55 92.06 281.25C92.16 281.75 92.36 282.15 91.96 282.55C91.46 283.05 90.86 282.45 90.56 282.45C90.06 282.35 89.36 282.25 88.76 282.15C87.76 282.05 87.66 281.45 87.96 282.25C87.96 282.35 86.66 283.05 86.66 283.05C85.66 282.95 86.56 282.45 86.16 281.85C86.1 281.97 86.04 282.05 85.97 282.08C86.14 282.14 86.14 282.34 86.06 282.75C85.66 282.75 84.96 282.25 84.66 282.55C84.46 282.75 84.66 283.15 84.76 283.45C84.66 283.55 84.56 283.75 84.56 283.85C84.16 283.65 83.56 282.85 83.56 282.75C83.46 282.35 84.16 282.05 84.26 281.55C84.36 281.35 84.46 281.25 84.56 281.15C84.36 281.05 84.16 280.95 83.96 280.95L83.86 280.85C84.35 279.67 82.62 280.33 84.2 279C84.23 279.01 84.42 278.95 84.76 278.75C84.76 278.65 84.96 279.75 85.26 279.65C86.16 279.45 87.26 278.85 88.26 278.85C88.76 278.85 89.36 279.55 89.86 279.25C89.76 279.35 90.16 277.45 90.16 277.35C90.96 277.65 90.16 278.05 90.56 278.45C90.96 278.85 90.96 278.65 91.26 278.85C91.16 278.75 92.16 279.05 91.96 279.05C91.96 279.25 92.06 279.35 92.26 279.45C92.46 279.35 92.56 279.25 92.66 279.15C94.86 278.75 92.26 277.65 92.86 277.15C92.82 277.12 92.78 277.09 92.75 277.07C92.65 277.55 92.35 277.56 92.16 278.05C91.66 277.55 91.06 276.05 91.86 275.85C92.66 276.85 92.56 275.35 93.06 275.55C93.56 275.75 93.86 276.95 94.46 277.35C94.66 277.45 95.06 277.55 95.26 277.65C94.56 276.65 95.56 276.45 96.26 276.25C96.66 276.15 96.96 275.95 97.16 275.85V275.95C97.16 275.85 97.46 275.65 97.96 275.55C97.96 276.25 97.66 277.15 98.46 277.65C98.66 277.75 100.76 278.05 100.56 277.35C100.46 276.95 99.06 277.55 98.76 276.45C99.46 276.35 99.86 275.95 100.56 275.75C100.16 275.55 99.36 275.65 99.06 275.25C99.56 275.15 100.16 275.05 100.86 274.85C100.93 274.89 101 274.94 101.06 274.99C100.91 274.99 100.74 275 100.56 275.05C100.65 275.14 101 275.82 101.45 275.29C101.6 275.44 101.67 275.55 101.56 275.55C103.06 275.15 102.66 274.95 102.06 274.55C102.9 274.37 103.67 274.19 104.15 274.03C104.15 273.83 104.14 273.62 104.13 273.42C103.96 273.31 103.77 273.19 103.56 273.05C103.56 272.85 103.36 272.55 102.86 272.25C102.66 272.15 102.36 272.15 101.96 272.25C100.96 271.85 100.06 271.85 100.16 272.95C99.76 273.15 99.46 273.45 99.36 273.75H98.06C98.76 273.15 99.86 272.75 98.86 271.85C98.06 271.05 95.66 271.75 97.66 270.65C97.36 270.35 96.56 270.45 96.16 270.45C96.36 269.75 97.56 269.05 97.26 268.45C96.86 267.75 96.56 268.55 96.36 268.75C96.36 269.05 96.46 269.35 96.46 269.55C96.16 269.65 95.86 269.65 95.56 269.75C95.36 270.55 96.16 270.85 96.36 271.25C96.46 271.45 96.26 272.05 96.36 272.05C96.66 272.25 97.86 272.05 97.86 272.05C97.96 272.35 96.56 273.75 96.26 273.75C96.06 273.75 94.66 273.65 94.66 273.55C94.26 273.15 94.26 272.05 95.16 272.05C94.96 271.95 94.66 271.75 94.46 271.75C93.86 271.75 93.56 272.85 92.76 272.45C92.76 272.45 92.36 269.65 91.76 271.05C92.06 271.85 93.36 273.85 92.26 274.45C92.06 274.55 92.16 273.85 92.16 273.85C92.16 273.85 91.66 273.75 91.56 273.75C90.66 273.55 89.76 274.65 88.86 274.55C89.06 273.85 89.96 273.55 90.46 273.35C91.06 272.15 91.16 273.25 91.46 272.35C91.26 272.35 91.06 272.45 90.86 272.55C90.96 272.35 90.96 272.15 90.86 271.95C90.96 272.05 89.56 272.35 89.16 272.15C88.96 272.05 88.86 271.25 88.56 271.05C88.36 271.25 88.26 271.55 88.26 271.85C88.06 271.55 87.66 271.45 87.36 271.15C86.86 270.55 87.06 269.95 86.06 269.85C86.26 269.35 86.56 269.65 86.96 269.55C86.96 269.55 88.26 269.65 88.26 269.55C88.36 269.65 88.56 270.15 88.56 270.15H89.26C89.46 270.15 88.76 269.55 88.46 269.35C88.56 269.45 87.66 269.25 87.56 269.25C87.46 269.25 87.46 269.15 87.46 269.05C87.36 269.05 87.16 269.15 87.16 269.05H87.46C87.46 268.85 87.56 268.55 87.26 268.45C86.76 268.15 85.76 268.85 85.56 269.25C85.76 268.65 86.36 267.25 85.26 267.15C85.16 267.85 85.26 268.55 85.46 269.15C85.66 269.75 85.76 269.75 85.86 270.25C85.66 270.25 85.46 270.35 85.26 270.35C85.16 269.95 85.26 269.75 85.16 269.65C85.16 270.25 84.56 270.35 84.16 269.95C84.76 269.85 85.16 269.45 84.96 268.85C84.96 268.75 84.86 268.65 84.76 268.65V268.35C84.66 268.05 83.46 268.05 83.76 267.65C83.96 267.65 84.16 267.55 84.36 267.45C84.26 267.25 84.06 267.05 83.86 266.95C84.86 266.65 86.06 266.95 85.56 265.45C85.66 265.35 84.56 265.95 84.56 265.95C84.26 266.35 85.26 267.25 83.96 266.45C83.86 267.55 83.26 266.15 82.36 266.55C82.56 266.75 82.76 267.05 82.86 267.15C83.16 267.55 83.36 267.95 83.66 268.35C83.76 268.35 83.86 268.45 83.86 268.65C83.86 268.85 83.86 268.95 83.76 269.15C83.36 269.25 82.96 269.35 82.56 268.85C81.86 268.65 81.36 268.75 80.86 269.05C80.77 268.77 80.68 268.48 80.67 268.11C80.65 268.1 80.65 268.08 80.67 268.05C80.77 267.65 80.27 267.95 80.17 268.05C79.97 268.35 80.27 269.05 80.17 269.45C79.87 269.25 79.67 268.45 79.27 268.45C78.67 268.55 78.97 269.45 78.47 269.65H78.37C78.27 269.15 78.67 267.75 78.17 267.45C78.27 267.35 78.47 266.75 78.37 266.85V266.75C78.37 266.75 78.47 266.65 78.77 266.25C77.87 265.95 78.97 265.35 79.37 265.35C77.87 262.95 78.57 265.05 77.57 265.65C77.57 265.45 77.27 264.85 77.27 264.95C77.27 264.95 76.57 266.75 76.47 266.95C76.37 266.85 76.27 266.65 76.17 266.55L75.87 266.85C75.57 266.95 75.47 267.15 75.47 267.25C75.4033 267.25 75.3367 267.217 75.27 267.15C75.27 266.55 75.27 265.85 75.07 265.55C75.87 265.75 76.37 266.05 76.37 265.05C76.37 264.95 76.27 264.75 76.17 264.55C76.07 264.55 76.57 264.35 76.57 264.35C77.17 263.95 76.77 264.65 77.37 264.55C77.57 264.55 77.77 263.85 78.17 263.75C78.47 263.65 78.87 263.65 79.07 263.65C79.07 264.35 79.77 265.05 79.97 263.85C79.97 263.65 79.17 261.95 78.77 261.45C79.67 261.05 79.87 261.15 79.77 260.25C79.77 260.05 79.27 259.55 79.07 259.25C78.77 259.85 78.97 260.15 78.27 259.75C78.07 259.95 76.77 260.05 76.87 259.05C76.87 258.65 77.37 258.35 77.87 258.15C77.77 258.05 77.87 257.85 77.87 257.65C77.97 257.75 78.07 257.85 78.07 258.05C78.47 257.85 78.77 257.75 78.97 257.45C78.77 257.25 78.47 257.05 78.17 257.05C79.07 256.25 79.47 256.45 79.37 255.35C79.37 254.75 78.27 254.05 79.37 253.65C79.07 253.15 77.77 253.85 77.57 254.45C77.07 255.55 78.37 255.25 78.97 254.75C78.77 255.05 78.97 255.75 78.87 255.85C78.67 256.05 78.07 255.55 78.17 255.75C77.97 255.95 78.07 256.35 77.67 256.35C76.77 257.35 77.67 258.25 76.17 258.65C76.37 259.25 76.57 259.65 76.87 260.05C77.07 260.05 77.27 259.95 77.37 259.85C77.57 260.25 77.87 260.55 78.37 260.65C77.77 261.65 76.17 259.95 75.57 261.25C75.77 261.35 75.87 261.35 75.97 261.25V261.95C74.87 261.75 74.07 259.65 72.97 261.25C73.37 261.25 73.77 261.25 74.07 261.35C73.67 261.75 73.47 261.85 72.97 262.05C73.17 262.55 74.07 261.85 74.37 261.85C74.37 261.95 74.27 262.55 74.17 262.55C74.27 262.75 76.47 262.55 76.67 262.65C77.57 261.85 77.57 263.65 77.57 263.65C76.87 263.65 76.97 263.25 76.57 262.65C76.27 263.25 75.77 263.35 75.57 263.65C75.27 264.15 75.47 264.45 75.27 264.95C74.57 264.35 75.17 263.85 75.27 263.25C74.97 263.35 74.97 263.55 74.87 263.65C74.47 263.45 74.07 263.35 73.67 263.35C73.67 263.85 73.77 264.15 74.07 264.05L74.17 264.15H74.07C73.27 264.95 72.57 262.55 71.97 264.05C71.17 266.05 74.07 264.25 74.77 265.35C74.27 265.55 72.27 264.95 72.67 266.25C72.77 266.55 73.67 266.05 73.87 266.15C74.37 266.55 73.87 266.45 73.97 266.95C73.97 267.15 73.87 267.45 73.77 267.75C73.47 267.95 73.17 268.25 72.87 268.45C72.67 268.35 72.57 268.15 72.67 268.15C72.37 268.05 71.87 267.55 71.57 268.05C71.67 268.25 71.77 268.45 71.77 268.75C71.37 268.55 71.07 268.25 70.77 268.15C70.67 268.75 70.87 269.55 71.47 269.85H71.57C71.47 269.95 71.47 270.15 71.47 270.25C71.37 270.35 71.27 270.45 71.37 270.55C71.37 270.65 71.77 270.95 72.07 271.15C72.17 271.25 72.27 271.45 72.37 271.55C72.37 271.55 72.47 271.55 72.47 271.45C72.57 271.45 72.67 271.55 72.67 271.55C72.47 271.75 71.77 271.55 71.57 271.45H71.37C71.17 271.15 70.97 271.05 70.57 271.25C69.87 271.85 70.67 272.45 70.67 272.95C70.67 273.15 70.77 273.35 70.67 273.65C70.57 273.85 70.47 273.85 70.27 273.75C70.17 273.25 69.77 273.15 69.27 273.15C69.37 273.05 69.57 272.95 69.67 272.95C69.97 272.65 69.97 271.45 69.47 271.55C69.17 271.55 68.97 272.95 68.97 273.15C68.57 273.05 68.27 273.15 68.27 272.65C69.07 272.65 68.57 272.15 68.87 271.75C68.87 271.75 69.37 270.75 69.37 271.05C69.37 271.21 69.43 270.68 69.46 270.55C69.4 270.57 68.77 270.73 68.77 270.45C68.67 269.85 70.17 269.65 69.27 269.55C69.57 268.95 69.87 268.05 68.87 268.25C68.67 268.35 68.47 268.65 68.37 268.95C68.37 268.35 68.07 267.65 67.37 267.95C67.37 267.75 67.47 267.55 67.57 267.35L67.67 267.25C67.87 267.25 68.07 267.35 68.27 267.55C68.37 267.45 68.47 267.35 68.77 267.25C68.57 267.05 68.27 266.85 67.97 266.75C67.17 266.25 66.57 266.35 66.27 266.65C65.97 266.65 65.67 266.75 65.17 267.05C64.57 267.45 64.27 267.55 64.67 268.35C65.07 268.05 65.37 267.65 65.77 267.25C65.77 267.35 65.77 267.45 65.87 267.45C65.67 267.95 65.57 268.45 65.47 269.05C65.27 269.25 64.97 269.55 64.77 270.05C64.57 270.15 64.37 270.05 64.27 269.75C64.17 269.55 64.27 271.25 64.27 271.55C63.37 271.45 64.17 271.05 63.57 270.65C62.87 270.15 63.17 270.55 62.77 270.35C61.47 269.75 62.37 270.25 61.97 271.55C61.17 271.75 61.07 271.25 60.67 270.85C60.47 271.05 59.77 271.85 59.97 271.85C59.57 271.95 58.57 270.85 58.37 270.65C58.57 270.25 58.57 269.85 58.37 269.45C58.27 268.85 57.77 267.75 57.27 267.75C57.57 267.25 57.47 266.85 56.97 266.65C56.97 266.95 57.07 267.85 57.37 268.55C56.67 268.35 55.57 268.95 55.57 268.15C55.27 268.15 55.07 268.35 55.07 268.65C55.87 268.75 55.47 269.75 54.87 269.45C54.37 269.15 54.37 267.95 54.47 267.95C53.97 268.05 54.17 268.95 53.87 268.95C53.57 268.95 53.37 268.15 53.07 267.95C52.67 268.45 52.77 268.95 52.77 269.55C52.17 268.75 51.87 267.95 51.37 268.95C51.27 269.25 51.97 269.45 51.57 269.85C51.27 270.15 50.67 269.35 50.47 269.15C49.87 269.85 47.87 268.75 48.57 270.45C48.57 270.45 49.17 269.85 49.27 269.95C49.47 270.25 48.87 270.75 48.87 271.05C49.47 271.15 49.87 270.85 50.57 270.85C50.27 271.15 49.87 271.35 49.47 271.55C49.67 271.85 49.47 272.25 49.07 272.35C49.07 272.35 49.07 272.25 48.97 272.25C49.47 271.75 49.67 271.25 48.67 271.35C48.67 271.25 48.47 271.35 48.27 271.45L48.17 271.35C47.87 270.85 48.07 269.65 47.87 269.05C47.07 269.45 47.37 270.65 46.47 270.95V270.55C46.17 270.25 46.07 270.05 45.77 269.75C45.57 269.95 45.97 271.45 45.07 270.85C45.07 270.65 44.97 270.25 44.87 269.95C45.07 269.85 45.17 269.65 45.37 269.55C45.17 269.35 44.87 269.35 44.67 269.45C44.27 268.75 43.87 268.05 43.77 267.85V269.45C43.67 269.35 43.57 269.35 43.47 269.15C43.37 269.05 42.87 268.45 42.67 268.35C42.77 268.45 41.47 269.05 41.67 268.85C41.27 269.15 41.17 268.35 41.17 269.25C41.27 269.25 41.87 269.65 41.77 269.65C42.07 269.75 42.77 269.35 42.97 269.55C43.47 269.85 43.17 270.55 43.17 270.65C43.17 270.65 43.67 270.85 43.97 270.95C43.97 271.05 44.07 271.15 44.07 271.25C43.87 271.55 43.37 271.55 43.17 271.75C42.97 271.95 42.97 272.25 42.67 272.45C42.57 272.55 42.47 272.55 42.47 272.45C42.57 272.35 42.67 272.25 42.77 272.15C42.57 271.85 42.37 271.55 42.07 271.25C41.57 271.75 41.27 272.45 41.27 272.85H40.97C40.57 272.75 40.97 271.65 40.17 271.95C40.17 271.95 40.67 273.25 40.67 273.35C40.67 273.85 39.77 274.55 40.17 275.25C40.67 276.25 40.57 274.85 40.77 274.65C40.87 274.45 40.57 273.95 41.17 274.05C41.27 274.05 41.27 275.25 41.77 275.05C42.27 274.75 41.27 272.95 42.67 273.25C43.37 273.45 42.17 273.95 42.77 274.45C41.97 274.45 42.37 275.45 42.57 275.85C42.77 275.25 42.47 274.45 43.17 274.45C43.17 274.88 43.25 274.97 43.42 274.9C43.53 275.03 43.74 275.22 43.97 275.55C43.88 275.55 44.81 274.78 43.84 274.67C43.84 274.67 43.86 274.66 43.87 274.65C44.87 274.15 44.27 273.65 44.37 272.55C44.47 271.45 44.37 271.55 45.37 271.45C45.97 271.35 46.47 271.85 46.97 271.75C47.27 271.75 47.57 271.25 47.87 271.05C47.77 271.95 44.97 273.85 45.87 274.55C45.97 274.35 46.07 274.15 46.07 273.95C46.57 274.25 46.57 274.95 47.27 274.95C47.97 275.05 47.97 273.95 48.57 274.75C47.97 274.75 47.47 277.05 49.47 275.05C49.37 274.85 49.17 274.75 48.97 274.95V273.95C49.37 274.35 49.87 274.15 50.27 274.55C49.67 274.75 50.17 275.05 50.07 275.35C49.77 275.45 49.37 275.65 49.27 275.95C49.77 276.05 50.27 275.65 50.67 276.25C50.97 276.65 50.27 276.85 50.27 276.85C50.37 277.05 50.27 277.25 49.97 277.45C50.37 277.65 50.67 277.95 50.67 278.05C49.47 278.05 49.77 279.45 49.97 280.25C49.77 280.55 49.77 280.85 50.07 281.15C50.37 281.15 50.57 281.25 50.77 281.45C50.97 282.05 50.67 282.05 50.47 282.25C50.47 282.25 49.67 281.95 49.17 282.35C48.47 282.95 48.97 283.05 48.67 283.45C48.27 284.05 47.57 285.05 47.07 285.65C46.77 285.35 46.87 284.95 46.67 284.65C45.37 285.65 46.77 286.05 47.57 286.25C47.67 286.95 46.97 286.45 46.87 286.75C46.77 287.15 46.47 287.65 46.57 288.25C46.17 288.35 46.07 288.65 46.17 289.05C46.07 289.05 44.47 289.95 44.57 290.05C46.07 290.95 45.07 289.75 46.07 289.45C45.67 291.65 46.47 289.75 47.07 289.85C48.77 290.05 46.77 291.25 46.77 291.45C46.67 292.25 49.37 293.15 49.07 293.65C48.97 293.75 47.67 293.45 47.57 293.25C47.37 293.15 46.67 292.05 46.57 292.05C46.47 292.25 46.37 292.35 46.27 292.55C45.77 292.85 46.27 291.35 46.37 291.25C46.37 290.75 45.17 291.55 45.37 292.35C45.62 293.42 46.14 293.4 46.82 293.2C46.46 293.48 46.28 293.77 46.37 294.15C46.17 295.45 46.87 294.45 47.67 294.65C47.37 294.95 47.27 295.15 47.17 295.35C47.07 295.35 47.07 295.25 46.97 295.25C46.97 295.25 46.97 295.15 46.87 295.15H46.77V295.25C46.67 295.25 46.57 295.35 46.47 295.45C46.07 295.35 45.77 295.45 45.47 295.75C45.37 296.05 45.37 296.35 45.47 296.65C45.57 296.95 45.57 297.15 45.37 297.35C45.17 297.35 44.87 297.35 44.67 297.25C44.47 297.45 44.27 297.65 44.07 297.75C43.87 297.65 43.67 297.55 43.37 297.45C42.77 297.85 43.47 298.35 42.27 298.35C42.37 297.85 42.97 297.65 42.67 297.05C42.17 295.95 42.37 297.05 41.97 296.75C41.47 296.45 42.07 297.35 41.37 296.55C41.07 296.25 40.97 295.95 41.27 295.55C42.37 295.55 41.57 294.65 41.17 294.15C41.37 294.05 41.47 294.05 41.67 294.05C41.47 294.95 42.07 295.25 42.77 295.35C42.87 295.85 42.87 296.35 43.07 296.75C43.37 296.55 43.57 296.35 43.87 296.05C44.27 298.15 44.77 295.55 44.47 295.65C45.17 295.45 46.47 294.45 45.37 293.65C45.67 293.85 44.17 293.55 44.27 293.55C43.37 293.55 44.07 294.05 43.07 293.75C43.17 293.55 43.17 293.35 43.17 293.15C43.17 293.15 43.17 293.05 43.27 293.05C43.07 292.75 42.97 292.55 42.77 292.25C42.07 292.75 42.07 292.65 42.57 293.45C42.27 293.55 42.07 293.65 41.67 293.75C41.07 293.95 40.57 293.55 40.17 294.35C39.47 293.45 40.57 293.75 40.67 293.15C40.57 293.05 40.37 292.95 40.27 292.95C40.97 292.25 40.37 291.55 39.67 291.35C40.47 291.05 40.87 290.35 39.87 289.75C38.67 289.05 35.07 289.75 36.47 291.45C36.97 291.45 37.27 291.25 37.47 290.75C37.77 291.45 38.57 291.65 39.27 291.45C39.37 291.85 39.57 292.55 39.17 292.85C38.57 293.25 38.57 292.15 38.07 292.25C37.07 292.45 39.17 293.45 39.07 294.25C38.17 293.85 38.07 293.85 37.37 294.45C37.17 294.15 37.57 293.55 37.47 293.15C37.47 293.15 37.37 293.25 37.27 293.35C37.37 293.15 37.27 292.95 37.07 292.75C37.07 292.55 37.07 292.35 36.87 292.05C36.57 291.45 36.87 291.85 36.17 291.65C35.97 291.55 34.77 291.75 34.67 291.95C34.67 292.15 35.07 292.45 35.27 292.75C34.97 292.95 34.67 293.15 34.37 293.55C34.57 293.65 34.77 293.75 34.97 293.85H35.17C34.87 294.25 34.37 294.55 34.07 294.75C34.27 294.85 35.37 295.05 34.87 294.35C35.37 294.35 36.07 294.35 35.67 295.05C35.47 294.85 34.77 295.15 33.97 295.45C33.97 295.383 33.9367 295.317 33.87 295.25V295.45C33.37 295.65 32.97 295.75 32.77 295.75C32.23 296.75 32.59 294.79 32.66 294.72C32.56 294.42 32.37 293.94 32.17 293.66C31.77 292.66 31.07 291.96 32.37 291.76C32.07 291.36 31.47 291.26 31.87 290.66C32.87 291.46 32.17 290.46 32.57 290.26C32.67 290.16 33.07 289.86 33.17 289.76C33.47 289.36 33.57 290.06 33.77 289.86C34.17 289.66 33.57 288.96 34.07 288.56C34.27 288.36 35.17 286.66 35.17 286.36C35.17 286.06 34.67 284.36 34.07 284.66C34.27 284.56 34.37 284.26 34.47 283.76C34.07 283.76 33.77 283.66 33.37 283.66C33.07 284.16 33.47 284.86 33.87 284.76L33.77 284.86C33.37 285.26 34.17 285.56 34.17 285.96C34.27 286.46 33.77 287.66 34.27 287.86C33.47 289.06 33.37 286.66 33.67 286.86C32.77 286.46 32.37 288.26 32.07 288.86H31.87C31.67 288.56 31.17 287.86 30.87 288.16C30.77 288.26 30.87 288.46 30.97 288.76C31.07 289.16 31.27 289.66 31.07 289.66C30.67 289.76 29.27 287.66 29.07 289.66C29.87 289.66 30.37 289.26 30.87 290.26C30.87 290.36 30.97 290.66 30.87 290.86C30.77 290.56 30.57 290.26 30.27 290.46C30.17 290.46 29.97 290.56 29.27 290.86C29.57 291.16 27.67 293.46 27.27 292.66C27.17 292.56 28.47 291.16 28.47 290.76C28.47 290.56 28.37 290.46 28.07 290.46C28.27 290.16 28.27 289.96 28.07 289.66C27.97 289.56 27.17 289.46 27.07 289.46C27.17 289.16 27.17 288.96 26.97 289.06C26.87 288.96 26.78 288.96 26.78 288.87C26.78 288.9 26.78 288.93 26.78 288.96C26.28 289.46 26.18 288.96 25.68 288.96C25.48 288.66 25.18 288.46 24.88 288.56C24.78 288.36 24.68 288.16 24.48 287.76C23.78 288.86 23.68 288.86 24.18 289.96C24.38 289.76 24.48 289.56 24.58 289.46C24.38 290.36 24.68 289.66 25.18 289.36C25.48 290.16 24.48 290.36 24.48 290.86C24.48 291.16 25.38 291.06 25.48 290.96C25.38 290.76 25.18 290.56 24.98 290.36C26.98 289.86 25.58 291.86 25.78 292.86C25.88 293.66 26.68 292.96 26.18 294.26C26.11 294.26 26.05 294.26 25.99 294.26H25.97ZM88.56 296.96C88.56 297.1 88.61 297.19 88.64 297.2C88.55 297.37 88.46 297.47 88.46 297.56C87.96 297.46 88.36 296.86 88.56 296.96ZM83.26 287.96C83.36 287.86 83.46 287.86 83.46 287.86C83.46 287.86 83.36 287.96 83.26 287.96ZM84.3 285.15C84.39 285.13 84.47 285.06 84.56 285.06C84.48 285.14 84.39 285.15 84.3 285.15ZM83.66 283.76C83.66 283.86 83.76 284.06 83.76 284.16C83.76 284.16 84.26 284.26 84.46 284.46C84.36 284.75 84.27 284.95 84.26 285.15C84.13 285.15 84.01 285.11 83.96 285.16H83.36C83.26 285.06 82.96 284.96 82.96 284.86C82.86 284.56 82.96 284.36 82.96 284.06C83.26 284.06 83.56 283.86 83.66 283.76ZM85.56 270.96C85.66 270.86 85.76 270.86 85.86 270.76C85.76 271.26 85.46 271.96 85.76 272.16C86.66 272.86 86.16 271.26 86.66 271.36C87.26 271.56 86.46 272.46 86.76 272.56C86.26 272.76 85.76 273.06 85.36 273.26C85.36 272.86 85.06 272.46 84.66 272.16C83.86 271.66 83.66 272.46 83.26 272.26C83.16 272.26 83.66 270.26 83.66 270.26C83.96 270.16 85.76 272.76 85.56 270.96ZM82.36 269.86C82.66 269.86 82.96 269.96 83.26 269.96C83.06 270.16 82.76 270.16 82.16 270.16C82.26 270.06 82.36 269.96 82.36 269.86ZM83.16 282.46C82.96 282.56 82.66 282.56 82.46 282.76C82.36 282.66 82.16 282.46 81.96 282.26C81.96 282.16 81.86 282.16 81.86 282.06C82.56 281.56 82.96 281.96 83.16 282.46ZM80.86 269.26C81.06 269.36 81.36 269.46 81.66 269.56C81.46 269.96 81.36 270.16 81.16 270.16C80.86 270.26 80.76 271.06 80.56 270.16C80.46 269.86 80.66 269.56 80.86 269.26ZM78.46 266.36C78.3933 266.293 78.3267 266.227 78.26 266.16C78.26 266.16 78.46 266.26 78.46 266.36ZM68.56 277.46C68.56 277.36 68.66 277.16 68.66 277.06C68.86 277.06 69.06 276.96 69.26 276.96C69.16 277.26 69.16 277.56 68.56 277.46ZM70.06 274.66C70.46 274.96 70.96 275.06 71.46 275.26C71.66 275.46 71.56 275.56 71.46 275.66C71.26 275.76 70.96 275.86 70.46 275.86C70.56 275.86 70.46 275.96 70.26 276.06C69.96 276.16 69.76 276.16 69.46 276.36C69.3933 276.427 69.3267 276.493 69.26 276.56C69.06 276.66 68.86 276.66 68.66 276.56C68.76 276.46 68.86 276.26 68.96 276.16C68.56 275.96 68.46 275.86 68.36 275.66C68.56 275.36 69.56 275.36 70.06 274.66ZM66.86 270.66C67.36 270.36 68.06 271.16 68.26 271.66C67.86 271.76 67.46 271.66 67.16 271.76C67.56 271.96 67.96 272.16 68.46 272.36C68.26 272.56 67.96 272.96 67.86 273.26C67.46 273.36 66.96 273.36 66.66 273.36C67.26 272.06 66.66 272.26 66.36 271.96C67.06 271.76 66.36 270.96 66.86 270.66ZM65.36 277.36C65.86 277.36 66.06 277.16 66.16 276.86C66.46 276.96 66.66 277.06 66.96 277.06C66.66 277.76 66.36 278.56 66.36 278.56C66.66 278.86 67.26 277.76 67.46 278.26C67.66 278.66 66.96 278.56 66.76 278.86C65.96 279.76 66.06 280.56 65.56 281.66C65.46 281.26 65.26 280.76 65.26 280.36C65.26 280.56 65.36 278.96 65.46 279.06C65.36 278.76 65.16 278.56 64.96 278.56H65.06C65.26 278.46 65.36 277.86 65.36 277.36ZM62.06 272.06C62.06 271.86 61.96 271.76 61.96 271.56C61.96 271.56 62.06 271.96 62.06 272.06ZM60.96 272.76C61.16 272.76 61.26 272.66 61.46 272.66C61.36 272.86 62.06 272.06 62.06 272.06C63.16 272.16 60.66 275.66 60.96 272.76ZM55.16 283.16C55.56 282.96 55.66 282.66 55.46 282.26C55.26 281.96 55.26 281.76 55.56 281.46C55.66 281.56 55.96 282.06 56.06 282.26C56.26 282.16 57.26 282.06 57.26 282.16C57.46 281.96 57.56 281.66 57.66 281.46C57.86 281.66 58.06 281.56 58.16 281.46C58.26 281.36 58.36 281.26 58.46 281.16V280.76C59.56 280.46 59.16 280.76 59.36 279.66C59.46 279.36 58.66 278.46 59.66 278.56C59.66 278.56 60.86 279.96 60.96 280.06C60.26 280.46 61.66 280.96 61.76 279.86C62.46 280.66 62.86 280.46 63.06 279.86C62.96 279.86 62.86 279.86 62.66 279.76C62.76 279.66 62.96 279.66 63.06 279.66C63.16 279.16 63.16 278.56 63.16 278.06C63.66 278.76 64.26 278.26 64.86 277.66C64.86 277.86 64.86 278.16 64.96 278.26C64.86 278.26 64.76 278.26 64.56 278.36C64.56 278.36 63.56 279.96 63.46 280.16C63.26 280.36 63.16 280.86 62.96 280.96C62.36 281.36 62.56 281.06 62.16 281.06C61.96 281.06 61.16 280.76 60.76 281.16C60.46 281.46 60.26 282.76 60.76 283.06C61.36 283.36 62.06 282.46 62.76 283.16C63.36 283.76 62.66 284.56 62.16 284.76C62.26 284.26 62.66 283.76 62.16 283.56C61.56 283.36 61.86 284.26 61.66 284.26C61.36 284.36 59.76 282.66 60.96 284.76C58.86 285.96 60.36 282.96 60.06 282.16C59.56 280.96 58.26 282.36 58.46 283.36C58.46 283.26 59.06 284.16 59.06 284.26C58.76 284.56 58.76 284.86 58.86 285.26C59.06 285.56 59.36 285.66 59.66 285.66C59.96 285.96 60.76 287.06 60.16 285.76C61.06 285.96 60.86 285.96 60.76 286.76C61.86 286.46 62.86 286.06 63.66 285.26C63.46 283.56 63.96 284.06 64.46 282.96C64.56 282.66 63.86 282.46 64.46 281.86C65.06 282.16 65.36 281.66 65.96 282.36C64.36 282.86 65.36 284.46 64.46 284.66V284.06C63.56 284.56 64.06 285.26 64.06 285.96C63.76 285.76 63.66 285.86 63.46 285.76C63.46 285.66 63.36 285.66 63.36 285.56C63.46 286.06 63.36 286.86 63.16 287.46C62.26 286.66 61.26 287.26 61.16 288.36C59.76 288.16 60.46 288.06 59.96 287.46C59.36 286.76 59.16 286.96 58.56 286.86C57.86 286.76 57.86 284.86 57.76 284.36C57.66 283.96 57.86 283.66 57.56 283.46C57.26 283.26 56.36 284.36 55.96 283.86C56.06 283.96 56.06 283.16 56.06 283.16C55.66 283.26 55.46 283.46 55.36 283.96C54.76 283.46 55.26 283.56 55.16 283.16ZM46.96 294.46L46.76 294.26C47.05 293.87 47.24 293.57 46.88 293.19C47 293.15 47.13 293.11 47.26 293.06C47.16 293.56 47.06 294.06 46.96 294.46ZM46.56 295.96C46.66 295.96 46.86 295.86 47.16 295.76C47.36 296.36 47.16 296.56 46.26 296.46C46.36 296.26 46.46 296.06 46.56 295.96ZM42.46 294.26C42.36 294.26 42.16 294.16 42.06 293.96C42.16 293.96 42.36 294.06 42.46 294.26ZM37.06 293.46C36.66 293.96 36.06 294.46 35.96 293.86C36.46 293.76 36.86 293.66 37.06 293.46Z" fill="#00C5A9"/>
<path d="M26.96 289.05C27.66 288.75 27.46 288.05 28.16 288.05C28.06 288.25 28.06 288.45 27.96 288.55C27.86 288.55 27.76 288.65 27.66 288.85L27.96 289.15V289.35H28.06C28.36 289.55 28.56 289.45 28.76 289.05C28.6933 288.983 28.6267 288.917 28.56 288.85C28.76 288.55 28.86 288.25 29.06 288.25C28.86 287.95 29.06 288.55 28.56 288.15C28.26 287.85 28.26 288.05 27.96 287.65C27.56 288.15 27.56 288.25 27.06 288.45C26.86 288.55 26.86 287.55 26.06 288.45C26.24 288.54 26.73 288.63 26.77 288.86C26.86 288.95 26.87 288.96 26.96 289.05Z" fill="#00C5A9"/>
<path d="M32.65 294.72C32.65 294.72 32.65 294.74 32.66 294.75C32.66 294.71 32.66 294.71 32.65 294.72Z" fill="#00C5A9"/>
<path d="M85.97 282.08C85.97 282.08 85.91 282.05 85.86 282.05C85.9 282.09 85.94 282.09 85.97 282.08Z" fill="#00C5A9"/>
<path d="M92.74 277.06C92.74 277.06 92.75 277.06 92.76 277.07C92.76 277.07 92.76 277.06 92.76 277.05C92.76 277.05 92.75 277.05 92.74 277.05V277.06Z" fill="#00C5A9"/>
<path d="M89.66 305.45C89.96 305.52 90.03 305.49 90.18 305.55C90.23 305.51 90.28 305.47 90.32 305.43C90.09 305.43 89.78 305.28 89.66 305.46V305.45Z" fill="#00C5A9"/>
<path d="M92.76 276.75C92.76 277.05 92.46 276.85 92.26 277.05C92.45 277.15 92.55 277.14 92.74 277.05C92.54 276.89 92.76 277 92.76 276.74V276.75Z" fill="#00C5A9"/>
<path d="M92.96 302.25C93.11 302.28 93.28 302.29 93.45 302.31C93.62 302.12 93.78 301.92 93.95 301.73C93.72 301.76 93.53 301.78 93.46 301.75C94.26 300.55 92.06 300.65 93.66 300.25C94.1 300.14 94.62 300.21 95.13 300.32C95.29 300.11 95.46 299.91 95.62 299.7C95.33 300.05 95.05 300.05 94.86 299.86C94.76 299.66 94.76 299.46 94.86 299.26C94.36 298.96 93.96 298.66 93.46 298.26C93.26 298.16 92.76 298.66 92.66 298.36C92.56 297.96 93.06 297.76 93.06 297.46C92.76 295.86 92.06 297.06 91.46 296.26C90.76 296.96 91.46 297.06 90.16 297.36C90.36 297.76 90.16 298.16 90.46 298.56C90.46 298.56 91.86 298.36 91.76 299.06C91.56 299.26 91.36 299.36 91.26 299.66C91.46 299.76 92.16 299.66 92.26 299.96C92.76 299.56 93.46 299.16 93.76 299.86C93.16 300.06 92.96 299.76 92.86 300.56C92.56 300.46 92.36 300.26 92.06 300.16C91.66 300.56 91.56 300.76 92.36 301.46C92.06 301.36 91.46 301.06 91.16 301.06C91.16 301.06 91.26 301.16 91.26 301.26H91.66C91.46 301.96 92.36 302.06 92.96 302.26V302.25Z" fill="#00C5A9"/>
<path d="M80.67 268.12C80.67 268.12 80.72 268.14 80.77 268.12C80.73 268.1 80.69 268.07 80.67 268.05C80.67 268.07 80.67 268.09 80.67 268.11V268.12Z" fill="#00C5A9"/>
<path d="M69.45 270.55H69.46C69.46 270.51 69.46 270.52 69.45 270.55Z" fill="#00C5A9"/>
<path d="M82.56 268.15C82.66 267.65 81.86 267.05 81.66 267.85C81.56 267.45 81.16 265.65 81.26 265.65C80.96 265.65 80.66 265.95 80.26 265.95C80.46 266.45 80.46 266.35 80.66 266.45C80.56 266.45 79.86 266.85 79.96 267.05C80.06 267.35 80.86 267.35 81.06 267.75C81.12 267.94 80.91 268.09 80.76 268.12C81.24 268.45 82.37 269.08 82.56 268.15Z" fill="#00C5A9"/>
<path d="M100.56 279.25C101.16 278.75 100.16 278.45 100.36 279.05C100.427 279.117 100.493 279.183 100.56 279.25Z" fill="#00C5A9"/>
<path d="M60.16 249.15C60.16 249.75 60.36 249.75 60.86 249.25C60.66 248.75 60.46 248.65 60.16 249.15Z" fill="#00C5A9"/>
<path d="M58.06 262.05C57.9933 262.05 57.9267 262.017 57.86 261.95C57.96 262.05 57.96 262.15 58.06 262.05Z" fill="#00C5A9"/>
<path d="M58.76 264.35C58.96 264.35 59.16 264.25 59.36 264.15C59.16 263.85 58.96 264.15 58.76 264.35Z" fill="#00C5A9"/>
<path d="M61.86 264.65C61.56 264.35 61.26 264.35 61.06 264.55C61.16 265.05 61.46 265.05 61.86 264.65Z" fill="#00C5A9"/>
<path d="M63.86 264.35C63.46 264.35 62.96 264.35 62.76 264.45C63.46 264.85 63.56 264.45 63.86 264.35Z" fill="#00C5A9"/>
<path d="M73.86 259.15C73.66 258.95 73.46 258.85 73.16 258.65C72.86 258.75 72.56 258.85 72.26 258.95C72.96 259.65 73.46 259.65 73.86 259.15Z" fill="#00C5A9"/>
<path d="M85.46 247.75C85.96 248.15 86.56 248.35 87.26 248.35C87.26 248.25 88.26 248.15 88.26 247.85C88.16 247.45 84.96 246.75 85.46 247.75Z" fill="#00C5A9"/>
<path d="M91.96 251.45C92.16 251.85 92.36 251.85 92.66 251.45C92.36 251.15 92.06 251.15 91.96 251.45Z" fill="#00C5A9"/>
<path d="M88.76 280.75C89.16 281.25 89.56 281.15 89.96 280.55C89.56 280.05 89.26 280.15 88.76 280.75Z" fill="#00C5A9"/>
<path d="M97.56 289.25C97.76 289.05 97.86 288.75 97.86 288.45C97.56 287.15 91.56 290.35 97.56 289.25Z" fill="#00C5A9"/>
<path d="M68.06 245.45C66.86 245.75 66.36 246.65 66.36 247.75C66.46 247.75 67.66 247.25 67.46 247.15C66.66 246.75 69.36 247.25 68.16 247.45C68.66 247.35 69.76 248.85 69.66 246.75C70.46 246.55 69.16 245.15 68.06 245.45Z" fill="#00C5A9"/>
<path d="M27.46 253.15C27.31 253.09 27.07 253.11 26.82 253.16C26.65 253.44 26.49 253.73 26.33 254.01C26.88 253.87 28.42 253.32 27.46 253.14V253.15Z" fill="#00C5A9"/>
<path d="M28.76 257.35C28.46 258.05 28.26 259.45 27.46 259.55C25.76 259.65 27.16 257.75 26.46 257.25C26.46 257.25 24.56 260.05 24.26 260.25C24.96 260.55 26.26 260.25 26.96 260.25C26.96 260.45 26.06 262.65 26.06 262.85C26.16 263.95 27.36 262.65 26.66 264.25C28.46 263.95 27.16 263.45 27.46 262.55C27.96 260.95 29.96 258.95 28.76 257.35Z" fill="#00C5A9"/>
<path d="M28.06 256.65C27.96 256.65 28.06 257.15 28.66 257.25C28.66 256.85 28.46 256.65 28.06 256.65Z" fill="#00C5A9"/>
<path d="M39.06 266.45C38.86 265.85 38.56 265.85 38.16 266.45C38.26 266.95 38.56 266.95 39.06 266.45Z" fill="#00C5A9"/>
<path d="M38.26 245.95C38.36 245.85 38.46 245.75 38.56 245.65C38.46 245.45 38.36 245.55 38.26 245.95Z" fill="#00C5A9"/>
<path d="M38.26 271.35C38.56 271.65 38.96 271.65 39.36 271.35C38.96 270.75 38.76 270.75 38.26 271.35Z" fill="#00C5A9"/>
<path d="M39.76 277.25C39.46 277.05 38.16 275.45 39.16 275.65C36.86 275.35 37.96 278.15 39.76 277.25Z" fill="#00C5A9"/>
<path d="M42.36 288.15C42.76 288.65 43.06 288.55 43.26 288.05C42.86 287.65 42.56 287.65 42.36 288.15Z" fill="#00C5A9"/>
<path d="M42.86 285.55C42.56 285.75 42.66 285.85 42.96 285.85C43.26 285.65 43.16 285.55 42.86 285.55Z" fill="#00C5A9"/>
<path d="M44.16 283.75C44.66 283.45 44.76 282.95 44.26 282.45C43.76 282.85 43.66 283.25 44.16 283.75Z" fill="#00C5A9"/>
<path d="M43.16 290.45C43.46 290.65 43.66 290.65 43.86 290.45C43.66 289.85 43.46 289.85 43.16 290.45Z" fill="#00C5A9"/>
<path d="M41.86 282.15C41.56 282.25 41.46 282.45 41.66 282.75C41.96 282.75 42.06 282.55 41.86 282.15Z" fill="#00C5A9"/>
<path d="M33.26 291.65C33.56 291.55 33.66 291.45 33.46 291.15C33.06 291.25 32.96 291.45 33.26 291.65Z" fill="#00C5A9"/>
<path d="M24.46 291.05C24.46 291.05 24.44 291.07 24.43 291.08C24.53 291.31 24.63 291.54 24.74 291.76C25.1 291.86 25.53 291.9 25.66 291.95C25.76 291.85 25.76 291.65 25.76 291.45C25.36 291.35 24.96 291.15 24.46 291.05Z" fill="#00C5A9"/>
<path d="M27.96 286.35C27.96 285.05 27.16 285.05 25.96 284.95C26.16 285.55 27.86 288.55 27.96 286.35Z" fill="#00C5A9"/>
<path d="M27.16 267.75C27.36 268.15 27.56 268.05 27.86 267.55C28.96 267.95 29.06 266.65 28.56 266.65C27.66 266.75 28.26 267.45 27.16 267.75Z" fill="#00C5A9"/>
<path d="M28.26 264.95C28.26 264.65 28.06 264.55 27.86 264.75C27.86 265.05 27.96 265.15 28.26 264.95Z" fill="#00C5A9"/>
<path d="M32.16 282.25C32.06 281.85 31.86 281.75 31.56 282.05C31.66 282.55 31.86 282.65 32.16 282.25Z" fill="#00C5A9"/>
<path d="M33.16 286.45C32.56 285.85 32.16 285.85 31.86 286.35C32.56 287.15 32.96 287.15 33.16 286.45Z" fill="#00C5A9"/>
<path d="M31.76 283.95C31.56 283.65 31.36 283.65 31.16 283.95C31.36 284.35 31.56 284.35 31.76 283.95Z" fill="#00C5A9"/>
<path d="M29.86 272.05C29.86 272.55 29.86 270.85 29.96 270.55C28.66 270.45 29.46 271.65 29.86 272.05Z" fill="#00C5A9"/>
<path d="M29.46 275.35C29.16 275.65 28.86 275.95 28.56 276.25C28.76 276.35 28.96 276.55 29.16 276.65C29.96 275.75 29.96 276.05 29.46 275.35Z" fill="#00C5A9"/>
<path d="M29.16 278.95C29.86 279.75 29.86 279.45 30.76 278.95C29.86 278.55 29.96 278.45 29.16 278.95Z" fill="#00C5A9"/>
<path d="M30.36 286.85C30.06 286.75 29.66 286.65 29.36 286.55C28.96 286.35 29.66 286.85 30.36 286.85Z" fill="#00C5A9"/>
<path d="M31.26 286.45C30.86 286.35 30.76 286.55 30.76 286.85C30.96 286.75 31.16 286.65 31.26 286.45Z" fill="#00C5A9"/>
<path d="M30.76 267.45C29.26 267.15 25.76 273.15 27.86 273.65C27.56 273.35 27.36 272.95 27.26 272.55C28.67 272.46 28.59 270.42 29.32 269.35C29.15 269.85 32.59 267.82 30.76 267.45Z" fill="#00C5A9"/>
<path d="M26.76 282.85C27.06 283.35 27.36 283.35 27.66 282.85C27.26 282.45 26.96 282.45 26.76 282.85Z" fill="#00C5A9"/>
<path d="M27.46 280.95C27.76 280.65 27.96 280.45 28.16 280.15C27.26 279.75 26.86 279.95 27.46 280.95Z" fill="#00C5A9"/>
<path d="M35.26 266.15C34.86 265.75 34.36 265.75 33.86 266.15C34.76 266.55 34.66 266.85 35.26 266.15Z" fill="#00C5A9"/>
<path d="M34.66 262.85C35.26 262.65 35.76 262.45 36.16 262.05C35.36 261.65 33.46 262.25 34.66 262.85Z" fill="#00C5A9"/>
<path d="M35.46 270.95C34.26 271.05 32.66 272.55 34.66 272.45C35.46 271.95 35.46 272.15 35.46 270.95Z" fill="#00C5A9"/>
<path d="M34.86 279.95C34.46 280.35 34.16 280.75 33.76 281.15C34.86 281.65 35.46 281.05 34.86 279.95Z" fill="#00C5A9"/>
<path d="M33.56 277.25C33.36 278.05 33.56 278.75 34.26 279.35C34.46 278.55 34.86 277.35 33.56 277.25Z" fill="#00C5A9"/>
<path d="M36.26 279.55C36.16 279.25 35.96 279.25 35.76 279.55C35.96 279.95 36.16 279.95 36.26 279.55Z" fill="#00C5A9"/>
<path d="M36.46 277.25C36.96 277.05 36.96 276.75 36.56 276.45C36.46 276.55 36.36 276.75 36.16 276.95C36.26 277.15 36.36 277.25 36.46 277.25Z" fill="#00C5A9"/>
<path d="M37.36 288.95C38.36 289.25 37.66 287.75 37.66 287.85C37.76 287.65 37.16 287.35 37.86 286.45C35.96 286.05 35.86 288.55 37.36 288.95Z" fill="#00C5A9"/>
<path d="M37.06 284.25C37.06 284.65 37.26 284.65 37.56 284.35C37.56 283.85 37.36 283.85 37.06 284.25Z" fill="#00C5A9"/>
<path d="M37.96 247.85C37.86 247.15 37.46 246.95 36.96 247.35C37.16 247.75 37.56 247.95 37.96 247.85Z" fill="#00C5A9"/>
<path d="M36.86 258.55C37.36 258.05 37.76 256.95 36.76 256.25C36.36 257.05 36.36 257.75 36.86 258.55Z" fill="#00C5A9"/>
<path d="M36.16 261.05C36.26 260.75 36.36 260.45 36.46 260.15C36.16 259.75 35.86 259.35 35.56 258.95C35.86 259.25 34.66 260.35 36.16 261.05Z" fill="#00C5A9"/>
<path d="M36.06 253.25C36.56 253.05 36.46 252.95 35.96 252.85C35.56 253.05 35.66 253.15 36.06 253.25Z" fill="#00C5A9"/>
<path d="M34.66 248.25C35.56 248.25 35.76 247.35 35.76 246.65C35.16 246.95 33.66 247.45 34.66 248.25Z" fill="#00C5A9"/>
<path d="M34.86 254.85C34.36 253.95 34.26 255.15 34.16 255.15C34.36 255.05 34.66 254.95 34.86 254.85Z" fill="#00C5A9"/>
<path d="M33.56 264.85C33.46 265.55 33.76 265.65 34.26 265.25C34.16 264.75 33.96 264.65 33.56 264.85Z" fill="#00C5A9"/>
<path d="M32.76 273.95C32.36 274.45 31.96 274.95 31.56 275.45C32.56 276.05 32.26 276.05 33.66 275.35C33.46 274.85 33.06 274.45 32.76 273.95Z" fill="#00C5A9"/>
<path d="M33.26 267.65C33.16 267.45 32.96 267.35 32.86 267.15C31.56 268.85 33.16 267.75 33.26 267.65Z" fill="#00C5A9"/>
<path d="M31.96 256.95C31.56 256.75 29.06 261.55 29.36 262.55C30.06 262.25 30.46 261.95 30.76 261.35C31.06 261.35 31.86 261.75 32.06 261.55C29.86 260.45 33.86 257.75 31.96 256.95Z" fill="#00C5A9"/>
<path d="M30.26 265.55C30.36 265.15 30.46 264.75 30.56 264.35C31.36 262.45 26.66 264.15 30.26 265.55Z" fill="#00C5A9"/>
<path d="M26.66 277.15C26.76 276.75 24.46 276.05 24.46 276.05C23.86 277.65 24.16 279.45 25.46 280.45C25.46 280.25 25.36 278.25 25.36 278.25C25.56 277.65 26.56 277.65 26.66 277.15Z" fill="#00C5A9"/>
<path d="M25.06 282.95C25.26 283.05 24.56 282.65 24.66 282.65C24.46 282.95 24.56 283.05 25.06 282.95Z" fill="#00C5A9"/>
<path d="M25.86 284.95C22.76 283.75 24.56 286.75 24.36 286.75C24.46 286.75 25.76 285.15 25.86 284.95Z" fill="#00C5A9"/>
<path d="M23.06 270.65C22.86 270.85 22.66 271.15 22.46 271.35C23.26 271.85 23.66 271.25 23.06 270.65Z" fill="#00C5A9"/>
<path d="M22.86 269.35H23.46C23.16 269.25 23.06 268.85 22.86 269.35Z" fill="#00C5A9"/>
<path d="M21.86 278.45C22.17 277.67 21.72 276.65 21 276C21 276.23 21 276.45 21.02 276.68C21.1 276.7 21.18 276.72 21.26 276.75C21.46 277.25 21.66 277.85 21.86 278.45Z" fill="#00C5A9"/>
<path d="M44.76 292.55C44.66 292.35 44.56 292.15 44.46 291.95C43.86 292.25 43.96 292.95 44.76 292.55Z" fill="#00C5A9"/>
<path d="M44.16 285.05C43.46 284.75 44.76 285.65 44.96 285.75C44.76 285.35 44.46 285.15 44.16 285.05Z" fill="#00C5A9"/>
<path d="M44.86 278.05C45.06 277.85 45.26 277.65 45.46 277.35C45.36 277.15 45.16 276.95 45.06 276.75C44.26 277.75 44.26 277.45 44.86 278.05Z" fill="#00C5A9"/>
<path d="M45.16 281.95C44.86 282.85 45.86 283.15 46.46 282.65C46.06 282.45 45.56 282.25 45.16 281.95Z" fill="#00C5A9"/>
<path d="M45.06 286.75C45.66 287.15 45.56 287.35 46.26 287.15C45.86 286.45 45.76 286.65 45.06 286.75Z" fill="#00C5A9"/>
<path d="M75.46 235.25C75.69 235.34 75.95 235.29 76.21 235.15C75.91 235.05 75.61 234.94 75.31 234.85C75.28 235.05 75.31 235.19 75.46 235.25Z" fill="#00C5A9"/>
<path d="M63.16 233.25C63.16 233.55 63.26 233.55 63.56 233.45C63.56 233.15 63.36 233.05 63.16 233.25Z" fill="#00C5A9"/>
<path d="M61.46 243.15C62.26 243.65 62.16 243.55 62.96 243.05C61.76 242.35 62.06 242.25 61.46 243.15Z" fill="#00C5A9"/>
<path d="M67.46 241.95C67.16 242.15 65.76 241.05 65.76 240.65C65.86 239.55 67.86 240.65 68.36 240.05C69.86 238.25 65.16 237.25 63.86 239.15C63.96 239.25 64.46 240.25 64.46 240.35C64.66 241.35 63.76 242.35 64.16 243.35C64.26 243.55 64.36 243.75 64.46 243.85C63.66 244.15 62.56 245.15 62.46 245.35C61.76 244.85 61.56 245.05 61.06 245.65C61.26 245.45 61.26 248.65 61.16 248.95C61.16 249.25 60.06 250.55 61.06 250.95C61.76 251.25 62.36 249.55 62.56 249.05C62.86 248.55 65.46 244.55 65.46 244.35C65.46 244.25 65.46 244.15 65.36 244.05C65.56 243.95 65.66 243.85 65.76 243.85C65.16 243.95 67.16 242.15 67.46 241.95Z" fill="#00C5A9"/>
<path d="M61.26 236.95C60.96 237.55 61.46 239.25 61.56 239.65C62.76 238.55 61.76 237.55 64.06 237.15C64.96 236.95 65.76 237.45 66.66 237.25C67.36 237.15 67.66 235.85 68.26 235.95C69.66 236.05 68.26 238.35 69.86 237.05C69.86 237.05 69.56 233.45 71.86 235.45C71.66 232.65 69.16 234.75 67.16 234.45C67.35 233.98 67.53 233.57 67.68 233.17C67.15 233.11 66.62 233.05 66.08 233C65.47 233.78 64.64 234.46 63.96 235.14C63.66 234.84 63.46 235.14 63.06 234.54C63.06 234.74 62.56 236.44 62.46 236.54C62.26 236.94 61.46 236.44 61.26 236.94V236.95Z" fill="#00C5A9"/>
<path d="M72.86 234.14C72.75 234.11 72.63 234.09 72.52 234.06C72.56 234.15 72.59 234.25 72.66 234.35C72.75 234.28 72.8 234.21 72.86 234.14Z" fill="#00C5A9"/>
<path d="M69.36 242.45C69.36 242.55 69.46 242.65 69.46 242.75C69.76 242.65 69.96 242.55 70.26 242.55C70.26 241.95 69.96 241.95 69.36 242.45Z" fill="#00C5A9"/>
<path d="M74.66 241.95C75.16 243.05 75.86 242.25 76.56 241.95C76.76 241.35 77.06 240.75 77.26 240.15C77.96 240.15 78.66 240.05 79.36 239.75C79.86 239.15 80.16 237.45 80.36 237.35C80.53 237.2 80.72 237.14 80.92 237.12C80.53 236.93 80.14 236.75 79.74 236.57C79.71 236.6 79.69 236.62 79.66 236.65C79.49 236.52 79.3 236.4 79.11 236.28C78.84 236.16 78.56 236.05 78.28 235.93C78 236.29 77.73 236.58 77.45 236.94C77.25 237.44 76.95 237.44 76.65 236.84C76.35 236.24 76.15 236.24 75.75 236.74C75.45 237.24 75.05 237.54 74.55 237.64C72.55 238.04 71.25 237.14 70.15 238.84C67.85 242.64 71.65 240.64 72.45 240.04C73.45 239.24 75.75 236.84 77.25 238.84C76.85 239.34 74.15 240.74 74.65 241.94L74.66 241.95Z" fill="#00C5A9"/>
<path d="M81.46 247.75C81.56 247.55 81.76 247.25 81.86 247.05C81.36 246.55 80.96 246.55 80.56 247.05C80.86 247.25 81.16 247.55 81.46 247.75Z" fill="#00C5A9"/>
<path d="M81.46 238.85C80.56 239.75 80.26 240.85 79.76 242.05C78.86 244.05 78.36 243.75 80.56 244.95C82.66 246.15 84.26 247.65 84.36 244.15C83.86 244.25 79.36 245.15 79.96 243.25C80.06 242.75 82.26 242.95 82.36 242.95C82.76 242.75 83.26 242.65 83.26 242.15C83.26 241.95 81.86 242.05 81.86 242.05C82.24 240.91 85.54 241.44 86.03 240.11C84.88 239.32 83.69 238.59 82.46 237.92C82.1 238.21 81.76 238.55 81.45 238.85H81.46Z" fill="#00C5A9"/>
<path d="M103.9 269.81C103.9 269.81 103.88 269.84 103.86 269.86C103.88 269.89 103.89 269.9 103.91 269.92C103.91 269.88 103.91 269.85 103.9 269.81Z" fill="#00C5A9"/>
<path d="M103.76 276.45C103.87 276.34 103.99 276.24 104.12 276.14C104.13 275.89 104.13 275.63 104.14 275.38C103.74 275.38 103.49 275.77 103.76 276.45Z" fill="#00C5A9"/>
<path d="M102.8 285.02C102.82 284.92 102.85 284.83 102.88 284.73C102.71 284.79 102.67 284.88 102.8 285.02Z" fill="#00C5A9"/>
<path d="M101.66 268.15C101.96 267.85 102.26 267.65 102.66 267.35C101.96 266.85 101.16 267.25 101.66 268.15Z" fill="#00C5A9"/>
<path d="M98.16 268.05C97.46 268.85 98.46 269.05 99.06 269.05C98.96 268.55 98.76 268.25 98.36 267.85C98.36 267.95 98.26 267.95 98.16 268.05Z" fill="#00C5A9"/>
<path d="M99.36 270.25C100.26 271.45 101.76 270.05 102.76 269.45C102.06 268.85 101.36 268.85 100.46 268.85C100.36 269.25 99.06 271.05 99.36 269.55C99.26 269.95 98.86 269.55 99.36 270.25Z" fill="#00C5A9"/>
<path d="M96.76 276.55C96.76 276.35 96.66 276.25 96.46 276.25C96.36 276.55 96.46 276.65 96.76 276.55Z" fill="#00C5A9"/>
<path d="M101.26 286.95C101.69 287.31 101.87 287.3 102.19 287.13C102.23 286.99 102.28 286.86 102.32 286.72C101.88 286.54 101.84 286.54 101.26 286.95Z" fill="#00C5A9"/>
<path d="M62.06 266.85C61.36 265.55 59.56 267.25 60.06 268.25V269.35C60.66 269.15 62.36 267.35 62.06 266.85Z" fill="#00C5A9"/>
<path d="M60.16 262.35C59.86 262.45 59.86 262.65 60.16 262.65C60.56 262.55 60.56 262.45 60.16 262.35Z" fill="#00C5A9"/>
<path d="M61.36 263.35C61.06 263.45 61.06 263.55 61.16 263.75C61.66 263.65 61.66 263.55 61.36 263.35Z" fill="#00C5A9"/>
<path d="M59.66 249.35C59.56 249.05 59.36 249.05 59.16 249.25C59.26 249.55 59.46 249.65 59.66 249.35Z" fill="#00C5A9"/>
<path d="M62.96 253.75C63.06 250.75 62.56 252.95 60.36 252.75C59.46 252.65 58.36 251.15 57.86 251.55C57.16 252.05 57.96 253.85 58.56 254.25C59.56 254.95 59.56 254.25 60.56 254.25C60.56 254.25 61.56 256.95 61.26 256.85C62.76 256.55 62.96 255.35 62.96 253.75Z" fill="#00C5A9"/>
<path d="M56.96 263.55C56.76 263.15 56.46 263.15 56.16 263.45C56.36 263.95 56.66 264.05 56.96 263.55Z" fill="#00C5A9"/>
<path d="M56.06 252.25C56.26 251.95 56.56 251.55 56.76 251.25C55.16 249.85 55.06 250.95 56.06 252.25Z" fill="#00C5A9"/>
<path d="M56.16 254.45C53.46 253.05 53.96 258.45 53.56 260.25C55.96 259.95 54.76 258.65 55.16 256.85C55.36 255.75 55.76 255.55 56.16 254.45Z" fill="#00C5A9"/>
<path d="M51.36 266.85C51.46 268.15 53.26 267.75 52.56 267.15C52.66 266.85 52.96 264.85 52.96 264.55C51.56 264.85 51.16 265.65 51.36 266.85Z" fill="#00C5A9"/>
<path d="M50.26 260.25C50.66 260.95 51.06 260.95 51.46 260.55C51.16 260.35 50.86 260.15 50.56 259.95L50.26 260.25Z" fill="#00C5A9"/>
<path d="M50.16 253.45C50.26 253.15 50.16 252.85 49.86 252.65C49.66 253.15 49.56 253.65 49.86 254.15C50.06 253.85 50.16 253.65 50.16 253.45Z" fill="#00C5A9"/>
<path d="M49.76 268.75C49.96 266.45 48.06 268.45 47.86 268.35C48.96 268.65 48.46 269.65 49.76 268.75Z" fill="#00C5A9"/>
<path d="M47.86 257.45C47.06 257.85 47.76 258.65 48.26 258.45C48.16 258.15 47.96 257.75 47.86 257.45Z" fill="#00C5A9"/>
<path d="M47.16 264.55C47.46 264.55 47.56 264.45 47.36 264.15C47.06 264.25 47.06 264.35 47.16 264.55Z" fill="#00C5A9"/>
<path d="M46.66 272.05C46.46 271.65 46.26 271.65 46.16 271.95C46.46 272.65 46.66 272.65 46.66 272.05Z" fill="#00C5A9"/>
<path d="M45.96 258.35C46.56 258.15 46.56 257.95 46.16 257.55C45.76 257.75 45.66 258.05 45.96 258.35Z" fill="#00C5A9"/>
<path d="M45.66 265.05C45.46 264.75 45.16 264.35 44.96 264.05C44.36 264.65 44.26 265.25 44.86 265.95C45.16 265.65 45.46 265.35 45.66 265.05Z" fill="#00C5A9"/>
<path d="M44.96 261.05C45.16 261.15 45.36 261.25 45.56 261.35C45.66 260.95 45.26 260.45 44.96 261.05Z" fill="#00C5A9"/>
<path d="M45.46 245.55C45.16 244.55 44.66 244.45 44.16 245.35C45.06 246.15 44.86 246.05 45.46 245.55Z" fill="#00C5A9"/>
<path d="M44.46 238.25C44.06 238.45 43.86 238.75 43.86 239.25C44.66 239.35 44.96 238.85 44.46 238.25Z" fill="#00C5A9"/>
<path d="M44.56 241.75C44.96 241.65 45.26 241.45 45.56 241.05C45.46 239.05 42.36 241.85 43.76 243.35C45.56 245.25 44.86 241.85 44.56 241.75Z" fill="#00C5A9"/>
<path d="M44.06 267.55C40.36 268.75 44.16 262.95 44.06 267.55V267.55Z" fill="#00C5A9"/>
<path d="M42.06 249.75C41.96 249.15 41.76 249.15 41.46 249.55C41.46 250.15 41.66 250.25 42.06 249.75Z" fill="#00C5A9"/>
<path d="M42.26 251.45C41.96 250.95 41.66 250.95 41.46 251.25C41.66 251.95 41.86 252.05 42.26 251.45Z" fill="#00C5A9"/>
<path d="M41.96 254.15C41.76 254.25 41.56 254.35 41.36 254.45C41.86 254.85 42.06 254.05 41.96 254.15Z" fill="#00C5A9"/>
<path d="M41.66 287.05C41.36 286.85 41.16 286.55 40.86 286.35C40.66 286.85 41.16 287.75 41.66 287.05Z" fill="#00C5A9"/>
<path d="M40.66 280.05C40.66 280.35 40.86 280.45 41.06 280.25C41.06 279.95 40.96 279.85 40.66 280.05Z" fill="#00C5A9"/>
<path d="M40.16 283.55C40.06 283.35 39.96 283.25 39.86 283.05C39.86 283.05 39.66 283.75 40.16 283.55Z" fill="#00C5A9"/>
<path d="M38.96 250.35C38.56 250.55 38.66 250.85 39.16 251.15C39.86 251.05 39.76 250.85 38.96 250.35Z" fill="#00C5A9"/>
<path d="M38.96 244.15V243.65C38.76 243.75 38.76 243.95 38.96 244.15Z" fill="#00C5A9"/>
<path d="M38.06 242.15C37.66 241.75 37.66 244.55 38.86 243.55C38.76 242.95 38.56 242.45 38.06 242.15Z" fill="#00C5A9"/>
<path d="M33.26 247.25C33.76 247.15 33.36 245.75 33.46 245.45C33.56 245.45 34.56 245.85 34.46 245.95C34.06 246.15 36.56 245.35 35.86 245.15C36.96 245.35 36.96 247.05 38.26 246.05C37.68 245.41 36.56 243.66 35.58 242.8C35.43 242.93 35.28 243.06 35.13 243.19C34.12 244.65 32.64 244.81 32.46 246.85C32.36 247.45 33.06 247.25 33.26 247.25Z" fill="#00C5A9"/>
<path d="M29.16 251.35C29.46 252.05 29.76 251.95 30.16 252.55C30.46 253.05 29.96 253.85 30.76 254.05C30.86 254.05 33.16 252.65 33.26 252.85C33.16 252.25 31.66 252.45 31.26 251.95C30.86 251.35 31.46 249.75 31.56 249.15C30.76 249.25 30.16 249.55 29.76 250.25C29.86 248.85 30.86 248.95 31.66 248.15C31.31 247.93 30.93 247.87 30.55 247.89C30.12 248.4 29.71 248.93 29.31 249.46C29.81 249.58 29.25 251.6 29.16 251.35Z" fill="#00C5A9"/>
<path d="M28.56 250.49C28.34 250.8 28.12 251.11 27.91 251.42C28.4 251.25 28.5 250.87 28.56 250.49Z" fill="#00C5A9"/>
</g>
<defs>
<clipPath id="clip0_110_10428">
<rect width="256" height="349" fill="white" transform="translate(40 100)"/>
</clipPath>
</defs>
</svg>
