<svg width="39" height="38" viewBox="0 0 39 38" fill="none" xmlns="http://www.w3.org/2000/svg">
<circle cx="19.5" cy="19" r="19" transform="rotate(90 19.5 19)" fill="#19243C"/>
<path fill-rule="evenodd" clip-rule="evenodd" d="M24.037 20.485C22.658 23.1909 20.9317 25.7072 18.9026 27.9767C18.6126 28.2515 18.2233 28.4016 17.8276 28.4016C16.3214 28.2578 14.8712 27.7795 13.5838 26.987C13.365 26.9094 13.2021 26.7185 13.1665 26.4934C13.2161 26.2224 13.351 25.968 13.5494 25.7861C15.0264 24.1107 16.399 22.3373 17.6508 20.485C17.806 20.2522 17.9129 19.9825 17.9472 19.7065C17.9129 19.447 17.8137 19.2053 17.6508 19.0004C16.427 17.1138 15.0696 15.3201 13.5838 13.6307C13.379 13.4463 13.2301 13.1995 13.1665 12.9247C13.1958 12.6626 13.365 12.4438 13.613 12.3586C15.0124 11.7301 16.4906 11.2989 18.0108 11.0864C18.4357 11.0572 18.8454 11.2493 19.1074 11.5813C20.9749 13.8979 22.6224 16.3785 24.037 19.0004C24.1858 19.2345 24.2558 19.5029 24.2494 19.779C24.2202 20.0258 24.1502 20.2662 24.037 20.485Z" fill="white"/>
</svg>
