<svg width="605" height="100" viewBox="0 0 605 100" fill="none" xmlns="http://www.w3.org/2000/svg">
<path d="M34.2368 79.5556L36.9428 72.3333H27.5306L22.7069 84.7778C21.4127 88 18.3537 90 15.0595 90C10.5887 90 6.70618 86.4444 6.70618 82.2222C6.70618 81.4444 6.82383 80.4444 7.17679 79.5556L9.88279 72.3333H7.6474C3.41192 72.3333 0 69.1111 0 65.1111C0 61.1111 3.41192 57.8889 7.6474 57.8889H15.5301L21.648 42.1111H18.942C14.7065 42.1111 11.2946 38.8889 11.2946 34.8889C11.2946 30.8889 14.7065 27.6667 18.942 27.6667H27.1777L32.0014 15.2222C33.2956 12 36.3545 10 39.6488 10C44.0019 10 48.0021 13.3333 48.0021 17.7778C48.0021 18.6667 47.8845 19.5556 47.5315 20.4444L44.7079 27.6667H54.2377L59.0614 15.2222C60.3556 12 63.4146 10 66.7088 10C71.0619 10 75.0621 13.3333 75.0621 17.7778C75.0621 18.6667 74.9445 19.5556 74.5915 20.4444L71.7679 27.6667H74.1209C78.3564 27.6667 81.7683 30.8889 81.7683 34.8889C81.7683 38.8889 78.3564 42.1111 74.1209 42.1111H66.2382L60.1203 57.8889H62.8263C67.0618 57.8889 70.4737 61.1111 70.4737 65.1111C70.4737 69.1111 67.0618 72.3333 62.8263 72.3333H54.5906L49.7669 84.7778C48.4727 88 45.4138 90 42.1195 90C37.6487 90 33.7662 86.4444 33.7662 82.2222C33.7662 81.4444 33.8838 80.4444 34.2368 79.5556ZM39.1782 42.1111L33.0603 57.8889H42.5901L48.708 42.1111H39.1782Z" fill="url(#paint0_linear_299_16870)"/>
<path d="M89.9828 81.6667V18.3333C89.9828 13.7778 93.983 10 98.8067 10C103.63 10 107.631 13.7778 107.631 18.3333V81.6667C107.631 86.2222 103.63 90 98.8067 90C93.983 90 89.9828 86.2222 89.9828 81.6667Z" fill="url(#paint1_linear_299_16870)"/>
<path d="M150.754 90C132.518 90 119.341 77 119.341 60.5556C119.341 44.1111 132.518 31.1111 150.754 31.1111C160.637 31.1111 168.99 35.1111 172.99 39.6667C174.52 41.3333 175.343 43.3333 175.343 44.8889C175.343 49.2222 171.814 52.2222 167.225 52.2222C163.931 52.2222 162.284 50.5556 160.166 48.8889C158.048 47.2222 155.225 45.5556 150.754 45.5556C142.401 45.5556 135.93 52.2222 135.93 60.5556C135.93 68.8889 142.401 75.5556 150.754 75.5556C154.872 75.5556 157.931 74 160.048 72.3333C162.166 70.6667 163.931 68.7778 167.225 68.7778C171.814 68.7778 175.343 71.8889 175.343 76.2222C175.343 77.7778 174.52 79.6667 172.99 81.3333C168.99 85.8889 160.872 90 150.754 90Z" fill="url(#paint2_linear_299_16870)"/>
<path d="M215.44 90C197.321 90 184.026 77.1111 184.026 60.5556C184.026 44.1111 197.204 31.1111 215.44 31.1111C225.087 31.1111 232.382 34.8889 235.676 37.7778C237.558 39.3333 238.617 41.5556 238.617 43.7778C238.617 45.6667 238.029 47.3333 236.382 49.2222L221.205 66.3333C219.557 68.1111 217.793 68.8889 215.557 68.8889C211.086 68.8889 207.675 65.8889 207.675 61.7778C207.675 60.1111 208.145 58.4444 209.439 57.1111L219.557 46.1111C218.734 45.7778 216.734 45.5556 215.44 45.5556C207.086 45.5556 200.615 52.2222 200.615 60.5556C200.615 68.8889 206.969 75.5556 215.44 75.5556C219.793 75.5556 222.734 73.8889 224.734 72.3333C227.087 70.4444 228.734 68.7778 231.911 68.7778C236.499 68.7778 240.029 71.8889 240.029 76.2222C240.029 77.7778 239.205 79.6667 237.676 81.3333C233.676 85.8889 225.558 90 215.44 90Z" fill="url(#paint3_linear_299_16870)"/>
<path d="M309.653 90C291.417 90 278.24 77 278.24 60.5556C278.24 44.1111 291.417 31.1111 309.653 31.1111C319.536 31.1111 327.889 35.1111 331.89 39.6667C333.419 41.3333 334.243 43.3333 334.243 44.8889C334.243 49.2222 330.713 52.2222 326.125 52.2222C322.83 52.2222 321.183 50.5556 319.066 48.8889C316.948 47.2222 314.124 45.5556 309.653 45.5556C301.3 45.5556 294.829 52.2222 294.829 60.5556C294.829 68.8889 301.3 75.5556 309.653 75.5556C313.771 75.5556 316.83 74 318.948 72.3333C321.066 70.6667 322.83 68.7778 326.125 68.7778C330.713 68.7778 334.243 71.8889 334.243 76.2222C334.243 77.7778 333.419 79.6667 331.89 81.3333C327.889 85.8889 319.771 90 309.653 90Z" fill="url(#paint4_linear_299_16870)"/>
<path d="M345.394 82.2222V59.2222C345.394 42 358.1 31.1111 373.983 31.1111C378.219 31.1111 381.631 34.3333 381.631 38.3333C381.631 42.3333 378.219 45.5556 373.983 45.5556C367.277 45.5556 361.865 50 361.865 59.2222V82.2222C361.865 86.5556 358.218 90 353.63 90C349.041 90 345.394 86.5556 345.394 82.2222Z" fill="url(#paint5_linear_299_16870)"/>
<path d="M417.195 90C399.076 90 385.782 77.1111 385.782 60.5556C385.782 44.1111 398.959 31.1111 417.195 31.1111C426.842 31.1111 434.137 34.8889 437.431 37.7778C439.313 39.3333 440.372 41.5556 440.372 43.7778C440.372 45.6667 439.784 47.3333 438.137 49.2222L422.96 66.3333C421.313 68.1111 419.548 68.8889 417.312 68.8889C412.842 68.8889 409.43 65.8889 409.43 61.7778C409.43 60.1111 409.9 58.4444 411.195 57.1111L421.313 46.1111C420.489 45.7778 418.489 45.5556 417.195 45.5556C408.842 45.5556 402.371 52.2222 402.371 60.5556C402.371 68.8889 408.724 75.5556 417.195 75.5556C421.548 75.5556 424.489 73.8889 426.489 72.3333C428.842 70.4444 430.49 68.7778 433.666 68.7778C438.255 68.7778 441.784 71.8889 441.784 76.2222C441.784 77.7778 440.961 79.6667 439.431 81.3333C435.431 85.8889 427.313 90 417.195 90Z" fill="url(#paint6_linear_299_16870)"/>
<path d="M476.655 90C460.066 90 447.595 77 447.595 60.5556C447.595 44.1111 460.066 31.1111 476.655 31.1111C483.126 31.1111 489.126 33.2222 493.95 36.6667C495.009 33.4444 498.186 31.1111 501.95 31.1111C506.539 31.1111 510.186 34.5556 510.186 38.8889V82.2222C510.186 86.5556 506.539 90 501.95 90C498.186 90 495.009 87.6667 493.95 84.4444C489.126 88 483.126 90 476.655 90ZM479.008 75.5556C487.244 75.5556 493.715 69.2222 493.715 60.5556C493.715 52 487.244 45.5556 479.008 45.5556C470.655 45.5556 464.184 52 464.184 60.5556C464.184 69.2222 470.655 75.5556 479.008 75.5556Z" fill="url(#paint7_linear_299_16870)"/>
<path d="M524.285 82.2222V54.3333C524.285 40.3333 534.403 31.1111 547.227 31.1111C554.051 31.1111 560.051 33.2222 564.287 39.4444C568.405 33.2222 574.522 31.1111 581.346 31.1111C594.17 31.1111 604.288 40.3333 604.288 54.3333V82.2222C604.288 86.5556 600.641 90 596.053 90C591.464 90 587.817 86.5556 587.817 82.2222V54.1111C587.817 48.3333 584.405 45.5556 580.17 45.5556C575.934 45.5556 572.522 48.3333 572.522 54.1111V82.2222C572.522 86.5556 568.875 90 564.287 90C559.698 90 556.051 86.5556 556.051 82.2222V54.1111C556.051 48.3333 552.639 45.5556 548.404 45.5556C544.168 45.5556 540.756 48.3333 540.756 54.1111V82.2222C540.756 86.5556 537.109 90 532.521 90C527.932 90 524.285 86.5556 524.285 82.2222Z" fill="url(#paint8_linear_299_16870)"/>
<defs>
<linearGradient id="paint0_linear_299_16870" x1="353.913" y1="73.8596" x2="260.108" y2="-34.5785" gradientUnits="userSpaceOnUse">
<stop offset="0.3125" stop-color="#00D6E9"/>
<stop offset="0.510417" stop-color="#6181EE"/>
<stop offset="0.807292" stop-color="#FF5CBE"/>
</linearGradient>
<linearGradient id="paint1_linear_299_16870" x1="353.913" y1="73.8596" x2="260.108" y2="-34.5785" gradientUnits="userSpaceOnUse">
<stop offset="0.3125" stop-color="#00D6E9"/>
<stop offset="0.510417" stop-color="#6181EE"/>
<stop offset="0.807292" stop-color="#FF5CBE"/>
</linearGradient>
<linearGradient id="paint2_linear_299_16870" x1="353.913" y1="73.8596" x2="260.108" y2="-34.5785" gradientUnits="userSpaceOnUse">
<stop offset="0.3125" stop-color="#00D6E9"/>
<stop offset="0.510417" stop-color="#6181EE"/>
<stop offset="0.807292" stop-color="#FF5CBE"/>
</linearGradient>
<linearGradient id="paint3_linear_299_16870" x1="353.913" y1="73.8596" x2="260.108" y2="-34.5785" gradientUnits="userSpaceOnUse">
<stop offset="0.3125" stop-color="#00D6E9"/>
<stop offset="0.510417" stop-color="#6181EE"/>
<stop offset="0.807292" stop-color="#FF5CBE"/>
</linearGradient>
<linearGradient id="paint4_linear_299_16870" x1="353.913" y1="73.8596" x2="260.108" y2="-34.5785" gradientUnits="userSpaceOnUse">
<stop offset="0.3125" stop-color="#00D6E9"/>
<stop offset="0.510417" stop-color="#6181EE"/>
<stop offset="0.807292" stop-color="#FF5CBE"/>
</linearGradient>
<linearGradient id="paint5_linear_299_16870" x1="353.913" y1="73.8596" x2="260.108" y2="-34.5785" gradientUnits="userSpaceOnUse">
<stop offset="0.3125" stop-color="#00D6E9"/>
<stop offset="0.510417" stop-color="#6181EE"/>
<stop offset="0.807292" stop-color="#FF5CBE"/>
</linearGradient>
<linearGradient id="paint6_linear_299_16870" x1="353.913" y1="73.8596" x2="260.108" y2="-34.5785" gradientUnits="userSpaceOnUse">
<stop offset="0.3125" stop-color="#00D6E9"/>
<stop offset="0.510417" stop-color="#6181EE"/>
<stop offset="0.807292" stop-color="#FF5CBE"/>
</linearGradient>
<linearGradient id="paint7_linear_299_16870" x1="353.913" y1="73.8596" x2="260.108" y2="-34.5785" gradientUnits="userSpaceOnUse">
<stop offset="0.3125" stop-color="#00D6E9"/>
<stop offset="0.510417" stop-color="#6181EE"/>
<stop offset="0.807292" stop-color="#FF5CBE"/>
</linearGradient>
<linearGradient id="paint8_linear_299_16870" x1="353.913" y1="73.8596" x2="260.108" y2="-34.5785" gradientUnits="userSpaceOnUse">
<stop offset="0.3125" stop-color="#00D6E9"/>
<stop offset="0.510417" stop-color="#6181EE"/>
<stop offset="0.807292" stop-color="#FF5CBE"/>
</linearGradient>
</defs>
</svg>
