<svg width="436" height="138" viewBox="0 0 436 138" fill="none" xmlns="http://www.w3.org/2000/svg">
<path d="M23.8866 50.28L25.7266 45.08H19.3266L16.0466 54.04C15.1666 56.36 13.0866 57.8 10.8466 57.8C7.80656 57.8 5.16656 55.24 5.16656 52.2C5.16656 51.64 5.24656 50.92 5.48656 50.28L7.32656 45.08H5.80656C2.92656 45.08 0.606563 42.76 0.606563 39.88C0.606563 37 2.92656 34.68 5.80656 34.68H11.1666L15.3266 23.32H13.4866C10.6066 23.32 8.28656 21 8.28656 18.12C8.28656 15.24 10.6066 12.92 13.4866 12.92H19.0866L22.3666 3.96C23.2466 1.64 25.3266 0.199997 27.5666 0.199997C30.5266 0.199997 33.2466 2.6 33.2466 5.8C33.2466 6.44 33.1666 7.08 32.9266 7.72L31.0066 12.92H37.4866L40.7666 3.96C41.6466 1.64 43.7266 0.199997 45.9666 0.199997C48.9266 0.199997 51.6466 2.6 51.6466 5.8C51.6466 6.44 51.5666 7.08 51.3266 7.72L49.4066 12.92H51.0066C53.8866 12.92 56.2066 15.24 56.2066 18.12C56.2066 21 53.8866 23.32 51.0066 23.32H45.6466L41.4866 34.68H43.3266C46.2066 34.68 48.5266 37 48.5266 39.88C48.5266 42.76 46.2066 45.08 43.3266 45.08H37.7266L34.4466 54.04C33.5666 56.36 31.4866 57.8 29.2466 57.8C26.2066 57.8 23.5666 55.24 23.5666 52.2C23.5666 51.64 23.6466 50.92 23.8866 50.28ZM27.2466 23.32L23.0866 34.68H29.5666L33.7266 23.32H27.2466ZM61.7922 51.8V6.2C61.7922 2.92 64.5122 0.199997 67.7922 0.199997C71.0722 0.199997 73.7922 2.92 73.7922 6.2V23.4H92.9922V6.2C92.9922 2.92 95.7122 0.199997 98.9922 0.199997C102.272 0.199997 104.992 2.92 104.992 6.2V51.8C104.992 55.08 102.272 57.8 98.9922 57.8C95.7122 57.8 92.9922 55.08 92.9922 51.8V34.6H73.7922V51.8C73.7922 55.08 71.0722 57.8 67.7922 57.8C64.5122 57.8 61.7922 55.08 61.7922 51.8ZM134.365 57.8C122.045 57.8 113.005 48.52 113.005 36.6C113.005 24.76 121.965 15.4 134.365 15.4C140.925 15.4 145.885 18.12 148.125 20.2C149.405 21.32 150.125 22.92 150.125 24.52C150.125 25.88 149.725 27.08 148.605 28.44L138.285 40.76C137.165 42.04 135.965 42.6 134.445 42.6C131.405 42.6 129.085 40.44 129.085 37.48C129.085 36.28 129.405 35.08 130.285 34.12L137.165 26.2C136.605 25.96 135.245 25.8 134.365 25.8C128.685 25.8 124.285 30.6 124.285 36.6C124.285 42.6 128.605 47.4 134.365 47.4C137.325 47.4 139.325 46.2 140.685 45.08C142.285 43.72 143.405 42.52 145.565 42.52C148.685 42.52 151.085 44.76 151.085 47.88C151.085 49 150.525 50.36 149.485 51.56C146.765 54.84 141.245 57.8 134.365 57.8ZM158.667 52.2V5.8C158.667 2.68 161.147 0.199997 164.267 0.199997C167.387 0.199997 169.867 2.68 169.867 5.8V52.2C169.867 55.32 167.387 57.8 164.267 57.8C161.147 57.8 158.667 55.32 158.667 52.2ZM179.448 52.2V5.8C179.448 2.68 181.928 0.199997 185.048 0.199997C188.168 0.199997 190.648 2.68 190.648 5.8V52.2C190.648 55.32 188.168 57.8 185.048 57.8C181.928 57.8 179.448 55.32 179.448 52.2ZM219.99 57.8C207.59 57.8 198.63 48.44 198.63 36.6C198.63 24.76 207.59 15.4 219.99 15.4C232.39 15.4 241.35 24.76 241.35 36.6C241.35 48.44 232.39 57.8 219.99 57.8ZM219.99 47.4C225.83 47.4 229.99 42.44 229.99 36.6C229.99 30.76 225.83 25.8 219.99 25.8C214.15 25.8 209.91 30.76 209.91 36.6C209.91 42.44 214.15 47.4 219.99 47.4ZM296.65 57.8C280.49 57.8 267.77 45.08 267.77 29C267.77 12.92 280.49 0.199997 296.65 0.199997C305.05 0.199997 312.33 3.64 317.21 8.68C318.25 9.8 318.81 11.4 318.81 12.76C318.81 16.04 316.09 18.68 312.81 18.68C311.21 18.68 309.61 17.8 308.01 16.36C305.05 13.64 301.29 11.8 296.65 11.8C287.45 11.8 280.17 19.4 280.17 29C280.17 38.6 287.45 46.2 296.65 46.2C301.29 46.2 305.05 44.36 308.01 41.64C309.61 40.2 311.21 39.32 312.81 39.32C316.09 39.32 318.81 41.96 318.81 45.24C318.81 46.6 318.25 48.2 317.21 49.32C312.33 54.36 305.05 57.8 296.65 57.8ZM345.771 57.8C333.371 57.8 324.411 48.44 324.411 36.6C324.411 24.76 333.371 15.4 345.771 15.4C358.171 15.4 367.131 24.76 367.131 36.6C367.131 48.44 358.171 57.8 345.771 57.8ZM345.771 47.4C351.611 47.4 355.771 42.44 355.771 36.6C355.771 30.76 351.611 25.8 345.771 25.8C339.931 25.8 335.691 30.76 335.691 36.6C335.691 42.44 339.931 47.4 345.771 47.4ZM394.912 57.8C382.512 57.8 373.552 48.44 373.552 36.6C373.552 24.76 382.512 15.4 394.912 15.4C407.312 15.4 416.272 24.76 416.272 36.6C416.272 48.44 407.312 57.8 394.912 57.8ZM394.912 47.4C400.752 47.4 404.912 42.44 404.912 36.6C404.912 30.76 400.752 25.8 394.912 25.8C389.072 25.8 384.832 30.76 384.832 36.6C384.832 42.44 389.072 47.4 394.912 47.4ZM424.292 52.2V5.8C424.292 2.68 426.772 0.199997 429.892 0.199997C433.012 0.199997 435.492 2.68 435.492 5.8V52.2C435.492 55.32 433.012 57.8 429.892 57.8C426.772 57.8 424.292 55.32 424.292 52.2ZM95.4578 137.8C84.9778 137.8 77.4578 129.96 77.4578 125C77.4578 121.72 80.1778 119 83.4578 119C85.8578 119 87.2978 120.28 88.3378 121.72C89.9378 123.88 91.1378 126.6 95.4578 126.6C99.0578 126.6 101.858 123.8 101.858 120.2C101.858 116.44 98.4978 115.16 94.3378 113.8L90.2578 112.44C84.1778 110.44 77.8578 106.68 77.8578 96.12C77.8578 87.08 85.6178 80.2 95.4578 80.2C106.018 80.2 112.578 87.88 112.578 92.12C112.578 95.4 109.858 98.12 106.578 98.12C104.258 98.12 103.058 97 101.938 95.64C100.418 93.72 99.1378 91.4 95.4578 91.4C92.3378 91.4 89.8578 93.88 89.8578 96.92C89.8578 100.2 92.8978 101.8 96.1778 102.84L99.6178 103.96C106.338 106.12 113.858 109.4 113.858 121C113.858 130.6 105.778 137.8 95.4578 137.8ZM121.87 119V101C121.87 97.88 124.35 95.4 127.47 95.4C130.59 95.4 133.07 97.88 133.07 101V119.4C133.07 124.6 136.27 127.4 140.27 127.4C144.27 127.4 147.47 124.6 147.47 119.4V101C147.47 97.88 149.95 95.4 153.07 95.4C156.19 95.4 158.67 97.88 158.67 101V119C158.67 130.28 150.59 137.8 140.27 137.8C129.95 137.8 121.87 130.28 121.87 119ZM168.277 132.2V112.12C168.277 102.04 175.157 95.4 183.877 95.4C188.517 95.4 192.597 96.92 195.477 101.4C198.277 96.92 202.437 95.4 207.077 95.4C215.797 95.4 222.677 102.04 222.677 112.12V132.2C222.677 135.32 220.197 137.8 217.077 137.8C213.957 137.8 211.477 135.32 211.477 132.2V111.96C211.477 107.8 209.157 105.8 206.277 105.8C203.397 105.8 201.077 107.8 201.077 111.96V132.2C201.077 135.32 198.597 137.8 195.477 137.8C192.357 137.8 189.877 135.32 189.877 132.2V111.96C189.877 107.8 187.557 105.8 184.677 105.8C181.797 105.8 179.477 107.8 179.477 111.96V132.2C179.477 135.32 176.997 137.8 173.877 137.8C170.757 137.8 168.277 135.32 168.277 132.2ZM232.261 132.2V112.12C232.261 102.04 239.141 95.4 247.861 95.4C252.501 95.4 256.581 96.92 259.461 101.4C262.261 96.92 266.421 95.4 271.061 95.4C279.781 95.4 286.661 102.04 286.661 112.12V132.2C286.661 135.32 284.181 137.8 281.061 137.8C277.941 137.8 275.461 135.32 275.461 132.2V111.96C275.461 107.8 273.141 105.8 270.261 105.8C267.381 105.8 265.061 107.8 265.061 111.96V132.2C265.061 135.32 262.581 137.8 259.461 137.8C256.341 137.8 253.861 135.32 253.861 132.2V111.96C253.861 107.8 251.541 105.8 248.661 105.8C245.781 105.8 243.461 107.8 243.461 111.96V132.2C243.461 135.32 240.981 137.8 237.861 137.8C234.741 137.8 232.261 135.32 232.261 132.2ZM316.005 137.8C303.685 137.8 294.645 128.52 294.645 116.6C294.645 104.76 303.605 95.4 316.005 95.4C322.565 95.4 327.525 98.12 329.765 100.2C331.045 101.32 331.765 102.92 331.765 104.52C331.765 105.88 331.365 107.08 330.245 108.44L319.925 120.76C318.805 122.04 317.605 122.6 316.085 122.6C313.045 122.6 310.725 120.44 310.725 117.48C310.725 116.28 311.045 115.08 311.925 114.12L318.805 106.2C318.245 105.96 316.885 105.8 316.005 105.8C310.325 105.8 305.925 110.6 305.925 116.6C305.925 122.6 310.245 127.4 316.005 127.4C318.965 127.4 320.965 126.2 322.325 125.08C323.925 123.72 325.045 122.52 327.205 122.52C330.325 122.52 332.725 124.76 332.725 127.88C332.725 129 332.165 130.36 331.125 131.56C328.405 134.84 322.885 137.8 316.005 137.8ZM340.308 132.2V115.64C340.308 103.24 348.948 95.4 359.748 95.4C362.628 95.4 364.948 97.72 364.948 100.6C364.948 103.48 362.628 105.8 359.748 105.8C355.188 105.8 351.508 109 351.508 115.64V132.2C351.508 135.32 349.028 137.8 345.908 137.8C342.788 137.8 340.308 135.32 340.308 132.2Z" fill="url(#paint0_linear_302_3095)"/>
<defs>
<linearGradient id="paint0_linear_302_3095" x1="220" y1="-7" x2="220" y2="153" gradientUnits="userSpaceOnUse">
<stop stop-color="white"/>
<stop offset="0.276042" stop-color="#6DEEFA"/>
<stop offset="0.786458" stop-color="#04D9BE"/>
<stop offset="1" stop-color="#10B896"/>
</linearGradient>
</defs>
</svg>
