<svg width="620" height="197" viewBox="0 0 620 197" fill="none" xmlns="http://www.w3.org/2000/svg">
<path d="M33.428 71.424L36.05 64.014H26.93L22.256 76.782C21.002 80.088 18.038 82.14 14.846 82.14C10.514 82.14 6.752 78.492 6.752 74.16C6.752 73.362 6.866 72.336 7.208 71.424L9.83 64.014H7.664C3.56 64.014 0.254 60.708 0.254 56.604C0.254 52.5 3.56 49.194 7.664 49.194H15.302L21.23 33.006H18.608C14.504 33.006 11.198 29.7 11.198 25.596C11.198 21.492 14.504 18.186 18.608 18.186H26.588L31.262 5.41799C32.516 2.112 35.48 0.0599957 38.672 0.0599957C42.89 0.0599957 46.766 3.48 46.766 8.03999C46.766 8.952 46.652 9.864 46.31 10.776L43.574 18.186H52.808L57.482 5.41799C58.736 2.112 61.7 0.0599957 64.892 0.0599957C69.11 0.0599957 72.986 3.48 72.986 8.03999C72.986 8.952 72.872 9.864 72.53 10.776L69.794 18.186H72.074C76.178 18.186 79.484 21.492 79.484 25.596C79.484 29.7 76.178 33.006 72.074 33.006H64.436L58.508 49.194H61.13C65.234 49.194 68.54 52.5 68.54 56.604C68.54 60.708 65.234 64.014 61.13 64.014H53.15L48.476 76.782C47.222 80.088 44.258 82.14 41.066 82.14C36.734 82.14 32.972 78.492 32.972 74.16C32.972 73.362 33.086 72.336 33.428 71.424ZM38.216 33.006L32.288 49.194H41.522L47.45 33.006H38.216ZM87.4435 73.59V8.60999C87.4435 3.93599 91.3195 0.0599957 95.9935 0.0599957C100.668 0.0599957 104.544 3.93599 104.544 8.60999V33.12H131.904V8.60999C131.904 3.93599 135.78 0.0599957 140.454 0.0599957C145.128 0.0599957 149.004 3.93599 149.004 8.60999V73.59C149.004 78.264 145.128 82.14 140.454 82.14C135.78 82.14 131.904 78.264 131.904 73.59V49.08H104.544V73.59C104.544 78.264 100.668 82.14 95.9935 82.14C91.3195 82.14 87.4435 78.264 87.4435 73.59ZM190.859 82.14C173.303 82.14 160.421 68.916 160.421 51.93C160.421 35.058 173.189 21.72 190.859 21.72C200.207 21.72 207.275 25.596 210.467 28.56C212.291 30.156 213.317 32.436 213.317 34.716C213.317 36.654 212.747 38.364 211.151 40.302L196.445 57.858C194.849 59.682 193.139 60.48 190.973 60.48C186.641 60.48 183.335 57.402 183.335 53.184C183.335 51.474 183.791 49.764 185.045 48.396L194.849 37.11C194.051 36.768 192.113 36.54 190.859 36.54C182.765 36.54 176.495 43.38 176.495 51.93C176.495 60.48 182.651 67.32 190.859 67.32C195.077 67.32 197.927 65.61 199.865 64.014C202.145 62.076 203.741 60.366 206.819 60.366C211.265 60.366 214.685 63.558 214.685 68.004C214.685 69.6 213.887 71.538 212.405 73.248C208.529 77.922 200.663 82.14 190.859 82.14ZM225.49 74.16V8.03999C225.49 3.594 229.024 0.0599957 233.47 0.0599957C237.916 0.0599957 241.45 3.594 241.45 8.03999V74.16C241.45 78.606 237.916 82.14 233.47 82.14C229.024 82.14 225.49 78.606 225.49 74.16ZM255.104 74.16V8.03999C255.104 3.594 258.638 0.0599957 263.084 0.0599957C267.53 0.0599957 271.064 3.594 271.064 8.03999V74.16C271.064 78.606 267.53 82.14 263.084 82.14C258.638 82.14 255.104 78.606 255.104 74.16ZM312.875 82.14C295.205 82.14 282.437 68.802 282.437 51.93C282.437 35.058 295.205 21.72 312.875 21.72C330.545 21.72 343.313 35.058 343.313 51.93C343.313 68.802 330.545 82.14 312.875 82.14ZM312.875 67.32C321.197 67.32 327.125 60.252 327.125 51.93C327.125 43.608 321.197 36.54 312.875 36.54C304.553 36.54 298.511 43.608 298.511 51.93C298.511 60.252 304.553 67.32 312.875 67.32ZM422.116 82.14C399.088 82.14 380.962 64.014 380.962 41.1C380.962 18.186 399.088 0.0599957 422.116 0.0599957C434.086 0.0599957 444.46 4.96199 451.414 12.144C452.896 13.74 453.694 16.02 453.694 17.958C453.694 22.632 449.818 26.394 445.144 26.394C442.864 26.394 440.584 25.14 438.304 23.088C434.086 19.212 428.728 16.59 422.116 16.59C409.006 16.59 398.632 27.42 398.632 41.1C398.632 54.78 409.006 65.61 422.116 65.61C428.728 65.61 434.086 62.988 438.304 59.112C440.584 57.06 442.864 55.806 445.144 55.806C449.818 55.806 453.694 59.568 453.694 64.242C453.694 66.18 452.896 68.46 451.414 70.056C444.46 77.238 434.086 82.14 422.116 82.14ZM492.113 82.14C474.443 82.14 461.675 68.802 461.675 51.93C461.675 35.058 474.443 21.72 492.113 21.72C509.783 21.72 522.551 35.058 522.551 51.93C522.551 68.802 509.783 82.14 492.113 82.14ZM492.113 67.32C500.435 67.32 506.363 60.252 506.363 51.93C506.363 43.608 500.435 36.54 492.113 36.54C483.791 36.54 477.749 43.608 477.749 51.93C477.749 60.252 483.791 67.32 492.113 67.32ZM562.139 82.14C544.469 82.14 531.701 68.802 531.701 51.93C531.701 35.058 544.469 21.72 562.139 21.72C579.809 21.72 592.577 35.058 592.577 51.93C592.577 68.802 579.809 82.14 562.139 82.14ZM562.139 67.32C570.461 67.32 576.389 60.252 576.389 51.93C576.389 43.608 570.461 36.54 562.139 36.54C553.817 36.54 547.775 43.608 547.775 51.93C547.775 60.252 553.817 67.32 562.139 67.32ZM604.006 74.16V8.03999C604.006 3.594 607.54 0.0599957 611.986 0.0599957C616.432 0.0599957 619.966 3.594 619.966 8.03999V74.16C619.966 78.606 616.432 82.14 611.986 82.14C607.54 82.14 604.006 78.606 604.006 74.16ZM29.21 196.14C14.276 196.14 3.56 184.968 3.56 177.9C3.56 173.226 7.436 169.35 12.11 169.35C15.53 169.35 17.582 171.174 19.064 173.226C21.344 176.304 23.054 180.18 29.21 180.18C34.34 180.18 38.33 176.19 38.33 171.06C38.33 165.702 33.542 163.878 27.614 161.94L21.8 160.002C13.136 157.152 4.13 151.794 4.13 136.746C4.13 123.864 15.188 114.06 29.21 114.06C44.258 114.06 53.606 125.004 53.606 131.046C53.606 135.72 49.73 139.596 45.056 139.596C41.75 139.596 40.04 138 38.444 136.062C36.278 133.326 34.454 130.02 29.21 130.02C24.764 130.02 21.23 133.554 21.23 137.886C21.23 142.56 25.562 144.84 30.236 146.322L35.138 147.918C44.714 150.996 55.43 155.67 55.43 172.2C55.43 185.88 43.916 196.14 29.21 196.14ZM66.8478 169.35V143.7C66.8478 139.254 70.3818 135.72 74.8278 135.72C79.2738 135.72 82.8078 139.254 82.8078 143.7V169.92C82.8078 177.33 87.3678 181.32 93.0678 181.32C98.7678 181.32 103.328 177.33 103.328 169.92V143.7C103.328 139.254 106.862 135.72 111.308 135.72C115.754 135.72 119.288 139.254 119.288 143.7V169.35C119.288 185.424 107.774 196.14 93.0678 196.14C78.3618 196.14 66.8478 185.424 66.8478 169.35ZM132.977 188.16V159.546C132.977 145.182 142.781 135.72 155.207 135.72C161.819 135.72 167.633 137.886 171.737 144.27C175.727 137.886 181.655 135.72 188.267 135.72C200.693 135.72 210.497 145.182 210.497 159.546V188.16C210.497 192.606 206.963 196.14 202.517 196.14C198.071 196.14 194.537 192.606 194.537 188.16V159.318C194.537 153.39 191.231 150.54 187.127 150.54C183.023 150.54 179.717 153.39 179.717 159.318V188.16C179.717 192.606 176.183 196.14 171.737 196.14C167.291 196.14 163.757 192.606 163.757 188.16V159.318C163.757 153.39 160.451 150.54 156.347 150.54C152.243 150.54 148.937 153.39 148.937 159.318V188.16C148.937 192.606 145.403 196.14 140.957 196.14C136.511 196.14 132.977 192.606 132.977 188.16ZM224.154 188.16V159.546C224.154 145.182 233.958 135.72 246.384 135.72C252.996 135.72 258.81 137.886 262.914 144.27C266.904 137.886 272.832 135.72 279.444 135.72C291.87 135.72 301.674 145.182 301.674 159.546V188.16C301.674 192.606 298.14 196.14 293.694 196.14C289.248 196.14 285.714 192.606 285.714 188.16V159.318C285.714 153.39 282.408 150.54 278.304 150.54C274.2 150.54 270.894 153.39 270.894 159.318V188.16C270.894 192.606 267.36 196.14 262.914 196.14C258.468 196.14 254.934 192.606 254.934 188.16V159.318C254.934 153.39 251.628 150.54 247.524 150.54C243.42 150.54 240.114 153.39 240.114 159.318V188.16C240.114 192.606 236.58 196.14 232.134 196.14C227.688 196.14 224.154 192.606 224.154 188.16ZM343.49 196.14C325.934 196.14 313.052 182.916 313.052 165.93C313.052 149.058 325.82 135.72 343.49 135.72C352.838 135.72 359.906 139.596 363.098 142.56C364.922 144.156 365.948 146.436 365.948 148.716C365.948 150.654 365.378 152.364 363.782 154.302L349.076 171.858C347.48 173.682 345.77 174.48 343.604 174.48C339.272 174.48 335.966 171.402 335.966 167.184C335.966 165.474 336.422 163.764 337.676 162.396L347.48 151.11C346.682 150.768 344.744 150.54 343.49 150.54C335.396 150.54 329.126 157.38 329.126 165.93C329.126 174.48 335.282 181.32 343.49 181.32C347.708 181.32 350.558 179.61 352.496 178.014C354.776 176.076 356.372 174.366 359.45 174.366C363.896 174.366 367.316 177.558 367.316 182.004C367.316 183.6 366.518 185.538 365.036 187.248C361.16 191.922 353.294 196.14 343.49 196.14ZM378.121 188.16V164.562C378.121 146.892 390.433 135.72 405.823 135.72C409.927 135.72 413.233 139.026 413.233 143.13C413.233 147.234 409.927 150.54 405.823 150.54C399.325 150.54 394.081 155.1 394.081 164.562V188.16C394.081 192.606 390.547 196.14 386.101 196.14C381.655 196.14 378.121 192.606 378.121 188.16Z" fill="url(#paint0_linear_302_4368)"/>
<defs>
<linearGradient id="paint0_linear_302_4368" x1="579" y1="-10" x2="579" y2="218" gradientUnits="userSpaceOnUse">
<stop stop-color="white"/>
<stop offset="0.276042" stop-color="#6DEEFA"/>
<stop offset="0.786458" stop-color="#04D9BE"/>
<stop offset="1" stop-color="#10B896"/>
</linearGradient>
</defs>
</svg>
