<svg width="551" height="107" viewBox="0 0 551 107" fill="none" xmlns="http://www.w3.org/2000/svg">
<path d="M33.553 74.424L36.175 67.014H27.055L22.381 79.782C21.127 83.088 18.163 85.14 14.971 85.14C10.639 85.14 6.877 81.492 6.877 77.16C6.877 76.362 6.991 75.336 7.333 74.424L9.955 67.014H7.789C3.685 67.014 0.379 63.708 0.379 59.604C0.379 55.5 3.685 52.194 7.789 52.194H15.427L21.355 36.006H18.733C14.629 36.006 11.323 32.7 11.323 28.596C11.323 24.492 14.629 21.186 18.733 21.186H26.713L31.387 8.41799C32.641 5.112 35.605 3.06 38.797 3.06C43.015 3.06 46.891 6.48 46.891 11.04C46.891 11.952 46.777 12.864 46.435 13.776L43.699 21.186H52.933L57.607 8.41799C58.861 5.112 61.825 3.06 65.017 3.06C69.235 3.06 73.111 6.48 73.111 11.04C73.111 11.952 72.997 12.864 72.655 13.776L69.919 21.186H72.199C76.303 21.186 79.609 24.492 79.609 28.596C79.609 32.7 76.303 36.006 72.199 36.006H64.561L58.633 52.194H61.255C65.359 52.194 68.665 55.5 68.665 59.604C68.665 63.708 65.359 67.014 61.255 67.014H53.275L48.601 79.782C47.347 83.088 44.383 85.14 41.191 85.14C36.859 85.14 33.097 81.492 33.097 77.16C33.097 76.362 33.211 75.336 33.553 74.424ZM38.341 36.006L32.413 52.194H41.647L47.575 36.006H38.341ZM87.5685 75.45V12.75C87.5685 8.076 91.4445 4.19999 96.1185 4.19999H125.303C129.749 4.19999 133.283 7.734 133.283 12.18C133.283 16.626 129.749 20.16 125.303 20.16H104.669V36.12H125.303C129.749 36.12 133.283 39.654 133.283 44.1C133.283 48.546 129.749 52.08 125.303 52.08H104.669V68.04H125.303C129.749 68.04 133.283 71.574 133.283 76.02C133.283 80.466 129.749 84 125.303 84H96.1185C91.4445 84 87.5685 80.124 87.5685 75.45ZM144.68 77.16V51.51C144.68 35.436 156.194 24.72 170.9 24.72C185.606 24.72 197.12 35.436 197.12 51.51V77.16C197.12 81.606 193.586 85.14 189.14 85.14C184.694 85.14 181.16 81.606 181.16 77.16V50.94C181.16 43.53 176.6 39.54 170.9 39.54C165.2 39.54 160.64 43.53 160.64 50.94V77.16C160.64 81.606 157.106 85.14 152.66 85.14C148.214 85.14 144.68 81.606 144.68 77.16ZM213.089 77.958V32.7C213.089 28.254 216.623 24.72 221.069 24.72C225.515 24.72 229.049 28.254 229.049 32.7V77.958C229.049 95.628 216.737 106.8 201.347 106.8C197.243 106.8 193.937 103.494 193.937 99.39C193.937 95.286 197.243 91.98 201.347 91.98C207.845 91.98 213.089 87.42 213.089 77.958ZM221.069 19.02C216.053 19.02 211.949 14.916 211.949 9.9C211.949 4.884 216.053 0.779998 221.069 0.779998C226.085 0.779998 230.189 4.884 230.189 9.9C230.189 14.916 226.085 19.02 221.069 19.02ZM270.918 85.14C253.248 85.14 240.48 71.802 240.48 54.93C240.48 38.058 253.248 24.72 270.918 24.72C288.588 24.72 301.356 38.058 301.356 54.93C301.356 71.802 288.588 85.14 270.918 85.14ZM270.918 70.32C279.24 70.32 285.168 63.252 285.168 54.93C285.168 46.608 279.24 39.54 270.918 39.54C262.596 39.54 256.554 46.608 256.554 54.93C256.554 63.252 262.596 70.32 270.918 70.32ZM299.333 94.716L315.065 76.02V32.7C315.065 28.254 318.599 24.72 323.045 24.72C327.491 24.72 331.025 28.254 331.025 32.7V56.982L355.877 27.342C357.473 25.518 359.183 24.72 361.349 24.72C365.681 24.72 368.987 27.798 368.987 32.016C368.987 33.726 368.531 35.322 367.277 36.804L310.733 104.178C309.137 106.002 307.427 106.8 305.261 106.8C300.929 106.8 297.623 103.722 297.623 99.504C297.623 97.794 298.079 96.198 299.333 94.716ZM405.522 76.59V11.61C405.522 6.93599 409.398 3.06 414.072 3.06C418.746 3.06 422.622 6.93599 422.622 11.61V76.59C422.622 81.264 418.746 85.14 414.072 85.14C409.398 85.14 405.522 81.264 405.522 76.59ZM464.406 85.14C446.736 85.14 433.968 71.802 433.968 54.93C433.968 38.058 446.736 24.72 464.406 24.72C473.982 24.72 482.076 28.824 485.952 33.498C487.434 35.208 488.232 37.26 488.232 38.856C488.232 43.302 484.812 46.38 480.366 46.38C477.174 46.38 475.578 44.67 473.526 42.96C471.474 41.25 468.738 39.54 464.406 39.54C456.312 39.54 450.042 46.38 450.042 54.93C450.042 63.48 456.312 70.32 464.406 70.32C468.396 70.32 471.36 68.724 473.412 67.014C475.464 65.304 477.174 63.366 480.366 63.366C484.812 63.366 488.232 66.558 488.232 71.004C488.232 72.6 487.434 74.538 485.952 76.248C482.076 80.922 474.21 85.14 464.406 85.14ZM527.084 85.14C509.528 85.14 496.646 71.916 496.646 54.93C496.646 38.058 509.414 24.72 527.084 24.72C536.432 24.72 543.5 28.596 546.692 31.56C548.516 33.156 549.542 35.436 549.542 37.716C549.542 39.654 548.972 41.364 547.376 43.302L532.67 60.858C531.074 62.682 529.364 63.48 527.198 63.48C522.866 63.48 519.56 60.402 519.56 56.184C519.56 54.474 520.016 52.764 521.27 51.396L531.074 40.11C530.276 39.768 528.338 39.54 527.084 39.54C518.99 39.54 512.72 46.38 512.72 54.93C512.72 63.48 518.876 70.32 527.084 70.32C531.302 70.32 534.152 68.61 536.09 67.014C538.37 65.076 539.966 63.366 543.044 63.366C547.49 63.366 550.91 66.558 550.91 71.004C550.91 72.6 550.112 74.538 548.63 76.248C544.754 80.922 536.888 85.14 527.084 85.14Z" fill="url(#paint0_linear_310_4737)"/>
<defs>
<linearGradient id="paint0_linear_310_4737" x1="277" y1="125.525" x2="228.107" y2="-27.3496" gradientUnits="userSpaceOnUse">
<stop stop-color="#96EBFF"/>
<stop offset="0.38679" stop-color="white"/>
<stop offset="0.770263" stop-color="#96EBFF"/>
<stop offset="0.83692" stop-color="white"/>
<stop offset="1" stop-color="white"/>
</linearGradient>
</defs>
</svg>
